<svg version="1.1" xmlns="http://www.w3.org/2000/svg" viewBox="0 0 1998.5 575.25" width="5995.5" height="1725.75" filter="invert(93%) hue-rotate(180deg)">
  <!-- svg-source:excalidraw -->
  
  <defs>
    <style class="style-fonts">
      @font-face {
        font-family: "Virgil";
        src: url("https://excalidraw.com/Virgil.woff2");
      }
      @font-face {
        font-family: "Cascadia";
        src: url("https://excalidraw.com/Cascadia.woff2");
      }
    </style>
    
  </defs>
  <g stroke-linecap="round" transform="translate(438 15.75) rotate(0 100.5 128.5)"><path d="M-1.69 -0.4 C65.14 1.17, 129.83 1.68, 202.53 -1.03 M0.05 -0.76 C70.71 -1.27, 141.94 -2.48, 200.58 -0.51 M201.73 -1.5 C200.48 84.41, 201.64 169.89, 200.83 256.54 M201.6 0.26 C202.25 68.7, 202.28 137.82, 200.49 257.06 M200.94 256.69 C157.85 257.85, 114.23 256.77, 1.23 255.36 M201.56 256.16 C146.65 256.84, 91.41 258.2, -0.08 256.6 M0.76 258.28 C-0.3 183.3, 0.63 105.45, 1.3 -1.03 M-0.18 257.13 C0.18 197.51, -0.48 138.92, -0.73 -0.57" stroke="#1e1e1e" stroke-width="1" fill="none"></path></g><g transform="translate(478.92499923706055 109.25) rotate(0 59.57500076293945 35)"><text x="59.57500076293945" y="0" font-family="Virgil, Segoe UI Emoji" font-size="28px" fill="#1e1e1e" text-anchor="middle" style="white-space: pre;" direction="ltr" dominant-baseline="text-before-edge">creature</text><text x="59.57500076293945" y="35" font-family="Virgil, Segoe UI Emoji" font-size="28px" fill="#1e1e1e" text-anchor="middle" style="white-space: pre;" direction="ltr" dominant-baseline="text-before-edge">zone</text></g><g stroke-linecap="round" transform="translate(672.5 15.25) rotate(0 100.5 128.5)"><path d="M-1.14 0.14 C52.82 0.53, 108.18 0.06, 200.69 -0.51 M0.62 -0.82 C76.61 -0.3, 153.93 0.16, 200.16 0.69 M200.87 -0.72 C201.99 59.37, 203.3 119.58, 202.28 256.65 M201.65 -0.52 C201.17 99.02, 201.67 198.05, 201.13 256.94 M199.38 255.72 C157 254.9, 108.78 255.9, -0.54 257.22 M201.43 256.22 C120.61 255.67, 41.28 254.95, -0.26 256.7 M0.93 256.62 C0.41 187.72, 1.84 115.56, -0.28 -1.5 M0.41 256.46 C0.94 164.69, -0.55 74.34, 0.13 -0.32" stroke="#1e1e1e" stroke-width="1" fill="none"></path></g><g transform="translate(713.4249992370605 108.75) rotate(0 59.57500076293945 35)"><text x="59.57500076293945" y="0" font-family="Virgil, Segoe UI Emoji" font-size="28px" fill="#1e1e1e" text-anchor="middle" style="white-space: pre;" direction="ltr" dominant-baseline="text-before-edge">creature</text><text x="59.57500076293945" y="35" font-family="Virgil, Segoe UI Emoji" font-size="28px" fill="#1e1e1e" text-anchor="middle" style="white-space: pre;" direction="ltr" dominant-baseline="text-before-edge">zone</text></g><g stroke-linecap="round" transform="translate(903.25 10.5) rotate(0 100.5 128.5)"><path d="M0.64 -1.55 C77.68 -2.7, 151.17 -1.76, 200.85 -0.4 M-0.81 -0.33 C62.66 0.7, 127.64 0.62, 200.28 -0.22 M202.13 -1.27 C202.03 67.91, 200.41 138.82, 201.2 255.88 M200.29 0.28 C200.78 69.48, 199.6 139.85, 201.01 256.57 M200.82 258.27 C145.08 256.81, 88.99 256.54, -1.69 258.44 M200.97 257.07 C137.78 255.92, 73.3 256.28, 0.54 256.21 M0.53 255.64 C-0.55 191.25, 0.19 127.79, -1.19 1.47 M0.23 256.21 C-1.93 173.44, -1.29 91.94, 0.36 -0.77" stroke="#1e1e1e" stroke-width="1" fill="none"></path></g><g transform="translate(944.1749992370605 104) rotate(0 59.57500076293945 35)"><text x="59.57500076293945" y="0" font-family="Virgil, Segoe UI Emoji" font-size="28px" fill="#1e1e1e" text-anchor="middle" style="white-space: pre;" direction="ltr" dominant-baseline="text-before-edge">creature</text><text x="59.57500076293945" y="35" font-family="Virgil, Segoe UI Emoji" font-size="28px" fill="#1e1e1e" text-anchor="middle" style="white-space: pre;" direction="ltr" dominant-baseline="text-before-edge">zone</text></g><g stroke-linecap="round" transform="translate(1137.75 10) rotate(0 100.5 128.5)"><path d="M1.45 -1.15 C76.25 1.35, 154.89 1.16, 201.28 -0.14 M-0.81 -0.64 C46.09 -0.06, 90.07 0.44, 200.73 0.11 M201.77 -1.41 C201.6 102.37, 202.65 203.25, 200.53 256.47 M201.47 -0.19 C198.46 70.79, 199.17 140.15, 200.86 256.25 M201.91 255.79 C130.97 256.8, 55.95 259.71, 0.29 256.29 M201.29 257.45 C157.09 257.96, 115.06 256.35, -0.41 256.73 M-1.18 256.58 C-1.12 189.55, -1.86 120.7, 0.36 1.58 M0.1 256.22 C0.14 203.32, -0.24 147.89, 0.65 -0.16" stroke="#1e1e1e" stroke-width="1" fill="none"></path></g><g transform="translate(1178.6749992370605 103.5) rotate(0 59.57500076293945 35)"><text x="59.57500076293945" y="0" font-family="Virgil, Segoe UI Emoji" font-size="28px" fill="#1e1e1e" text-anchor="middle" style="white-space: pre;" direction="ltr" dominant-baseline="text-before-edge">creature</text><text x="59.57500076293945" y="35" font-family="Virgil, Segoe UI Emoji" font-size="28px" fill="#1e1e1e" text-anchor="middle" style="white-space: pre;" direction="ltr" dominant-baseline="text-before-edge">zone</text></g><g stroke-linecap="round" transform="translate(1364.5 11.25) rotate(0 100.5 128.5)"><path d="M1.44 0.29 C78 0.17, 157.36 1.84, 201.58 0.9 M-0.79 -0.41 C45.08 -1.38, 90.99 -1.85, 200.34 -0.24 M202.47 0.36 C204.42 68.61, 203.31 138.5, 201.19 255.43 M200.23 0.65 C202.11 101.33, 202.25 201.64, 201.55 257.43 M202.53 256.75 C130.28 257, 61.46 255.34, 0.2 258.5 M201.3 257.65 C125.27 256.39, 48.35 255.77, -0.76 257.74 M1.53 257.45 C1.05 178.64, 2.33 100.33, 0.54 0.59 M-0.11 257.05 C-1.77 203.75, -1.93 151.16, -0.33 0.1" stroke="#1e1e1e" stroke-width="1" fill="none"></path></g><g transform="translate(1405.4249992370605 104.75) rotate(0 59.57500076293945 35)"><text x="59.57500076293945" y="0" font-family="Virgil, Segoe UI Emoji" font-size="28px" fill="#1e1e1e" text-anchor="middle" style="white-space: pre;" direction="ltr" dominant-baseline="text-before-edge">creature</text><text x="59.57500076293945" y="35" font-family="Virgil, Segoe UI Emoji" font-size="28px" fill="#1e1e1e" text-anchor="middle" style="white-space: pre;" direction="ltr" dominant-baseline="text-before-edge">zone</text></g><g stroke-linecap="round" transform="translate(442.25 299.125) rotate(0 100.5 128.5)"><path d="M1.53 -0.25 C67.87 1.3, 137.64 -0.36, 201.2 1.5 M0.3 0.65 C77.32 1.02, 153.45 0.4, 200.24 0.74 M202.53 0.45 C198 77.73, 199.28 155.51, 201.54 257.59 M200.89 0.05 C202.91 53.08, 202.75 106.84, 200.67 257.1 M201.3 258.52 C125.7 256.03, 47.12 256.96, -1.36 258.72 M201.18 257.73 C122.14 257.4, 43.86 256.87, 0.26 257.88 M1.03 255.57 C2.77 167.61, 0.89 76.74, -1.24 -0.26 M0.51 257.52 C0.52 154.44, 0.05 52.74, -0.8 0.34" stroke="#1e1e1e" stroke-width="1" fill="none"></path></g><g transform="translate(485.34166717529297 392.625) rotate(0 57.40833282470703 35)"><text x="57.40833282470703" y="0" font-family="Virgil, Segoe UI Emoji" font-size="28px" fill="#1e1e1e" text-anchor="middle" style="white-space: pre;" direction="ltr" dominant-baseline="text-before-edge">artifact</text><text x="57.40833282470703" y="35" font-family="Virgil, Segoe UI Emoji" font-size="28px" fill="#1e1e1e" text-anchor="middle" style="white-space: pre;" direction="ltr" dominant-baseline="text-before-edge">zone</text></g><g stroke-linecap="round" transform="translate(676.75 299.625) rotate(0 100.5 128.5)"><path d="M-1.43 0.65 C52.12 -0.76, 106.34 1.75, 202.45 -1.48 M0.79 0.2 C51.6 -1.72, 101.64 -0.57, 201.03 -0.88 M200.02 -0.31 C203.27 86.85, 203.51 175.43, 199.5 258.43 M201.07 -0.09 C200.63 76.93, 200.38 152.96, 201.66 257.09 M202.6 257.76 C159.8 260.21, 117.4 260.25, 1.59 256.74 M200.27 256.65 C131.47 257.58, 63.99 259.34, 0.44 256.36 M1.29 257.41 C-1.91 196.64, -2.56 137.33, 1.58 -0.05 M0.45 256.8 C-1.32 188.29, -2.11 119.02, -0.78 -0.34" stroke="#1e1e1e" stroke-width="1" fill="none"></path></g><g transform="translate(719.841667175293 393.125) rotate(0 57.40833282470703 35)"><text x="57.40833282470703" y="0" font-family="Virgil, Segoe UI Emoji" font-size="28px" fill="#1e1e1e" text-anchor="middle" style="white-space: pre;" direction="ltr" dominant-baseline="text-before-edge">artifact</text><text x="57.40833282470703" y="35" font-family="Virgil, Segoe UI Emoji" font-size="28px" fill="#1e1e1e" text-anchor="middle" style="white-space: pre;" direction="ltr" dominant-baseline="text-before-edge">zone</text></g><g stroke-linecap="round" transform="translate(907.5 294.875) rotate(0 100.5 128.5)"><path d="M-0.95 -1.01 C57.76 0.85, 116.56 -2.14, 200.19 0.61 M0.4 -0.42 C74.09 0.33, 149.73 -1.29, 201.36 0.85 M201.31 -0.58 C200.29 84.86, 198.25 169.97, 200.96 256.78 M200.91 0.5 C200.84 78.92, 201.84 157.73, 200.23 257.14 M200.92 258.68 C122.28 259.48, 47.88 257.5, 0.74 257.37 M200.11 256.12 C124.72 257.18, 48.36 255.65, -0.61 257.57 M-0.59 256.35 C-2.89 202.43, -0.07 148.32, -0.5 1.02 M-0.01 257.45 C-1.97 163.51, -1.94 69, -0.64 -0.65" stroke="#1e1e1e" stroke-width="1" fill="none"></path></g><g transform="translate(950.591667175293 388.375) rotate(0 57.40833282470703 35)"><text x="57.40833282470703" y="0" font-family="Virgil, Segoe UI Emoji" font-size="28px" fill="#1e1e1e" text-anchor="middle" style="white-space: pre;" direction="ltr" dominant-baseline="text-before-edge">artifact</text><text x="57.40833282470703" y="35" font-family="Virgil, Segoe UI Emoji" font-size="28px" fill="#1e1e1e" text-anchor="middle" style="white-space: pre;" direction="ltr" dominant-baseline="text-before-edge">zone</text></g><g stroke-linecap="round" transform="translate(1142 294.375) rotate(0 100.5 128.5)"><path d="M0.2 1.5 C69.06 -0.47, 134.41 1.62, 202.3 1.58 M-0.76 0.74 C64.9 -0.05, 130.1 1.69, 201.25 -0.54 M201.54 0.59 C199.89 73.56, 201.35 144.05, 201.11 257.14 M200.67 0.1 C201.44 74.44, 200.01 148.84, 201.68 257.72 M199.64 258.72 C133.84 258.43, 64.23 259.06, 1.45 255.54 M201.26 257.88 C148.96 254.59, 95.42 255.81, -0.8 257.72 M-1.24 256.74 C2.34 173.29, 0.26 90.69, 1.05 0.91 M-0.8 257.34 C-0.74 186, -0.6 115.04, -0.21 0.42" stroke="#1e1e1e" stroke-width="1" fill="none"></path></g><g transform="translate(1185.091667175293 387.875) rotate(0 57.40833282470703 35)"><text x="57.40833282470703" y="0" font-family="Virgil, Segoe UI Emoji" font-size="28px" fill="#1e1e1e" text-anchor="middle" style="white-space: pre;" direction="ltr" dominant-baseline="text-before-edge">artifact</text><text x="57.40833282470703" y="35" font-family="Virgil, Segoe UI Emoji" font-size="28px" fill="#1e1e1e" text-anchor="middle" style="white-space: pre;" direction="ltr" dominant-baseline="text-before-edge">zone</text></g><g stroke-linecap="round" transform="translate(1368.75 295.625) rotate(0 100.5 128.5)"><path d="M1.45 -1.48 C48.17 -0.9, 99.27 0.08, 201.41 0.8 M0.03 -0.88 C51.37 -0.63, 102.28 -2.03, 200.83 0.17 M199.5 1.43 C201.65 67.67, 201.8 135.91, 200.83 256.82 M201.66 0.09 C199.37 93.15, 200.82 186.74, 201.34 256.96 M202.59 256.74 C122.65 259.1, 44.26 257.27, -0.7 255.21 M201.44 256.36 C159.75 259.35, 118.93 259.49, 0.23 256.67 M1.58 256.95 C1.1 191.33, 2.64 124.53, -0.4 -0.03 M-0.78 256.66 C1.43 164.93, 1.86 74.58, 0.32 0.78" stroke="#1e1e1e" stroke-width="1" fill="none"></path></g><g transform="translate(1411.841667175293 389.125) rotate(0 57.40833282470703 35)"><text x="57.40833282470703" y="0" font-family="Virgil, Segoe UI Emoji" font-size="28px" fill="#1e1e1e" text-anchor="middle" style="white-space: pre;" direction="ltr" dominant-baseline="text-before-edge">artifact</text><text x="57.40833282470703" y="35" font-family="Virgil, Segoe UI Emoji" font-size="28px" fill="#1e1e1e" text-anchor="middle" style="white-space: pre;" direction="ltr" dominant-baseline="text-before-edge">zone</text></g><g stroke-linecap="round" transform="translate(1786.5 308.25) rotate(0 100.5 128.5)"><path d="M0.87 -0.28 C64.39 0.43, 126.26 -1.14, 200.8 0.9 M-0.19 0.01 C45.66 2.26, 92.92 2.36, 200.19 -0.63 M201.09 -1.17 C202.1 61.23, 202.83 124.66, 200.29 255.74 M201.37 -0.7 C201.57 95.05, 200.92 190.12, 200.88 257.77 M201.02 255.32 C133.78 260.4, 65.5 260.31, 0.58 256.57 M200.73 257.07 C137.88 257.25, 73.79 257.07, -0.84 256.52 M-1.34 257.45 C-1.24 192.61, -1.53 131.41, -1.41 1.6 M-0.67 257.78 C0.5 188.97, 0.34 121.07, 0.79 0.13" stroke="#1e1e1e" stroke-width="1" fill="none"></path></g><g transform="translate(1857.533332824707 419.25) rotate(0 29.46666717529297 17.5)"><text x="29.46666717529297" y="0" font-family="Virgil, Segoe UI Emoji" font-size="28px" fill="#1e1e1e" text-anchor="middle" style="white-space: pre;" direction="ltr" dominant-baseline="text-before-edge">deck</text></g><g stroke-linecap="round" transform="translate(1787.5 26.25) rotate(0 100.5 128.5)"><path d="M1.16 0.1 C44.98 -1.09, 90.97 -0.28, 200.28 -0.79 M0.25 0.41 C43.79 1.04, 89.55 0.31, 201.88 -0.13 M202.54 0.02 C200.3 102.47, 203.3 203.99, 202.42 257.52 M200.97 -0.24 C201.42 71.48, 201.65 142.08, 201.13 256.25 M199.77 255.5 C151.88 259.6, 100.18 259.27, 0.46 255.42 M201.73 256.25 C121.58 258.02, 40.33 257.85, -0.04 257.88 M1.57 256.82 C-0.7 174.83, 0.25 95.4, -1.09 0.42 M-0.8 257.26 C-1.9 160.68, -1.78 63.1, 0.13 -0.51" stroke="#1e1e1e" stroke-width="1" fill="none"></path></g><g transform="translate(1820.75 137.25) rotate(0 67.25 17.5)"><text x="67.25" y="0" font-family="Virgil, Segoe UI Emoji" font-size="28px" fill="#1e1e1e" text-anchor="middle" style="white-space: pre;" direction="ltr" dominant-baseline="text-before-edge">graveyard</text></g><g stroke-linecap="round" transform="translate(10 301.25) rotate(0 100.5 128.5)"><path d="M1.25 0.65 C60.02 0.16, 117.26 -1.1, 200.01 1.74 M0.42 -0.78 C46.86 -0.28, 92.4 0.38, 200.68 0.1 M202.46 -0.17 C200.43 97.97, 200.86 196.34, 201.84 255.84 M200.62 0.66 C201.37 101.66, 200.97 205.03, 201.76 257.03 M201.79 257.37 C159.55 257.39, 119.42 257.64, 1.61 258.41 M200.91 257.21 C151.51 258.49, 101.8 258.59, 0.34 257.66 M1.25 256.52 C0.71 185.35, 0.46 116.43, 0.4 -1.58 M-0.72 257.55 C1.22 161.38, 0.64 67.87, 0.25 -0.27" stroke="#1e1e1e" stroke-width="1" fill="none"></path></g><g transform="translate(35.241668701171875 412.25) rotate(0 75.25833129882812 17.5)"><text x="75.25833129882812" y="0" font-family="Virgil, Segoe UI Emoji" font-size="28px" fill="#1e1e1e" text-anchor="middle" style="white-space: pre;" direction="ltr" dominant-baseline="text-before-edge">extra deck</text></g><g stroke-linecap="round" transform="translate(11 19.25) rotate(0 100.5 128.5)"><path d="M0.55 0.3 C60.21 -1.61, 122.81 1.08, 199.77 -1.5 M0.26 0.23 C65.19 2.45, 131.63 1.66, 201.73 -0.75 M202.16 -0.07 C204.47 102.2, 203.72 202.7, 202.57 256.82 M201.61 -0.55 C200.23 83.77, 200.77 166.34, 200.2 257.26 M199.78 257.29 C138.48 257.92, 79.83 258.79, -0.92 258.17 M201.53 257.66 C132.28 258.17, 62.23 258.08, -0.22 256.42 M-0.62 256.09 C-2.48 173.83, -1.21 87.24, 1.12 -0.66 M0.36 256.31 C1.65 188.79, 2.11 118.83, -0.07 -0.63" stroke="#1e1e1e" stroke-width="1" fill="none"></path></g><g transform="translate(49.42499923706055 112.75) rotate(0 62.07500076293945 35)"><text x="62.07500076293945" y="0" font-family="Virgil, Segoe UI Emoji" font-size="28px" fill="#1e1e1e" text-anchor="middle" style="white-space: pre;" direction="ltr" dominant-baseline="text-before-edge">monument</text><text x="62.07500076293945" y="35" font-family="Virgil, Segoe UI Emoji" font-size="28px" fill="#1e1e1e" text-anchor="middle" style="white-space: pre;" direction="ltr" dominant-baseline="text-before-edge">zone</text></g></svg>