<svg version="1.1" xmlns="http://www.w3.org/2000/svg" viewBox="0 0 1194 312.90245305746794" width="3582" height="938.7073591724038" filter="invert(93%) hue-rotate(180deg)">
  <!-- svg-source:excalidraw -->
  
  <defs>
    <style class="style-fonts">
      @font-face {
        font-family: "Virgil";
        src: url("https://excalidraw.com/Virgil.woff2");
      }
      @font-face {
        font-family: "Cascadia";
        src: url("https://excalidraw.com/Cascadia.woff2");
      }
    </style>
    
  </defs>
  <g stroke-linecap="round" transform="translate(10 60.90245305746791) rotate(0 72 40)"><path d="M0.55 -1.27 C31.19 0.16, 62.41 -0.85, 142.81 1.4 M0.38 0.43 C34.35 -0.97, 68.19 -1.23, 144.6 0.6 M143.73 -0.57 C143.89 28.69, 142.45 56.51, 142.71 81.29 M143.71 -0.44 C145.27 28.56, 144.56 58.69, 143.38 79.32 M144.39 81.22 C99.89 79.98, 51.18 78.92, 1.6 80.82 M144.76 79.63 C110.15 80.91, 77.23 81.19, 0.81 80.74 M0.5 81.16 C-0.3 64.03, -0.78 47.05, 1.51 -0.92 M0.31 80.31 C-0.19 58.79, 0.37 37.23, 0.32 -0.18" stroke="#1e1e1e" stroke-width="1" fill="none"></path></g><g transform="translate(52.53333282470703 65.90245305746791) rotate(0 29.46666717529297 35)"><text x="29.46666717529297" y="0" font-family="Virgil, Segoe UI Emoji" font-size="28px" fill="#1e1e1e" text-anchor="middle" style="white-space: pre;" direction="ltr" dominant-baseline="text-before-edge">main</text><text x="29.46666717529297" y="35" font-family="Virgil, Segoe UI Emoji" font-size="28px" fill="#1e1e1e" text-anchor="middle" style="white-space: pre;" direction="ltr" dominant-baseline="text-before-edge">deck</text></g><g stroke-linecap="round" transform="translate(10 215.4024530574679) rotate(0 72 40)"><path d="M-0.75 -0.81 C44.32 -0.87, 87.94 0.53, 145.48 -1.65 M0.58 0.19 C56.04 -0.42, 111.58 0.39, 143.54 -0.34 M144.62 0.72 C143.74 31.34, 143.25 59.62, 143.65 78.5 M143.08 0.82 C145.08 18.3, 144.88 36.77, 144.91 79.09 M144.34 81.36 C99.11 80.56, 51.49 79.55, 0.08 80.4 M143.89 79.74 C107.35 79.58, 70.3 79.46, 0.07 80.76 M-1.49 78.52 C-2.08 49.38, 0.5 22.7, -0.04 -1.49 M0.47 80.68 C0.83 48.46, 0.22 16.96, 0.61 0.21" stroke="#1e1e1e" stroke-width="1" fill="none"></path></g><g transform="translate(36.21666717529297 220.4024530574679) rotate(0 45.78333282470703 35)"><text x="45.78333282470703" y="0" font-family="Virgil, Segoe UI Emoji" font-size="28px" fill="#1e1e1e" text-anchor="middle" style="white-space: pre;" direction="ltr" dominant-baseline="text-before-edge">extra </text><text x="45.78333282470703" y="35" font-family="Virgil, Segoe UI Emoji" font-size="28px" fill="#1e1e1e" text-anchor="middle" style="white-space: pre;" direction="ltr" dominant-baseline="text-before-edge">deck</text></g><g stroke-linecap="round" transform="translate(301 57.90245305746791) rotate(0 72 40)"><path d="M0.17 -1.99 C37.34 1.9, 77.23 0.07, 144.87 0.07 M0.89 0.84 C43.7 0.42, 87.43 1.02, 144.39 0.89 M142.16 -1.35 C144.8 20.51, 144.44 43.09, 142.02 79 M144.82 -0.2 C143.43 18.24, 144.73 36.48, 143.42 80.14 M142.91 78.79 C101.87 78.82, 62.23 77.77, 0.66 78.25 M143.39 79.06 C96.44 80.05, 51 79.85, 0.68 79.06 M0.83 78.5 C-1.29 60.36, -0.18 42.11, -1.73 0.96 M0.41 79.52 C-0.9 57.9, 0.58 37.63, -0.9 -0.67" stroke="#1e1e1e" stroke-width="1" fill="none"></path></g><g transform="translate(342.25 80.40245305746791) rotate(0 30.75 17.5)"><text x="30.75" y="0" font-family="Virgil, Segoe UI Emoji" font-size="28px" fill="#1e1e1e" text-anchor="middle" style="white-space: pre;" direction="ltr" dominant-baseline="text-before-edge">hand</text></g><g mask="url(#mask-UqP_xeUnLE38U5d_pgQcb)" stroke-linecap="round"><g transform="translate(156 102.90245305746791) rotate(0 68.24399027042091 -0.4312106040005119)"><path d="M-1.75 0.51 C46.8 -0.81, 94.7 -2.34, 137.66 0.61 M-0.94 -0.6 C52.37 -1.94, 105.74 -1.69, 138.24 -0.2" stroke="#2f9e44" stroke-width="1" fill="none"></path></g><g transform="translate(156 102.90245305746791) rotate(0 68.24399027042091 -0.4312106040005119)"><path d="M108.01 9.75 C118.49 5.53, 128.25 0.74, 136.9 0.41 M108.82 8.64 C120.24 4.47, 131.74 1.14, 137.47 -0.41" stroke="#2f9e44" stroke-width="1" fill="none"></path></g><g transform="translate(156 102.90245305746791) rotate(0 68.24399027042091 -0.4312106040005119)"><path d="M108.61 -10.76 C118.74 -7.9, 128.3 -5.61, 136.9 0.41 M109.41 -11.87 C120.63 -8.27, 131.91 -3.83, 137.47 -0.41" stroke="#2f9e44" stroke-width="1" fill="none"></path></g></g><mask id="mask-UqP_xeUnLE38U5d_pgQcb"><rect x="0" y="0" fill="#fff" width="395" height="202.9024530574679"></rect><rect x="202.76666641235352" y="90.40245305746794" fill="#000" width="45.46666717529297" height="25" opacity="1"></rect></mask><g transform="translate(202.76666641235352 90.40245305746794) rotate(0 21.477323858067393 12.068789395999488)"><text x="22.733333587646484" y="0" font-family="Virgil, Segoe UI Emoji" font-size="20px" fill="#2f9e44" text-anchor="middle" style="white-space: pre;" direction="ltr" dominant-baseline="text-before-edge">draw</text></g><g stroke-linecap="round" transform="translate(607 54.40245305746791) rotate(0 87 40)"><path d="M-1.91 -1.47 C69.87 1.61, 138.7 -0.17, 174.19 -0.05 M-0.94 0.42 C61.02 -1.03, 122.17 -2.05, 174.38 0.31 M172.67 1.39 C175.18 20.82, 176.1 42.83, 172.53 79.09 M174.29 -0.73 C174.75 23.12, 174.78 44.6, 173.82 80.6 M172.62 78.56 C119.35 79.74, 62.7 83.62, 1.43 81.12 M173.29 80.37 C104.24 80.31, 35.09 79.49, -0.79 80.87 M-0.61 78.89 C-0.96 52.58, -1.84 23.83, 1.41 -0.32 M-0.72 80.89 C-1.16 52.52, 0.09 25.75, 0.56 0.53" stroke="#1e1e1e" stroke-width="1" fill="none"></path></g><g transform="translate(614.0666656494141 59.40245305746791) rotate(0 79.93333435058594 35)"><text x="79.93333435058594" y="0" font-family="Virgil, Segoe UI Emoji" font-size="28px" fill="#1e1e1e" text-anchor="middle" style="white-space: pre;" direction="ltr" dominant-baseline="text-before-edge">face-down </text><text x="79.93333435058594" y="35" font-family="Virgil, Segoe UI Emoji" font-size="28px" fill="#1e1e1e" text-anchor="middle" style="white-space: pre;" direction="ltr" dominant-baseline="text-before-edge">on the field</text></g><g stroke-linecap="round" transform="translate(608 222.9024530574679) rotate(0 87 40)"><path d="M-1.5 -1.16 C38.89 -1.21, 77.17 -0.48, 175.53 -0.62 M-0.71 0.26 C45.68 0.4, 90.22 0.55, 173.7 0.9 M174.68 -0.64 C173.05 23.92, 172.95 42.76, 175.74 80.36 M173.95 -0.02 C174.47 16.49, 174.57 35.37, 173.5 80.21 M172.79 79.11 C106.22 78.59, 41.19 78.92, 0 78.09 M173.08 80.55 C126.52 81.64, 79.41 81.72, 0.8 79.28 M0.04 80.06 C2.13 61.63, -1.25 42.59, -0.66 -1.41 M-0.16 80.74 C0.32 49.72, -0.26 19.33, -0.83 -0.44" stroke="#1e1e1e" stroke-width="1" fill="none"></path></g><g transform="translate(615.0666656494141 227.9024530574679) rotate(0 79.93333435058594 35)"><text x="79.93333435058594" y="0" font-family="Virgil, Segoe UI Emoji" font-size="28px" fill="#1e1e1e" text-anchor="middle" style="white-space: pre;" direction="ltr" dominant-baseline="text-before-edge">face-up</text><text x="79.93333435058594" y="35" font-family="Virgil, Segoe UI Emoji" font-size="28px" fill="#1e1e1e" text-anchor="middle" style="white-space: pre;" direction="ltr" dominant-baseline="text-before-edge">on the field</text></g><g mask="url(#mask-3V-Hk9Z4T_z-_321VvF6R)" stroke-linecap="round"><g transform="translate(448 95.90245305746791) rotate(0 78.27581358328462 0.2440526596197401)"><path d="M1.64 -0.72 C34.2 2.37, 63.37 -0.25, 154.9 1.23 M0.34 -0.84 C47.46 -1.35, 93.51 0.02, 156.21 1.44" stroke="#2f9e44" stroke-width="1" fill="none"></path></g><g transform="translate(448 95.90245305746791) rotate(0 78.27581358328462 0.2440526596197401)"><path d="M129.43 10.32 C135.43 10.74, 138.09 5.92, 155.1 1.67 M128.13 10.2 C136.72 7.57, 144.24 5.74, 156.41 1.88" stroke="#2f9e44" stroke-width="1" fill="none"></path></g><g transform="translate(448 95.90245305746791) rotate(0 78.27581358328462 0.2440526596197401)"><path d="M129.9 -10.2 C135.92 -5.51, 138.49 -6.07, 155.1 1.67 M128.61 -10.32 C137.06 -6.74, 144.44 -2.38, 156.41 1.88" stroke="#2f9e44" stroke-width="1" fill="none"></path></g></g><mask id="mask-3V-Hk9Z4T_z-_321VvF6R"><rect x="0" y="0" fill="#fff" width="704" height="196.9024530574679"></rect><rect x="509.45000076293945" y="83.90245305746794" fill="#000" width="33.099998474121094" height="25" opacity="1"></rect></mask><g transform="translate(509.45000076293945 83.90245305746794) rotate(0 16.825812820345163 12.24405265961974)"><text x="16.549999237060547" y="0" font-family="Virgil, Segoe UI Emoji" font-size="20px" fill="#2f9e44" text-anchor="middle" style="white-space: pre;" direction="ltr" dominant-baseline="text-before-edge">set</text></g><g mask="url(#mask-s-SUZAY3iG4XWmh90-Vz1)" stroke-linecap="round"><g transform="translate(365 254.9024530574679) rotate(0 118.5765350734016 -0.8152316301909366)"><path d="M-0.46 -1.67 C57.42 -3.04, 110.71 -0.3, 237.61 -1.56 M0.28 0.43 C76.23 -2.21, 152.99 -2.17, 235.69 -0.64" stroke="#2f9e44" stroke-width="1" fill="none"></path></g><g transform="translate(365 254.9024530574679) rotate(0 118.5765350734016 -0.8152316301909366)"><path d="M206.82 7.27 C215.75 5.09, 219.16 6, 237.61 -2.5 M207.71 9.77 C216.16 5.11, 225.64 1.95, 235.32 -1.4" stroke="#2f9e44" stroke-width="1" fill="none"></path></g><g transform="translate(365 254.9024530574679) rotate(0 118.5765350734016 -0.8152316301909366)"><path d="M207.09 -13.25 C215.82 -10.55, 219.16 -4.77, 237.61 -2.5 M207.97 -10.75 C216.49 -8.76, 225.89 -5.26, 235.32 -1.4" stroke="#2f9e44" stroke-width="1" fill="none"></path></g></g><mask id="mask-s-SUZAY3iG4XWmh90-Vz1"><rect x="0" y="0" fill="#fff" width="701" height="354.90245305746794"></rect><rect x="449.0166664123535" y="242.40245305746794" fill="#000" width="67.96666717529297" height="25" opacity="1"></rect></mask><g transform="translate(449.0166664123535 242.40245305746794) rotate(0 34.559868661048085 11.684768369809063)"><text x="33.983333587646484" y="0" font-family="Virgil, Segoe UI Emoji" font-size="20px" fill="#2f9e44" text-anchor="middle" style="white-space: pre;" direction="ltr" dominant-baseline="text-before-edge">summon</text></g><g stroke-linecap="round"><g transform="translate(368 138.9024530574679) rotate(0 -0.21407282142928352 56.25470768660307)"><path d="M0.1 0.11 C-1.12 24.93, -1.17 51.83, -0.27 112.4 M-0.38 0.95 C-0.02 43.41, 0.97 85.62, 0.12 111.89" stroke="#2f9e44" stroke-width="1" fill="none"></path></g></g><mask></mask><g stroke-linecap="round"><g transform="translate(370 253.9024530574679) rotate(0 -104.81044095158666 -1.1435819094272688)"><path d="M-1.72 -0.92 C-75.55 -2.63, -151.89 -2.96, -208.96 -0.26 M-0.56 -0.06 C-76.77 -2.04, -152.8 -1.25, -209.06 -0.04" stroke="#2f9e44" stroke-width="1" fill="none"></path></g></g><mask></mask><g mask="url(#mask-Ur3PDWBECe-q9WYMpOyg-)" stroke-linecap="round"><g transform="translate(695 135.9024530574679) rotate(0 0.18253827281296253 38.00247800722718)"><path d="M1.24 1.42 C0.21 24.44, -1.66 47.97, -0.12 75.32 M-0.87 -0.81 C-0.53 23.24, -1.15 44.91, -0.56 76.82" stroke="#2f9e44" stroke-width="1" fill="none"></path></g><g transform="translate(695 135.9024530574679) rotate(0 0.18253827281296253 38.00247800722718)"><path d="M-9.86 50.15 C-7.63 58.03, -6.16 66.41, -0.68 76.14 M-11.97 47.92 C-8.16 57.8, -5.66 65.28, -1.11 77.63" stroke="#2f9e44" stroke-width="1" fill="none"></path></g><g transform="translate(695 135.9024530574679) rotate(0 0.18253827281296253 38.00247800722718)"><path d="M10.66 49.94 C6.4 57.87, 1.38 66.31, -0.68 76.14 M8.55 47.71 C6.28 57.61, 2.7 65.16, -1.11 77.63" stroke="#2f9e44" stroke-width="1" fill="none"></path></g></g><mask id="mask-Ur3PDWBECe-q9WYMpOyg-"><rect x="0" y="0" fill="#fff" width="795" height="311.90245305746794"></rect><rect x="680.3833332061768" y="161.40245305746794" fill="#000" width="29.233333587646484" height="25" opacity="1"></rect></mask><g transform="translate(680.3833332061768 161.40245305746794) rotate(0 14.799205066636205 12.502478007227182)"><text x="14.616666793823242" y="0" font-family="Virgil, Segoe UI Emoji" font-size="20px" fill="#2f9e44" text-anchor="middle" style="white-space: pre;" direction="ltr" dominant-baseline="text-before-edge">flip</text></g><g stroke-linecap="round" transform="translate(1010 139.9024530574679) rotate(0 87 40)"><path d="M0.99 -0.86 C49.63 -1.47, 101.1 -1.88, 174.04 -1.44 M0.11 -0.66 C37.04 -0.34, 72.81 -1.88, 174.07 0.09 M174.6 1.3 C174.82 30.57, 175.8 58.56, 173.98 81.81 M173.99 -0.43 C173.58 20.26, 173.63 41.28, 174.54 79.89 M174.97 78.44 C111.04 81.37, 49.9 78.08, 1.35 78.4 M174.88 80.46 C119.06 79.83, 64.34 78.8, -0.66 80.28 M0.9 81.32 C-0.95 51.25, -0.09 19.97, -1.53 -0.59 M-0.78 80.33 C0.55 50.74, 0.31 21.14, -0.53 0.13" stroke="#1e1e1e" stroke-width="1" fill="none"></path></g><g transform="translate(1059.6666679382324 162.4024530574679) rotate(0 37.33333206176758 17.5)"><text x="37.33333206176758" y="0" font-family="Virgil, Segoe UI Emoji" font-size="28px" fill="#1e1e1e" text-anchor="middle" style="white-space: pre;" direction="ltr" dominant-baseline="text-before-edge">grave</text></g><g stroke-linecap="round"><g transform="translate(833 87.90245305746791) rotate(0 0.18803225648230182 89.61220285110176)"><path d="M1.76 0.92 C-1.09 57.53, -1.6 111.18, -1.31 178.57 M0.45 0.66 C1.45 66.37, 1.88 131.48, -0.76 177.7" stroke="#2f9e44" stroke-width="1" fill="none"></path></g></g><mask></mask><g mask="url(#mask-Xij4NifEnApqnMXxMtJn8)" stroke-linecap="round"><g transform="translate(836 183.9024530574679) rotate(0 86.72989505156875 0.27837358564849524)"><path d="M1.32 -0.24 C68.04 -0.17, 133.56 -2.31, 172.41 1.35 M0.33 -0.13 C37.3 0.99, 74.26 0.82, 173.13 0.66" stroke="#2f9e44" stroke-width="1" fill="none"></path></g><g transform="translate(836 183.9024530574679) rotate(0 86.72989505156875 0.27837358564849524)"><path d="M146.27 10.72 C156.79 7.45, 166.09 1.31, 172.54 2.01 M145.28 10.83 C151.24 8.6, 157.1 6.23, 173.26 1.32" stroke="#2f9e44" stroke-width="1" fill="none"></path></g><g transform="translate(836 183.9024530574679) rotate(0 86.72989505156875 0.27837358564849524)"><path d="M146.24 -9.8 C156.74 -5.11, 166.04 -3.28, 172.54 2.01 M145.25 -9.69 C151.06 -7.51, 156.93 -5.48, 173.26 1.32" stroke="#2f9e44" stroke-width="1" fill="none"></path></g></g><mask id="mask-Xij4NifEnApqnMXxMtJn8"><rect x="0" y="0" fill="#fff" width="1109" height="283.90245305746794"></rect><rect x="885.75" y="171.40245305746794" fill="#000" width="73.5" height="25" opacity="1"></rect></mask><g transform="translate(885.75 171.40245305746794) rotate(0 36.97989505156875 12.778373585648495)"><text x="36.75" y="0" font-family="Virgil, Segoe UI Emoji" font-size="20px" fill="#2f9e44" text-anchor="middle" style="white-space: pre;" direction="ltr" dominant-baseline="text-before-edge">destroy</text></g><g stroke-linecap="round"><g transform="translate(835 89.90245305746791) rotate(0 -26.396196959540248 -0.12270876951515675)"><path d="M-1.57 0.66 C-19.02 -0.07, -38.25 -0.44, -52.07 0.26 M-0.72 -0.91 C-18.96 -0.29, -37.69 1.12, -50.08 0.33" stroke="#2f9e44" stroke-width="1" fill="none"></path></g></g><mask></mask><g stroke-linecap="round"><g transform="translate(831 268.90245305746794) rotate(0 -22.91098141297698 -0.43118882323727803)"><path d="M-1.45 -1.81 C-17.04 -0.98, -33.65 1.85, -43.17 0.66 M-0.44 -0.06 C-9.5 0.38, -20.03 -0.22, -45.38 -0.91" stroke="#2f9e44" stroke-width="1" fill="none"></path></g></g><mask></mask><g stroke-linecap="round"><g transform="translate(370 56.90245305746791) rotate(0 0.11457348056137562 -20.37696659192443)"><path d="M1.07 0.49 C0.24 -14.22, -0.58 -28.84, -0.37 -40.72 M-0.84 0.67 C0.85 -11.21, 0.75 -24.16, -0.62 -41.42" stroke="#2f9e44" stroke-width="1" fill="none"></path></g></g><mask></mask><g mask="url(#mask--tQ8_muPpLm3TdTuGX8HE)" stroke-linecap="round"><g transform="translate(1081.6797834686654 11.902453057467937) rotate(0 0.0013735903290807983 60.626799590885625)"><path d="M-1.4 -1.9 C-2.07 46.63, -1.05 95.87, 1.6 123.16 M0.89 0.89 C-0.53 35.43, -0.76 70.94, 0.84 121.65" stroke="#2f9e44" stroke-width="1" fill="none"></path></g><g transform="translate(1081.6797834686654 11.902453057467937) rotate(0 0.0013735903290807983 60.626799590885625)"><path d="M-11.46 91.8 C-7.27 103.52, -1.97 115.88, 2.45 122.81 M-9.17 94.59 C-7.39 101.79, -4.45 110.04, 1.69 121.3" stroke="#2f9e44" stroke-width="1" fill="none"></path></g><g transform="translate(1081.6797834686654 11.902453057467937) rotate(0 0.0013735903290807983 60.626799590885625)"><path d="M9.05 91.33 C5.2 103.12, 2.45 115.66, 2.45 122.81 M11.34 94.12 C7.18 101.6, 4.17 109.99, 1.69 121.3" stroke="#2f9e44" stroke-width="1" fill="none"></path></g></g><mask id="mask--tQ8_muPpLm3TdTuGX8HE"><rect x="0" y="0" fill="#fff" width="1181.6797834686654" height="233.9024530574679"></rect><rect x="1046.7131162933724" y="60.40245305746791" fill="#000" width="69.93333435058594" height="25" opacity="1"></rect></mask><g transform="translate(1046.7131162933724 60.40245305746794) rotate(0 34.96804076562205 12.126799590885653)"><text x="34.96666717529297" y="0" font-family="Virgil, Segoe UI Emoji" font-size="20px" fill="#2f9e44" text-anchor="middle" style="white-space: pre;" direction="ltr" dominant-baseline="text-before-edge">discard</text></g><g stroke-linecap="round"><g transform="translate(371.1428571428579 14.04531020032502) rotate(0 354.27572152710377 -1.0572259889053157)"><path d="M0.6 -0.28 C241.31 -2.4, 482.6 -3.02, 708.16 -0.62 M0.4 -0.01 C214.8 -0.39, 430.65 -0.88, 707.56 0.05" stroke="#2f9e44" stroke-width="1" fill="none"></path></g></g><mask></mask></svg>