<svg version="1.1" xmlns="http://www.w3.org/2000/svg" viewBox="0 0 1157.6250000000002 1170.1875000000005" width="3472.875000000001" height="3510.5625000000014" filter="invert(93%) hue-rotate(180deg)">
  <!-- svg-source:excalidraw -->
  
  <defs>
    <style class="style-fonts">
      @font-face {
        font-family: "Virgil";
        src: url("https://excalidraw.com/Virgil.woff2");
      }
      @font-face {
        font-family: "Cascadia";
        src: url("https://excalidraw.com/Cascadia.woff2");
      }
      @font-face {
        font-family: "Assistant";
        src: url("https://excalidraw.com/Assistant-Regular.woff2");
      }
    </style>
    
  </defs>
  <g stroke-linecap="round" transform="translate(15.875000000000227 619.3125000000005) rotate(0 100.5 128.5)"><path d="M0 0 C63.34 -0.37, 130.18 1.17, 201 0 M0 0 C57.05 -1.06, 114.66 -0.68, 201 0 M201 0 C200.07 78.8, 197.9 156.35, 201 257 M201 0 C202.39 62.86, 200.88 124.48, 201 257 M201 257 C147.97 256.36, 94.73 257.46, 0 257 M201 257 C133.77 257.32, 65.95 257.53, 0 257 M0 257 C0.22 195.68, -0.21 135.19, 0 0 M0 257 C-1.53 187.82, -2.44 117.32, 0 0" stroke="#1e1e1e" stroke-width="1" fill="none"></path></g><g transform="translate(56.799999237060774 712.8125000000005) rotate(0 59.57500076293945 35)"><text x="59.57500076293945" y="24.528" font-family="Virgil, Segoe UI Emoji" font-size="28px" fill="#1e1e1e" text-anchor="middle" style="white-space: pre;" direction="ltr" dominant-baseline="alphabetic">creature</text><text x="59.57500076293945" y="59.528" font-family="Virgil, Segoe UI Emoji" font-size="28px" fill="#1e1e1e" text-anchor="middle" style="white-space: pre;" direction="ltr" dominant-baseline="alphabetic">zone</text></g><g stroke-linecap="round" transform="translate(250.37500000000023 618.8125000000005) rotate(0 100.5 128.5)"><path d="M0 0 C53.26 0.25, 107.23 0.53, 201 0 M0 0 C53.08 1.05, 105.91 0.51, 201 0 M201 0 C199.29 95.18, 200.12 188.03, 201 257 M201 0 C200.24 96.7, 199.22 193.46, 201 257 M201 257 C142.67 257.46, 83.03 258.5, 0 257 M201 257 C157.46 255.74, 115.12 255.64, 0 257 M0 257 C-1.28 175.26, -1.29 93.54, 0 0 M0 257 C1.46 159.66, 1.76 63.59, 0 0" stroke="#2f9e44" stroke-width="1" fill="none"></path></g><g transform="translate(291.2999992370608 712.3125000000005) rotate(0 59.57500076293945 35)"><text x="59.57500076293945" y="24.528" font-family="Virgil, Segoe UI Emoji" font-size="28px" fill="#2f9e44" text-anchor="middle" style="white-space: pre;" direction="ltr" dominant-baseline="alphabetic">creature</text><text x="59.57500076293945" y="59.528" font-family="Virgil, Segoe UI Emoji" font-size="28px" fill="#2f9e44" text-anchor="middle" style="white-space: pre;" direction="ltr" dominant-baseline="alphabetic">zone</text></g><g stroke-linecap="round" transform="translate(481.1250000000002 613.0625000000005) rotate(0 100.5 128.5)"><path d="M0 0 C0 0, 0 0, 0 0 M0 0 C0 0, 0 0, 0 0 M-0.26 6.4 C1.66 4.45, 2.86 3.85, 4.99 0.36 M-0.26 6.4 C1.49 4.03, 3.58 1.94, 4.99 0.36 M0.13 12.04 C5.16 7.46, 8.58 3.38, 10.63 -0.03 M0.13 12.04 C3.44 7.75, 5.82 5.7, 10.63 -0.03 M-0.13 18.44 C3.47 12.07, 9.26 9.68, 15.62 0.33 M-0.13 18.44 C6.35 12.34, 12.89 4.94, 15.62 0.33 M0.27 24.08 C9.26 16.01, 12.89 8.41, 21.26 -0.07 M0.27 24.08 C8.3 14.86, 16.43 5.46, 21.26 -0.07 M0 30.48 C9.06 19.82, 18.08 10.1, 26.25 0.29 M0 30.48 C7.21 21.71, 16.05 12.96, 26.25 0.29 M-0.26 36.88 C8.03 29.88, 12.75 23.34, 31.89 -0.1 M-0.26 36.88 C6.45 28.72, 14 20.83, 31.89 -0.1 M0.14 42.52 C6.38 34.22, 18.33 25.4, 36.88 0.26 M0.14 42.52 C7.92 33.44, 17.45 22.63, 36.88 0.26 M-0.12 48.92 C13.29 36.19, 21.77 24.79, 42.52 -0.14 M-0.12 48.92 C15.15 31.67, 29.74 13.63, 42.52 -0.14 M0.27 54.56 C8.51 43.35, 20.79 33.59, 47.51 0.22 M0.27 54.56 C19.21 32.51, 37.76 11.06, 47.51 0.22 M0.01 60.96 C9.77 49.16, 22.72 35.17, 53.15 -0.17 M0.01 60.96 C18.19 39.44, 37.59 17.25, 53.15 -0.17 M-0.25 67.36 C17.41 46.97, 36.07 30.01, 58.14 0.19 M-0.25 67.36 C22.66 42.03, 46.73 15.21, 58.14 0.19 M0.14 73 C15.46 56.12, 28.22 38.71, 63.78 -0.21 M0.14 73 C24.12 44.99, 48.06 19.36, 63.78 -0.21 M-0.12 79.4 C22.73 55.3, 41.29 31.47, 68.77 0.15 M-0.12 79.4 C22.31 55.55, 43.02 31.63, 68.77 0.15 M0.28 85.04 C20.5 60.66, 41.2 39.12, 74.41 -0.24 M0.28 85.04 C24.01 55.71, 49.32 28.53, 74.41 -0.24 M0.01 91.44 C20.12 68.32, 38.17 49.38, 79.4 0.12 M0.01 91.44 C16.07 73.15, 31.98 53.91, 79.4 0.12 M-0.25 97.84 C33.12 60.83, 66.88 21.55, 85.04 -0.28 M-0.25 97.84 C18.45 75.12, 38.46 54.01, 85.04 -0.28 M0.15 103.48 C22.63 78.86, 39.63 55.41, 90.03 0.08 M0.15 103.48 C26.47 71.88, 53.97 40.43, 90.03 0.08 M-0.11 109.88 C37.63 68.37, 73.43 25, 95.67 -0.31 M-0.11 109.88 C34.28 69.84, 68.54 29.67, 95.67 -0.31 M0.28 115.52 C23.05 86.75, 46.18 59.2, 100.66 0.05 M0.28 115.52 C36.52 74.87, 71.35 33.16, 100.66 0.05 M0.02 121.92 C38.06 79.66, 78.34 32.11, 106.3 -0.34 M0.02 121.92 C30.95 86.13, 63.47 50.81, 106.3 -0.34 M-0.24 128.32 C43.99 76.77, 89.51 26.73, 111.29 0.02 M-0.24 128.32 C26.1 98.63, 53.12 67.36, 111.29 0.02 M0.15 133.96 C23.21 106.11, 48.9 78.87, 116.27 0.38 M0.15 133.96 C38.13 89.15, 78.05 46.63, 116.27 0.38 M-0.11 140.36 C46.11 87.58, 90.73 34.12, 121.92 -0.02 M-0.11 140.36 C24.7 110, 52.55 79.75, 121.92 -0.02 M0.29 146 C29.9 111.73, 63.64 74.12, 126.91 0.34 M0.29 146 C27.77 112.41, 56.86 77.83, 126.91 0.34 M0.02 152.4 C40.39 103.31, 80.24 57.46, 132.55 -0.05 M0.02 152.4 C31.95 112.81, 66.95 74.17, 132.55 -0.05 M-0.24 158.8 C31.61 118.46, 66.1 78.94, 137.54 0.31 M-0.24 158.8 C38.72 112.97, 79.73 68.32, 137.54 0.31 M0.16 164.44 C29.23 128.34, 60.74 96.44, 143.18 -0.09 M0.16 164.44 C44.71 112.06, 89.36 62.02, 143.18 -0.09 M-0.1 170.84 C32.97 133.9, 63.97 98.56, 148.17 0.27 M-0.1 170.84 C35.82 130.33, 71.92 88.76, 148.17 0.27 M0.29 176.48 C54.72 114.96, 111.52 50.54, 153.81 -0.12 M0.29 176.48 C37.83 135.03, 73 93.4, 153.81 -0.12 M0.03 182.88 C53.16 123.04, 104.3 62.74, 158.8 0.24 M0.03 182.88 C61.13 110.34, 123.34 39.33, 158.8 0.24 M-0.23 189.27 C55.59 121.96, 112.76 56.93, 164.44 -0.16 M-0.23 189.27 C46.04 137.68, 90.27 85.9, 164.44 -0.16 M0.16 194.92 C47.35 139.22, 96.04 85.74, 169.43 0.2 M0.16 194.92 C43.43 144.96, 86.48 95.47, 169.43 0.2 M-0.1 201.32 C38.24 158.26, 75.22 114.2, 175.07 -0.19 M-0.1 201.32 C64.9 124.48, 131.42 48.11, 175.07 -0.19 M0.3 206.96 C56.77 138.46, 117.34 71.33, 180.06 0.17 M0.3 206.96 C57.56 140.76, 115.78 73.91, 180.06 0.17 M0.03 213.36 C57.17 148.6, 113.44 84.61, 185.7 -0.23 M0.03 213.36 C52.21 153.85, 104.65 93.19, 185.7 -0.23 M-0.23 219.75 C74.61 135.41, 147.98 46.91, 190.69 0.13 M-0.23 219.75 C58.8 151.04, 119.81 81.23, 190.69 0.13 M0.17 225.4 C39.62 180.39, 80.81 131.78, 196.33 -0.26 M0.17 225.4 C42.96 176.4, 86.59 126.95, 196.33 -0.26 M-0.09 231.8 C81.69 137.91, 162.07 48.11, 201.32 0.1 M-0.09 231.8 C62.21 163.36, 121.65 95.05, 201.32 0.1 M0.3 237.44 C47.5 180.82, 96.71 126.23, 201.05 6.5 M0.3 237.44 C42.7 186.16, 87.9 134.15, 201.05 6.5 M0.04 243.84 C65.84 167.76, 132.39 92.55, 201.45 12.14 M0.04 243.84 C78.34 153.95, 156.65 63.49, 201.45 12.14 M-0.22 250.23 C71.08 167.56, 141.24 88.9, 201.19 18.54 M-0.22 250.23 C41.38 201.13, 83.03 151.6, 201.19 18.54 M0.17 255.88 C75.95 171.3, 149.33 85.68, 200.93 24.94 M0.17 255.88 C49.61 197, 99.52 139.45, 200.93 24.94 M4.5 256.99 C46.36 210.87, 88.45 162.46, 201.32 30.58 M4.5 256.99 C64.57 186.09, 125.4 116.75, 201.32 30.58 M9.49 257.35 C80 175.75, 147.39 96.45, 201.06 36.98 M9.49 257.35 C83.38 174.62, 157.05 90.54, 201.06 36.98 M15.13 256.96 C74.73 185.71, 136.83 116.11, 201.45 42.62 M15.13 256.96 C75.78 186.06, 138.28 114.48, 201.45 42.62 M20.12 257.32 C81.87 186.24, 144.25 112.44, 201.19 49.02 M20.12 257.32 C63.55 208.15, 106.8 158.43, 201.19 49.02 M25.76 256.92 C87.23 188.65, 146.32 119.72, 200.93 55.42 M25.76 256.92 C74.73 199.38, 124.4 141.91, 200.93 55.42 M30.75 257.28 C70.97 213.54, 109.65 166.79, 201.33 61.06 M30.75 257.28 C82.42 196.12, 136.4 133.4, 201.33 61.06 M36.39 256.89 C85.35 198.09, 137.83 139.93, 201.06 67.46 M36.39 256.89 C83.38 203.61, 129.98 149.04, 201.06 67.46 M41.38 257.25 C91.77 199.77, 140.71 142.16, 201.46 73.1 M41.38 257.25 C80.84 211.33, 119.78 166.16, 201.46 73.1 M46.37 257.61 C83.72 215.55, 117.69 177.61, 201.2 79.5 M46.37 257.61 C81.01 218.35, 114.59 179.02, 201.2 79.5 M52.01 257.21 C107.27 195.73, 158.85 134.32, 200.94 85.89 M52.01 257.21 C100.88 201.67, 150.38 144.31, 200.94 85.89 M57 257.57 C102.66 203.05, 149.77 149.97, 201.33 91.54 M57 257.57 C100.32 208.96, 142.87 158.83, 201.33 91.54 M62.64 257.18 C108.17 204.48, 151.01 154.9, 201.07 97.94 M62.64 257.18 C116.01 195.43, 170.55 132.71, 201.07 97.94 M67.63 257.54 C112.68 203.32, 158.87 151.9, 201.46 103.58 M67.63 257.54 C106.61 210.74, 147.34 164.51, 201.46 103.58 M73.27 257.14 C102.42 220.95, 132.23 188.21, 201.2 109.98 M73.27 257.14 C111.29 210.34, 152.29 166.26, 201.2 109.98 M78.26 257.5 C115.04 215.87, 147.91 178.39, 200.94 116.37 M78.26 257.5 C118.29 211.41, 156.74 165.78, 200.94 116.37 M83.9 257.11 C117.78 215.87, 156.66 175.09, 201.33 122.02 M83.9 257.11 C120.2 217.54, 154.41 175.72, 201.33 122.02 M88.89 257.47 C116.28 225.73, 144.58 195.25, 201.07 128.42 M88.89 257.47 C115.34 224.94, 143.7 191.2, 201.07 128.42 M94.53 257.08 C119.59 228.29, 142.01 200.68, 201.47 134.06 M94.53 257.08 C119.82 226.18, 146.74 197.61, 201.47 134.06 M99.52 257.44 C139.14 214.71, 173.3 169.52, 201.21 140.46 M99.52 257.44 C126.45 227.09, 152.48 197.5, 201.21 140.46 M105.16 257.04 C130.76 229.12, 155.44 199.78, 200.95 146.85 M105.16 257.04 C137.48 218.01, 170.43 182.19, 200.95 146.85 M110.15 257.4 C141.94 221.15, 172.38 185.58, 201.34 152.5 M110.15 257.4 C138.46 224.59, 166.08 193.62, 201.34 152.5 M115.79 257.01 C149.46 219.7, 180.03 186.76, 201.08 158.89 M115.79 257.01 C138.84 231.81, 159.54 206.52, 201.08 158.89 M120.78 257.37 C141.22 233.7, 161.81 211.4, 201.47 164.54 M120.78 257.37 C142.41 232.19, 164.85 206.45, 201.47 164.54 M126.42 256.97 C146.99 234.43, 168.17 207.07, 201.21 170.94 M126.42 256.97 C155.72 224.2, 186.49 188.9, 201.21 170.94 M131.41 257.33 C156.2 229.19, 179.8 202.86, 200.95 177.33 M131.41 257.33 C146.37 239.08, 163.76 218.86, 200.95 177.33 M137.05 256.94 C164.02 225.89, 187.82 197.84, 201.34 182.98 M137.05 256.94 C163.34 228.03, 188.27 198.44, 201.34 182.98 M142.04 257.3 C156.7 237.92, 175.14 219.88, 201.08 189.37 M142.04 257.3 C162.3 234.52, 181.58 211.4, 201.08 189.37 M147.68 256.9 C165.55 237.68, 180.98 218.73, 201.48 195.02 M147.68 256.9 C162.26 239.94, 177.01 223.29, 201.48 195.02 M152.67 257.26 C164.02 243.67, 174.55 231.39, 201.22 201.41 M152.67 257.26 C167.76 238.35, 184.32 221.58, 201.22 201.41 M157.65 257.62 C169.17 244.84, 183.91 228.14, 200.95 207.81 M157.65 257.62 C168.43 245.74, 177.62 233.7, 200.95 207.81 M163.3 257.23 C170.48 248.62, 180.44 238.25, 201.35 213.46 M163.3 257.23 C173.62 245.5, 183.53 234.49, 201.35 213.46 M168.29 257.59 C179.95 241.61, 192.89 229.96, 201.09 219.85 M168.29 257.59 C177.15 246.6, 188.43 234.01, 201.09 219.85 M173.93 257.19 C179.13 248.36, 186.11 242.98, 201.48 225.5 M173.93 257.19 C184.23 244.13, 196.03 232.18, 201.48 225.5 M178.92 257.55 C184.43 250.6, 195.42 240.01, 201.22 231.89 M178.92 257.55 C185.59 250.59, 191.33 242.19, 201.22 231.89 M184.56 257.16 C189.27 253.42, 190.59 249.22, 200.96 238.29 M184.56 257.16 C188.02 252.92, 192.75 246.57, 200.96 238.29 M189.55 257.52 C190.99 256.23, 195.58 250.89, 201.35 243.94 M189.55 257.52 C193.16 253.07, 198.09 248.1, 201.35 243.94 M195.19 257.13 C196.16 254.53, 197.86 253.89, 201.09 250.33 M195.19 257.13 C197.84 254.84, 200.01 251.71, 201.09 250.33 M200.18 257.49 C200.62 257, 200.99 256.8, 201.49 255.98 M200.18 257.49 C200.61 256.95, 201.03 256.34, 201.49 255.98" stroke="#ffec99" stroke-width="0.5" fill="none"></path><path d="M0 0 C76.87 -3.1, 153.9 -2.7, 201 0 M0 0 C45.86 0.29, 92.05 -0.52, 201 0 M201 0 C199.1 55.31, 198.96 106.83, 201 257 M201 0 C201.16 71.3, 199.74 141.86, 201 257 M201 257 C158.49 255.96, 115 256.61, 0 257 M201 257 C146.55 257.42, 90.26 258.2, 0 257 M0 257 C-0.39 180.63, 0.94 103.59, 0 0 M0 257 C0.74 166.16, 2.04 76.97, 0 0" stroke="#f08c00" stroke-width="1" fill="none"></path></g><g stroke-linecap="round" transform="translate(715.6250000000002 612.5625000000005) rotate(0 100.5 128.5)"><path d="M0 0 C78.97 0.41, 153.77 1.35, 201 0 M0 0 C58.55 -0.95, 116.43 -0.61, 201 0 M201 0 C198.24 52.63, 199.13 107.35, 201 257 M201 0 C202.38 80.67, 202.32 160.15, 201 257 M201 257 C137.89 255.15, 75.34 254.15, 0 257 M201 257 C132.85 257.13, 66.28 256.09, 0 257 M0 257 C1.77 185.48, 2.74 110.59, 0 0 M0 257 C2.35 156.49, 1.39 55.05, 0 0" stroke="#1971c2" stroke-width="1" fill="none"></path></g><g transform="translate(756.5499992370608 706.0625000000005) rotate(0 59.57500076293945 35)"><text x="59.57500076293945" y="24.528" font-family="Virgil, Segoe UI Emoji" font-size="28px" fill="#1971c2" text-anchor="middle" style="white-space: pre;" direction="ltr" dominant-baseline="alphabetic">creature</text><text x="59.57500076293945" y="59.528" font-family="Virgil, Segoe UI Emoji" font-size="28px" fill="#1971c2" text-anchor="middle" style="white-space: pre;" direction="ltr" dominant-baseline="alphabetic">zone</text></g><g stroke-linecap="round" transform="translate(942.3750000000002 614.8125000000005) rotate(0 100.5 128.5)"><path d="M0 0 C80.14 1.99, 156.71 0.17, 201 0 M0 0 C60.13 -1.25, 120.17 -0.04, 201 0 M201 0 C199.54 55.08, 198.7 107.92, 201 257 M201 0 C199.84 71.06, 200.61 141.45, 201 257 M201 257 C158.85 253.48, 117.93 256.32, 0 257 M201 257 C131.48 258.97, 62.3 258.35, 0 257 M0 257 C-2.62 161.79, 0.26 67.52, 0 0 M0 257 C-1.21 200.4, -0.08 144.26, 0 0" stroke="#1971c2" stroke-width="1" fill="none"></path></g><g transform="translate(983.2999992370608 708.3125000000005) rotate(0 59.57500076293945 35)"><text x="59.57500076293945" y="24.528" font-family="Virgil, Segoe UI Emoji" font-size="28px" fill="#1971c2" text-anchor="middle" style="white-space: pre;" direction="ltr" dominant-baseline="alphabetic">creature</text><text x="59.57500076293945" y="59.528" font-family="Virgil, Segoe UI Emoji" font-size="28px" fill="#1971c2" text-anchor="middle" style="white-space: pre;" direction="ltr" dominant-baseline="alphabetic">zone</text></g><g stroke-linecap="round" transform="translate(20.125000000000227 902.6875000000005) rotate(0 100.5 128.5)"><path d="M0 0 C70.83 0.4, 137.16 1.3, 201 0 M0 0 C50.43 0.52, 98.61 -0.61, 201 0 M201 0 C202.86 86.51, 201.75 170.22, 201 257 M201 0 C201.4 98.97, 201.3 195.92, 201 257 M201 257 C145.19 257.01, 86.5 257.95, 0 257 M201 257 C141.3 257.02, 81.35 257.68, 0 257 M0 257 C-0.08 189.05, 0.01 125.54, 0 0 M0 257 C-0.12 156.45, -0.1 57.83, 0 0" stroke="#1e1e1e" stroke-width="1" fill="none"></path></g><g transform="translate(63.216667175293196 996.1875000000005) rotate(0 57.40833282470703 35)"><text x="57.40833282470703" y="24.528" font-family="Virgil, Segoe UI Emoji" font-size="28px" fill="#1e1e1e" text-anchor="middle" style="white-space: pre;" direction="ltr" dominant-baseline="alphabetic">artifact</text><text x="57.40833282470703" y="59.528" font-family="Virgil, Segoe UI Emoji" font-size="28px" fill="#1e1e1e" text-anchor="middle" style="white-space: pre;" direction="ltr" dominant-baseline="alphabetic">zone</text></g><g stroke-linecap="round" transform="translate(254.62500000000023 903.1875000000005) rotate(0 100.5 128.5)"><path d="M0 0 C51.64 0.9, 105.19 -0.76, 201 0 M0 0 C61.81 -1.86, 125.4 -0.81, 201 0 M201 0 C200.73 98.42, 202.79 199.6, 201 257 M201 0 C202.06 51.43, 201.68 103.99, 201 257 M201 257 C146.23 259.26, 94.77 257.42, 0 257 M201 257 C139.26 257.36, 77.33 256.92, 0 257 M0 257 C0.04 160.04, 1.2 61.03, 0 0 M0 257 C-1.16 181.73, -2.05 105.37, 0 0" stroke="#1e1e1e" stroke-width="1" fill="none"></path></g><g transform="translate(297.7166671752932 996.6875000000005) rotate(0 57.40833282470703 35)"><text x="57.40833282470703" y="24.528" font-family="Virgil, Segoe UI Emoji" font-size="28px" fill="#1e1e1e" text-anchor="middle" style="white-space: pre;" direction="ltr" dominant-baseline="alphabetic">artifact</text><text x="57.40833282470703" y="59.528" font-family="Virgil, Segoe UI Emoji" font-size="28px" fill="#1e1e1e" text-anchor="middle" style="white-space: pre;" direction="ltr" dominant-baseline="alphabetic">zone</text></g><g stroke-linecap="round" transform="translate(485.3750000000002 898.4375000000005) rotate(0 100.5 128.5)"><path d="M0 0 C56.61 -1.67, 115.32 0.85, 201 0 M0 0 C76.83 1.47, 153.85 1.02, 201 0 M201 0 C201.37 88.64, 198.47 177.81, 201 257 M201 0 C201.42 101.68, 201.29 203.33, 201 257 M201 257 C133.32 258.36, 65.85 258.76, 0 257 M201 257 C142.48 258.23, 85.44 258.22, 0 257 M0 257 C1.08 205.1, -0.42 153.36, 0 0 M0 257 C-2.1 199.76, -1.82 142.5, 0 0" stroke="#1e1e1e" stroke-width="1" fill="none"></path></g><g transform="translate(528.4666671752932 991.9375000000005) rotate(0 57.40833282470703 35)"><text x="57.40833282470703" y="24.528" font-family="Virgil, Segoe UI Emoji" font-size="28px" fill="#1e1e1e" text-anchor="middle" style="white-space: pre;" direction="ltr" dominant-baseline="alphabetic">artifact</text><text x="57.40833282470703" y="59.528" font-family="Virgil, Segoe UI Emoji" font-size="28px" fill="#1e1e1e" text-anchor="middle" style="white-space: pre;" direction="ltr" dominant-baseline="alphabetic">zone</text></g><g stroke-linecap="round" transform="translate(719.8750000000002 897.9375000000005) rotate(0 100.5 128.5)"><path d="M0 0 C67.81 2.52, 136.67 -0.47, 201 0 M0 0 C51.99 -1.1, 102.79 -1.72, 201 0 M201 0 C201.12 56.12, 204.23 111.39, 201 257 M201 0 C200.31 61.79, 200.89 122.29, 201 257 M201 257 C122.95 256.91, 44.46 256.56, 0 257 M201 257 C129 257.33, 54.65 257.38, 0 257 M0 257 C-1.91 159.59, -3.06 60.72, 0 0 M0 257 C0.46 157.76, -0.36 56.91, 0 0" stroke="#1e1e1e" stroke-width="1" fill="none"></path></g><g transform="translate(762.9666671752932 991.4375000000005) rotate(0 57.40833282470703 35)"><text x="57.40833282470703" y="24.528" font-family="Virgil, Segoe UI Emoji" font-size="28px" fill="#1e1e1e" text-anchor="middle" style="white-space: pre;" direction="ltr" dominant-baseline="alphabetic">artifact</text><text x="57.40833282470703" y="59.528" font-family="Virgil, Segoe UI Emoji" font-size="28px" fill="#1e1e1e" text-anchor="middle" style="white-space: pre;" direction="ltr" dominant-baseline="alphabetic">zone</text></g><g stroke-linecap="round" transform="translate(946.6250000000002 899.1875000000005) rotate(0 100.5 128.5)"><path d="M0 0 C50.44 -2.99, 97.16 -0.9, 201 0 M0 0 C75.25 -0.83, 148.94 0.33, 201 0 M201 0 C200.5 78.49, 198 155.78, 201 257 M201 0 C200.55 81.24, 200.97 163.97, 201 257 M201 257 C143.23 256.96, 86.96 256.4, 0 257 M201 257 C137.26 257.36, 76.01 258, 0 257 M0 257 C-1.13 170.63, 1.52 80.95, 0 0 M0 257 C-1.08 168.93, -1.23 80.71, 0 0" stroke="#1e1e1e" stroke-width="1" fill="none"></path></g><g transform="translate(989.7166671752932 992.6875000000005) rotate(0 57.40833282470703 35)"><text x="57.40833282470703" y="24.528" font-family="Virgil, Segoe UI Emoji" font-size="28px" fill="#1e1e1e" text-anchor="middle" style="white-space: pre;" direction="ltr" dominant-baseline="alphabetic">artifact</text><text x="57.40833282470703" y="59.528" font-family="Virgil, Segoe UI Emoji" font-size="28px" fill="#1e1e1e" text-anchor="middle" style="white-space: pre;" direction="ltr" dominant-baseline="alphabetic">zone</text></g><g stroke-linecap="round"><g transform="translate(31.875000000000227 592.3125000000005) rotate(0 538.5 0)"><path d="M0 0 C242.9 1.23, 487.91 2.3, 1077 0 M0 0 C425.86 -0.45, 851.42 -0.36, 1077 0" stroke="#1e1e1e" stroke-width="1" fill="none"></path></g></g><mask></mask><g stroke-linecap="round" transform="translate(940.7500000000002 293.87499999999943) rotate(180 100.5 128.5)"><path d="M0 0 C49.15 2.42, 98.23 -0.23, 201 0 M0 0 C58.84 -0.2, 116.49 -1.17, 201 0 M201 0 C199.07 68.49, 197.56 138.76, 201 257 M201 0 C200.57 55.93, 200.41 111.5, 201 257 M201 257 C132.42 259.01, 58.91 258.88, 0 257 M201 257 C130.24 255.91, 59 255.11, 0 257 M0 257 C-3.09 173.03, -2.96 86.95, 0 0 M0 257 C-1.3 171.95, -0.98 86.46, 0 0" stroke="#1e1e1e" stroke-width="1" fill="none"></path></g><g transform="translate(981.6749992370608 387.37499999999943) rotate(180 59.57500076293945 35)"><text x="59.57500076293945" y="24.528" font-family="Virgil, Segoe UI Emoji" font-size="28px" fill="#1e1e1e" text-anchor="middle" style="white-space: pre;" direction="ltr" dominant-baseline="alphabetic">creature</text><text x="59.57500076293945" y="59.528" font-family="Virgil, Segoe UI Emoji" font-size="28px" fill="#1e1e1e" text-anchor="middle" style="white-space: pre;" direction="ltr" dominant-baseline="alphabetic">zone</text></g><g stroke-linecap="round" transform="translate(706.2500000000005 294.3749999999999) rotate(180 100.5 128.5)"><path d="M0 0 C77.94 2.03, 156.65 1.51, 201 0 M0 0 C65.91 0.56, 132.39 1.45, 201 0 M201 0 C197.81 61.13, 198.63 122.45, 201 257 M201 0 C200.63 74.15, 200.36 150.22, 201 257 M201 257 C122.45 258.1, 40.42 258.86, 0 257 M201 257 C129.58 257.12, 57.21 255.59, 0 257 M0 257 C2.27 164.57, 0.18 69.83, 0 0 M0 257 C1.01 173.64, 1.31 90.2, 0 0" stroke="#1e1e1e" stroke-width="1" fill="none"></path></g><g transform="translate(747.174999237061 387.87499999999983) rotate(180 59.57500076293945 35)"><text x="59.57500076293945" y="24.528" font-family="Virgil, Segoe UI Emoji" font-size="28px" fill="#1e1e1e" text-anchor="middle" style="white-space: pre;" direction="ltr" dominant-baseline="alphabetic">creature</text><text x="59.57500076293945" y="59.528" font-family="Virgil, Segoe UI Emoji" font-size="28px" fill="#1e1e1e" text-anchor="middle" style="white-space: pre;" direction="ltr" dominant-baseline="alphabetic">zone</text></g><g stroke-linecap="round" transform="translate(475.50000000000045 299.12500000000045) rotate(180 100.5 128.5)"><path d="M0 0 C71.6 -1.93, 140.73 -0.98, 201 0 M0 0 C40.45 -0.87, 81.89 -0.8, 201 0 M201 0 C200.22 72.87, 199.34 147.73, 201 257 M201 0 C202.11 57.72, 202.05 117.27, 201 257 M201 257 C147.21 256.89, 90.81 257.83, 0 257 M201 257 C125.79 254.56, 49.39 255.61, 0 257 M0 257 C2.44 171.11, 2.01 86.86, 0 0 M0 257 C-1.87 166.73, -0.9 74.88, 0 0" stroke="#1e1e1e" stroke-width="1" fill="none"></path></g><g transform="translate(516.424999237061 392.62500000000045) rotate(180 59.57500076293945 35)"><text x="59.57500076293945" y="24.528" font-family="Virgil, Segoe UI Emoji" font-size="28px" fill="#1e1e1e" text-anchor="middle" style="white-space: pre;" direction="ltr" dominant-baseline="alphabetic">creature</text><text x="59.57500076293945" y="59.528" font-family="Virgil, Segoe UI Emoji" font-size="28px" fill="#1e1e1e" text-anchor="middle" style="white-space: pre;" direction="ltr" dominant-baseline="alphabetic">zone</text></g><g stroke-linecap="round" transform="translate(241.00000000000068 299.6250000000009) rotate(180 100.5 128.5)"><path d="M0 0 C41.98 0.64, 87.47 -0.56, 201 0 M0 0 C41.99 1.21, 84.08 1.4, 201 0 M201 0 C198.51 67.81, 201.19 136.64, 201 257 M201 0 C202.6 53.92, 202.94 109.73, 201 257 M201 257 C146.41 256.75, 87.39 258.66, 0 257 M201 257 C158.06 256.69, 113.84 257.81, 0 257 M0 257 C0.87 191.36, 1.57 122.5, 0 0 M0 257 C-0.15 166.09, -0.75 73.5, 0 0" stroke="#e03131" stroke-width="1" fill="none"></path></g><g transform="translate(281.92499923706123 393.1250000000009) rotate(180 59.57500076293945 35.00000000000001)"><text x="59.57500076293945" y="24.528" font-family="Virgil, Segoe UI Emoji" font-size="28px" fill="#e03131" text-anchor="middle" style="white-space: pre;" direction="ltr" dominant-baseline="alphabetic">creature</text><text x="59.57500076293945" y="59.528" font-family="Virgil, Segoe UI Emoji" font-size="28px" fill="#e03131" text-anchor="middle" style="white-space: pre;" direction="ltr" dominant-baseline="alphabetic">zone</text></g><g stroke-linecap="round" transform="translate(14.250000000000682 298.37500000000136) rotate(180 100.5 128.5)"><path d="M0 0 C59.78 0.9, 121.34 0.85, 201 0 M0 0 C53.8 -0.41, 108.71 -0.49, 201 0 M201 0 C201.52 82.7, 203.78 162.13, 201 257 M201 0 C201.14 54.07, 201.56 109.26, 201 257 M201 257 C148.12 257.96, 98.87 258.68, 0 257 M201 257 C160.01 257.46, 119.93 257.95, 0 257 M0 257 C-1.1 165.71, -3.37 74.45, 0 0 M0 257 C-0.7 165.93, -0.41 73.48, 0 0" stroke="#e03131" stroke-width="1" fill="none"></path></g><g transform="translate(55.17499923706123 391.87500000000136) rotate(180 59.57500076293945 35)"><text x="59.57500076293945" y="24.528" font-family="Virgil, Segoe UI Emoji" font-size="28px" fill="#e03131" text-anchor="middle" style="white-space: pre;" direction="ltr" dominant-baseline="alphabetic">creature</text><text x="59.57500076293945" y="59.528" font-family="Virgil, Segoe UI Emoji" font-size="28px" fill="#e03131" text-anchor="middle" style="white-space: pre;" direction="ltr" dominant-baseline="alphabetic">zone</text></g><g stroke-linecap="round" transform="translate(936.4999999999998 10.499999999999545) rotate(180 100.5 128.5)"><path d="M0 0 C57.46 -0.05, 115.86 -0.41, 201 0 M0 0 C47.65 2.15, 95.86 0.53, 201 0 M201 0 C200.66 99.97, 203 199.11, 201 257 M201 0 C201.27 68.16, 202.13 137.13, 201 257 M201 257 C140.61 256.14, 84.21 256.83, 0 257 M201 257 C141.41 258.82, 80.02 258.45, 0 257 M0 257 C2.67 170.61, 0.21 82.82, 0 0 M0 257 C1.81 164.72, 1.69 73.71, 0 0" stroke="#1e1e1e" stroke-width="1" fill="none"></path></g><g transform="translate(979.5916671752927 103.99999999999952) rotate(180 57.40833282470703 35)"><text x="57.40833282470703" y="24.528" font-family="Virgil, Segoe UI Emoji" font-size="28px" fill="#1e1e1e" text-anchor="middle" style="white-space: pre;" direction="ltr" dominant-baseline="alphabetic">artifact</text><text x="57.40833282470703" y="59.528" font-family="Virgil, Segoe UI Emoji" font-size="28px" fill="#1e1e1e" text-anchor="middle" style="white-space: pre;" direction="ltr" dominant-baseline="alphabetic">zone</text></g><g stroke-linecap="round" transform="translate(702.0000000000002 10) rotate(180 100.5 128.5)"><path d="M0 0 C55.7 1.56, 112.39 0.96, 201 0 M0 0 C79.85 2.05, 157.87 0.78, 201 0 M201 0 C201.66 81.53, 203.41 161.35, 201 257 M201 0 C202.21 53.45, 202.53 105.59, 201 257 M201 257 C156.69 256.62, 113.36 257.29, 0 257 M201 257 C121.65 257.23, 42.31 258.51, 0 257 M0 257 C2.93 179.23, 1.07 104.6, 0 0 M0 257 C-1.45 194.89, -0.96 133.59, 0 0" stroke="#1e1e1e" stroke-width="1" fill="none"></path></g><g transform="translate(745.0916671752932 103.49999999999994) rotate(180 57.40833282470703 35)"><text x="57.40833282470703" y="24.528" font-family="Virgil, Segoe UI Emoji" font-size="28px" fill="#1e1e1e" text-anchor="middle" style="white-space: pre;" direction="ltr" dominant-baseline="alphabetic">artifact</text><text x="57.40833282470703" y="59.528" font-family="Virgil, Segoe UI Emoji" font-size="28px" fill="#1e1e1e" text-anchor="middle" style="white-space: pre;" direction="ltr" dominant-baseline="alphabetic">zone</text></g><g stroke-linecap="round" transform="translate(471.2500000000002 14.750000000000398) rotate(180 100.5 128.5)"><path d="M0 0 C71.94 1.42, 138.95 1.29, 201 0 M0 0 C71.04 2.11, 141.61 1.31, 201 0 M201 0 C201.09 85.95, 201.22 169.78, 201 257 M201 0 C201.01 85.47, 201.32 170.52, 201 257 M201 257 C138.38 256.51, 73.29 258.69, 0 257 M201 257 C157.9 257.14, 114.02 258.53, 0 257 M0 257 C0.25 194.8, 1.85 130.36, 0 0 M0 257 C-2.07 188.73, -1.27 118.37, 0 0" stroke="#1e1e1e" stroke-width="1" fill="none"></path></g><g transform="translate(514.3416671752932 108.25000000000045) rotate(180 57.40833282470703 35)"><text x="57.40833282470703" y="24.528" font-family="Virgil, Segoe UI Emoji" font-size="28px" fill="#1e1e1e" text-anchor="middle" style="white-space: pre;" direction="ltr" dominant-baseline="alphabetic">artifact</text><text x="57.40833282470703" y="59.528" font-family="Virgil, Segoe UI Emoji" font-size="28px" fill="#1e1e1e" text-anchor="middle" style="white-space: pre;" direction="ltr" dominant-baseline="alphabetic">zone</text></g><g stroke-linecap="round" transform="translate(236.74999999999977 15.250000000001023) rotate(180 100.5 128.5)"><path d="M0 0 C80.44 -2.08, 157.39 -1.31, 201 0 M0 0 C71.97 1.27, 142.99 -0.26, 201 0 M201 0 C199.75 93.45, 197.67 184.6, 201 257 M201 0 C200.31 84.22, 200.61 168.36, 201 257 M201 257 C156.27 258.98, 115.62 257.64, 0 257 M201 257 C159.72 257.51, 120.19 257.5, 0 257 M0 257 C-1.34 162.2, -0.24 63.91, 0 0 M0 257 C-0.22 159.08, -1.17 61.4, 0 0" stroke="#e03131" stroke-width="1" fill="none"></path></g><g transform="translate(279.84166717529274 108.75000000000105) rotate(180 57.40833282470703 35)"><text x="57.40833282470703" y="24.528" font-family="Virgil, Segoe UI Emoji" font-size="28px" fill="#e03131" text-anchor="middle" style="white-space: pre;" direction="ltr" dominant-baseline="alphabetic">artifact</text><text x="57.40833282470703" y="59.528" font-family="Virgil, Segoe UI Emoji" font-size="28px" fill="#e03131" text-anchor="middle" style="white-space: pre;" direction="ltr" dominant-baseline="alphabetic">zone</text></g><g stroke-linecap="round" transform="translate(10 14.000000000001478) rotate(180 100.5 128.5)"><path d="M0 0 C55.83 -0.66, 109.04 0.27, 201 0 M0 0 C76.32 0.92, 151.46 1.97, 201 0 M201 0 C199.39 84.57, 198.96 170.79, 201 257 M201 0 C201.5 91.16, 202.48 180.74, 201 257 M201 257 C124.12 255.4, 51.76 256.03, 0 257 M201 257 C153.07 256.29, 103.89 255.64, 0 257 M0 257 C0.54 162.42, -2.36 67.59, 0 0 M0 257 C1.59 179.25, 1.16 102.3, 0 0" stroke="#e03131" stroke-width="1" fill="none"></path></g><g transform="translate(53.09166717529297 107.50000000000142) rotate(180 57.40833282470703 35)"><text x="57.40833282470703" y="24.528" font-family="Virgil, Segoe UI Emoji" font-size="28px" fill="#e03131" text-anchor="middle" style="white-space: pre;" direction="ltr" dominant-baseline="alphabetic">artifact</text><text x="57.40833282470703" y="59.528" font-family="Virgil, Segoe UI Emoji" font-size="28px" fill="#e03131" text-anchor="middle" style="white-space: pre;" direction="ltr" dominant-baseline="alphabetic">zone</text></g><g stroke-linecap="round"><g transform="translate(489.2602656853021 639.6770858957528) rotate(0 0 -9.240779052577437)"><path d="M0 0 C0.67 -3.47, 0.85 -8.08, 0 -18.48 M0 0 C-0.35 -5.3, -0.16 -10.54, 0 -18.48" stroke="#e03131" stroke-width="2" fill="none"></path></g></g><mask></mask><g stroke-linecap="round"><g transform="translate(489.2602656853021 620.3554569676363) rotate(0 7.980672818134963 0)"><path d="M0 0 C4.96 -0.38, 9.83 0.5, 15.96 0 M0 0 C4.75 -0.25, 9.17 -0.01, 15.96 0" stroke="#e03131" stroke-width="2" fill="none"></path></g></g><mask></mask><g stroke-linecap="round"><g transform="translate(498.5010447378795 627.4960589628099) rotate(0 0 6.090513466471492)"><path d="M0 0 C-0.44 4.85, -0.07 9.67, 0 12.18 M0 0 C-0.02 4.68, -0.29 9.65, 0 12.18" stroke="#e03131" stroke-width="2" fill="none"></path></g></g><mask></mask><g stroke-linecap="round"><g transform="translate(498.5010447378795 627.9160943742907) rotate(0 4.830407232029188 0)"><path d="M0 0 C3.58 0, 7.07 -0.28, 9.66 0 M0 0 C2.67 -0.05, 5.65 -0.1, 9.66 0" stroke="#e03131" stroke-width="2" fill="none"></path></g></g><mask></mask><g stroke-linecap="round"><g transform="translate(489.6803010967826 740.4855846511434) rotate(0 4.72539837915906 -4.725398379159003)"><path d="M0 0 C1.94 -2.17, 4.14 -4.36, 9.45 -9.45 M0 0 C2.6 -2.8, 5.31 -5.43, 9.45 -9.45" stroke="#2f9e44" stroke-width="2" fill="none"></path></g></g><mask></mask><g stroke-linecap="round"><g transform="translate(488.84023027382113 742.1657262970666) rotate(0 2.9560658988525574 5.120056327334481)"><path d="M0 0 C1.39 2.63, 3.09 5.77, 5.91 10.24 M0 0 C1.38 2.3, 2.31 4.2, 5.91 10.24" stroke="#2f9e44" stroke-width="2" fill="none"></path></g></g><mask></mask><g stroke-linecap="round"><g transform="translate(667.1168893446488 752.1399963644024) rotate(180 4.72539837915906 -4.725398379159003)"><path d="M0 0 C2.89 -2.41, 5.74 -5.36, 9.45 -9.45 M0 0 C1.94 -2.01, 3.87 -3.89, 9.45 -9.45" stroke="#1971c2" stroke-width="2" fill="none"></path></g></g><mask></mask><g stroke-linecap="round"><g transform="translate(670.5528627029105 731.5931454283334) rotate(180 2.9560658988525574 5.120056327334481)"><path d="M0 0 C2.14 3.5, 3.25 6.2, 5.91 10.24 M0 0 C1.54 3.06, 3.16 5.72, 5.91 10.24" stroke="#1971c2" stroke-width="2" fill="none"></path></g></g><mask></mask><g stroke-linecap="round"><g transform="translate(660.1546091023195 751.009791382198) rotate(180 4.72539837915906 -4.725398379159003)"><path d="M0 0 C1.98 -2, 4.95 -4.45, 9.45 -9.45 M0 0 C3.76 -3.49, 7.23 -7.23, 9.45 -9.45" stroke="#1971c2" stroke-width="2" fill="none"></path></g></g><mask></mask><g stroke-linecap="round"><g transform="translate(663.5905824605809 730.4629404461292) rotate(180 2.9560658988525574 5.120056327334481)"><path d="M0 0 C2.45 4.31, 4.92 7.3, 5.91 10.24 M0 0 C1.71 2.81, 3.56 5.61, 5.91 10.24" stroke="#1971c2" stroke-width="2" fill="none"></path></g></g><mask></mask></svg>