<svg version="1.1" xmlns="http://www.w3.org/2000/svg" viewBox="0 0 1157.6250000000002 1170.1875000000005" width="3472.875000000001" height="3510.5625000000014" filter="invert(93%) hue-rotate(180deg)">
  <!-- svg-source:excalidraw -->
  
  <defs>
    <style class="style-fonts">
      @font-face {
        font-family: "Virgil";
        src: url("https://excalidraw.com/Virgil.woff2");
      }
      @font-face {
        font-family: "Cascadia";
        src: url("https://excalidraw.com/Cascadia.woff2");
      }
      @font-face {
        font-family: "Assistant";
        src: url("https://excalidraw.com/Assistant-Regular.woff2");
      }
    </style>
    
  </defs>
  <g stroke-linecap="round" transform="translate(15.875000000000227 619.3125000000005) rotate(0 100.5 128.5)"><path d="M0 0 C63.34 -0.37, 130.18 1.17, 201 0 M0 0 C57.05 -1.06, 114.66 -0.68, 201 0 M201 0 C200.07 78.8, 197.9 156.35, 201 257 M201 0 C202.39 62.86, 200.88 124.48, 201 257 M201 257 C147.97 256.36, 94.73 257.46, 0 257 M201 257 C133.77 257.32, 65.95 257.53, 0 257 M0 257 C0.22 195.68, -0.21 135.19, 0 0 M0 257 C-1.53 187.82, -2.44 117.32, 0 0" stroke="#1e1e1e" stroke-width="1" fill="none"></path></g><g transform="translate(56.799999237060774 712.8125000000005) rotate(0 59.57500076293945 35)"><text x="59.57500076293945" y="24.528" font-family="Virgil, Segoe UI Emoji" font-size="28px" fill="#1e1e1e" text-anchor="middle" style="white-space: pre;" direction="ltr" dominant-baseline="alphabetic">creature</text><text x="59.57500076293945" y="59.528" font-family="Virgil, Segoe UI Emoji" font-size="28px" fill="#1e1e1e" text-anchor="middle" style="white-space: pre;" direction="ltr" dominant-baseline="alphabetic">zone</text></g><g stroke-linecap="round" transform="translate(250.37500000000023 618.8125000000005) rotate(0 100.5 128.5)"><path d="M0 0 C53.26 0.25, 107.23 0.53, 201 0 M0 0 C53.08 1.05, 105.91 0.51, 201 0 M201 0 C199.29 95.18, 200.12 188.03, 201 257 M201 0 C200.24 96.7, 199.22 193.46, 201 257 M201 257 C142.67 257.46, 83.03 258.5, 0 257 M201 257 C157.46 255.74, 115.12 255.64, 0 257 M0 257 C-1.28 175.26, -1.29 93.54, 0 0 M0 257 C1.46 159.66, 1.76 63.59, 0 0" stroke="#2f9e44" stroke-width="1" fill="none"></path></g><g transform="translate(291.2999992370608 712.3125000000005) rotate(0 59.57500076293945 35)"><text x="59.57500076293945" y="24.528" font-family="Virgil, Segoe UI Emoji" font-size="28px" fill="#2f9e44" text-anchor="middle" style="white-space: pre;" direction="ltr" dominant-baseline="alphabetic">creature</text><text x="59.57500076293945" y="59.528" font-family="Virgil, Segoe UI Emoji" font-size="28px" fill="#2f9e44" text-anchor="middle" style="white-space: pre;" direction="ltr" dominant-baseline="alphabetic">zone</text></g><g stroke-linecap="round" transform="translate(481.1250000000002 613.0625000000005) rotate(0 100.5 128.5)"><path d="M0 0 C76.87 -3.1, 153.9 -2.7, 201 0 M0 0 C45.86 0.29, 92.05 -0.52, 201 0 M201 0 C199.1 55.31, 198.96 106.83, 201 257 M201 0 C201.16 71.3, 199.74 141.86, 201 257 M201 257 C158.49 255.96, 115 256.61, 0 257 M201 257 C146.55 257.42, 90.26 258.2, 0 257 M0 257 C-0.39 180.63, 0.94 103.59, 0 0 M0 257 C0.74 166.16, 2.04 76.97, 0 0" stroke="#e03131" stroke-width="1" fill="none"></path></g><g transform="translate(522.0583343505862 706.5625000000005) rotate(0 59.56666564941406 35)"><text x="59.56666564941406" y="24.528" font-family="Virgil, Segoe UI Emoji" font-size="28px" fill="#e03131" text-anchor="middle" style="white-space: pre;" direction="ltr" dominant-baseline="alphabetic">creature</text><text x="59.56666564941406" y="59.528" font-family="Virgil, Segoe UI Emoji" font-size="28px" fill="#e03131" text-anchor="middle" style="white-space: pre;" direction="ltr" dominant-baseline="alphabetic">zone</text></g><g stroke-linecap="round" transform="translate(715.6250000000002 612.5625000000005) rotate(0 100.5 128.5)"><path d="M0 0 C78.97 0.41, 153.77 1.35, 201 0 M0 0 C58.55 -0.95, 116.43 -0.61, 201 0 M201 0 C198.24 52.63, 199.13 107.35, 201 257 M201 0 C202.38 80.67, 202.32 160.15, 201 257 M201 257 C137.89 255.15, 75.34 254.15, 0 257 M201 257 C132.85 257.13, 66.28 256.09, 0 257 M0 257 C1.77 185.48, 2.74 110.59, 0 0 M0 257 C2.35 156.49, 1.39 55.05, 0 0" stroke="#e03131" stroke-width="1" fill="none"></path></g><g transform="translate(756.5499992370608 706.0625000000005) rotate(0 59.57500076293945 35)"><text x="59.57500076293945" y="24.528" font-family="Virgil, Segoe UI Emoji" font-size="28px" fill="#e03131" text-anchor="middle" style="white-space: pre;" direction="ltr" dominant-baseline="alphabetic">creature</text><text x="59.57500076293945" y="59.528" font-family="Virgil, Segoe UI Emoji" font-size="28px" fill="#e03131" text-anchor="middle" style="white-space: pre;" direction="ltr" dominant-baseline="alphabetic">zone</text></g><g stroke-linecap="round" transform="translate(940.994695267709 614.8125000000005) rotate(0 100.5 128.5)"><path d="M0 0 C80.14 1.99, 156.71 0.17, 201 0 M0 0 C60.13 -1.25, 120.17 -0.04, 201 0 M201 0 C199.54 55.08, 198.7 107.92, 201 257 M201 0 C199.84 71.06, 200.61 141.45, 201 257 M201 257 C158.85 253.48, 117.93 256.32, 0 257 M201 257 C131.48 258.97, 62.3 258.35, 0 257 M0 257 C-2.62 161.79, 0.26 67.52, 0 0 M0 257 C-1.21 200.4, -0.08 144.26, 0 0" stroke="#e03131" stroke-width="1" fill="none"></path></g><g transform="translate(981.9196945047695 708.3125000000005) rotate(0 59.57500076293945 35)"><text x="59.57500076293945" y="24.528" font-family="Virgil, Segoe UI Emoji" font-size="28px" fill="#e03131" text-anchor="middle" style="white-space: pre;" direction="ltr" dominant-baseline="alphabetic">creature</text><text x="59.57500076293945" y="59.528" font-family="Virgil, Segoe UI Emoji" font-size="28px" fill="#e03131" text-anchor="middle" style="white-space: pre;" direction="ltr" dominant-baseline="alphabetic">zone</text></g><g stroke-linecap="round" transform="translate(20.125000000000227 902.6875000000005) rotate(0 100.5 128.5)"><path d="M0 0 C70.83 0.4, 137.16 1.3, 201 0 M0 0 C50.43 0.52, 98.61 -0.61, 201 0 M201 0 C202.86 86.51, 201.75 170.22, 201 257 M201 0 C201.4 98.97, 201.3 195.92, 201 257 M201 257 C145.19 257.01, 86.5 257.95, 0 257 M201 257 C141.3 257.02, 81.35 257.68, 0 257 M0 257 C-0.08 189.05, 0.01 125.54, 0 0 M0 257 C-0.12 156.45, -0.1 57.83, 0 0" stroke="#1e1e1e" stroke-width="1" fill="none"></path></g><g transform="translate(63.216667175293196 996.1875000000005) rotate(0 57.40833282470703 35)"><text x="57.40833282470703" y="24.528" font-family="Virgil, Segoe UI Emoji" font-size="28px" fill="#1e1e1e" text-anchor="middle" style="white-space: pre;" direction="ltr" dominant-baseline="alphabetic">artifact</text><text x="57.40833282470703" y="59.528" font-family="Virgil, Segoe UI Emoji" font-size="28px" fill="#1e1e1e" text-anchor="middle" style="white-space: pre;" direction="ltr" dominant-baseline="alphabetic">zone</text></g><g stroke-linecap="round" transform="translate(254.62500000000023 903.1875000000005) rotate(0 100.5 128.5)"><path d="M0 0 C0 0, 0 0, 0 0 M0 0 C0 0, 0 0, 0 0 M-0.26 6.4 C1.02 5.63, 2.5 3.01, 4.99 0.36 M-0.26 6.4 C1.51 4.17, 3.73 1.58, 4.99 0.36 M0.13 12.04 C2.57 6.66, 7.03 4.65, 10.63 -0.03 M0.13 12.04 C2.93 8.02, 6.46 3.75, 10.63 -0.03 M-0.13 18.44 C3.96 13.25, 8.25 11.01, 15.62 0.33 M-0.13 18.44 C3.92 13.03, 8.62 8.52, 15.62 0.33 M0.27 24.08 C4.68 18.74, 9.03 14.8, 21.26 -0.07 M0.27 24.08 C7.55 14.27, 17.02 6.04, 21.26 -0.07 M0 30.48 C6.47 22.09, 15.45 11.17, 26.25 0.29 M0 30.48 C5.89 24.27, 10.57 18.08, 26.25 0.29 M-0.26 36.88 C10.54 25.65, 22.76 9.68, 31.89 -0.1 M-0.26 36.88 C12.93 23.49, 25.52 8.81, 31.89 -0.1 M0.14 42.52 C13.11 28.33, 24.05 14.53, 36.88 0.26 M0.14 42.52 C13.73 25.85, 26.61 10.62, 36.88 0.26 M-0.12 48.92 C17.69 30.76, 32.32 10.93, 42.52 -0.14 M-0.12 48.92 C13.82 32.65, 28.87 15.74, 42.52 -0.14 M0.27 54.56 C19.95 32.98, 39.22 11.84, 47.51 0.22 M0.27 54.56 C17.18 35.2, 33.45 16.66, 47.51 0.22 M0.01 60.96 C21.91 39.74, 40.42 12.9, 53.15 -0.17 M0.01 60.96 C17.82 39.76, 35.4 19.53, 53.15 -0.17 M-0.25 67.36 C17.4 46.03, 38.62 22.34, 58.14 0.19 M-0.25 67.36 C19.15 46.07, 37.47 24.26, 58.14 0.19 M0.14 73 C19.68 52.08, 34.88 31.4, 63.78 -0.21 M0.14 73 C14.39 55.53, 30.62 36.51, 63.78 -0.21 M-0.12 79.4 C12.1 61.91, 30.11 46.42, 68.77 0.15 M-0.12 79.4 C19.02 57.91, 37.18 38.43, 68.77 0.15 M0.28 85.04 C29.1 52.75, 55.66 21.93, 74.41 -0.24 M0.28 85.04 C20.83 60.76, 42.34 37.4, 74.41 -0.24 M0.01 91.44 C22.4 66.96, 41.85 45.4, 79.4 0.12 M0.01 91.44 C22.81 64.04, 45.51 38.69, 79.4 0.12 M-0.25 97.84 C32.16 60.64, 64.77 21.66, 85.04 -0.28 M-0.25 97.84 C27.91 65.16, 55.39 35.05, 85.04 -0.28 M0.15 103.48 C30.77 65.89, 64.29 32.26, 90.03 0.08 M0.15 103.48 C32.58 65.98, 64.15 29.66, 90.03 0.08 M-0.11 109.88 C25.22 82.88, 45.51 54.94, 95.67 -0.31 M-0.11 109.88 C23.68 81.65, 46.09 56.37, 95.67 -0.31 M0.28 115.52 C30.65 81.04, 56.83 49.27, 100.66 0.05 M0.28 115.52 C30.8 79.37, 61.25 45.48, 100.66 0.05 M0.02 121.92 C40.49 77.68, 75.94 36.01, 106.3 -0.34 M0.02 121.92 C42.01 74.08, 82.22 26.61, 106.3 -0.34 M-0.24 128.32 C36.89 89.3, 71 48.28, 111.29 0.02 M-0.24 128.32 C29.17 94.08, 59.96 59.69, 111.29 0.02 M0.15 133.96 C42.04 83.16, 87.84 35.23, 116.27 0.38 M0.15 133.96 C36.02 95.36, 70.81 54.36, 116.27 0.38 M-0.11 140.36 C31.26 102.64, 65.27 62.93, 121.92 -0.02 M-0.11 140.36 C31.13 103.41, 61.92 67.23, 121.92 -0.02 M0.29 146 C47.18 90.7, 92.4 36.49, 126.91 0.34 M0.29 146 C47.94 91.99, 96.27 35.58, 126.91 0.34 M0.02 152.4 C50.53 92.96, 101.39 34.79, 132.55 -0.05 M0.02 152.4 C46.11 99.08, 92.11 45.3, 132.55 -0.05 M-0.24 158.8 C40.92 113.2, 81.24 66.36, 137.54 0.31 M-0.24 158.8 C27.57 124.34, 56.09 91.07, 137.54 0.31 M0.16 164.44 C36.99 120.5, 72.31 80.65, 143.18 -0.09 M0.16 164.44 C45.67 109.8, 92.71 56.06, 143.18 -0.09 M-0.1 170.84 C43.6 119.31, 89.04 67.15, 148.17 0.27 M-0.1 170.84 C39.76 124.47, 80.43 78.46, 148.17 0.27 M0.29 176.48 C45.98 120.87, 96.9 63.07, 153.81 -0.12 M0.29 176.48 C32.33 138.15, 65.22 101.74, 153.81 -0.12 M0.03 182.88 C40.59 135.27, 83.09 89.27, 158.8 0.24 M0.03 182.88 C32.99 145.61, 65.58 109.14, 158.8 0.24 M-0.23 189.27 C58.05 123.29, 114.61 56.19, 164.44 -0.16 M-0.23 189.27 C57.7 123.58, 116.63 55.18, 164.44 -0.16 M0.16 194.92 C67.34 118.57, 131.8 44.09, 169.43 0.2 M0.16 194.92 C58.55 127.45, 115.59 62.68, 169.43 0.2 M-0.1 201.32 C34.67 158.52, 71.5 116.72, 175.07 -0.19 M-0.1 201.32 C57.4 132.37, 117.1 63.31, 175.07 -0.19 M0.3 206.96 C43.19 157.52, 85.14 106.97, 180.06 0.17 M0.3 206.96 C70.42 127.51, 138.9 47.84, 180.06 0.17 M0.03 213.36 C44.09 163.36, 89.53 111.03, 185.7 -0.23 M0.03 213.36 C52.34 154.2, 102.73 95.29, 185.7 -0.23 M-0.23 219.75 C67.96 141.66, 137.66 64.05, 190.69 0.13 M-0.23 219.75 C61.21 148.41, 121.79 77.77, 190.69 0.13 M0.17 225.4 C56.12 162.47, 109.9 96.55, 196.33 -0.26 M0.17 225.4 C56.3 158.87, 115.45 92.23, 196.33 -0.26 M-0.09 231.8 C71.07 147.22, 142.61 64.98, 201.32 0.1 M-0.09 231.8 C65.62 155.25, 131.72 80.42, 201.32 0.1 M0.3 237.44 C59.38 168.26, 119.67 99.66, 201.05 6.5 M0.3 237.44 C56.9 173.37, 112.98 109.17, 201.05 6.5 M0.04 243.84 C53.69 181.77, 109.55 117.52, 201.45 12.14 M0.04 243.84 C48.85 186.58, 97.64 129.98, 201.45 12.14 M-0.22 250.23 C59.36 183.34, 119.69 115.02, 201.19 18.54 M-0.22 250.23 C63.72 175.03, 128.1 101.95, 201.19 18.54 M0.17 255.88 C46.39 201.27, 92.04 149.81, 200.93 24.94 M0.17 255.88 C59.8 188.1, 119.34 119.99, 200.93 24.94 M4.5 256.99 C48.16 206.11, 92.92 153.88, 201.32 30.58 M4.5 256.99 C53.16 201.56, 100.85 145.74, 201.32 30.58 M9.49 257.35 C76.57 184.9, 139.62 109.37, 201.06 36.98 M9.49 257.35 C85.74 171.61, 160.72 84.89, 201.06 36.98 M15.13 256.96 C71.59 193.58, 127.88 126.9, 201.45 42.62 M15.13 256.96 C72.46 189.39, 131.59 122.34, 201.45 42.62 M20.12 257.32 C58.28 212.32, 95.73 168.68, 201.19 49.02 M20.12 257.32 C59.26 212.75, 99.01 167.43, 201.19 49.02 M25.76 256.92 C73.52 203.39, 119.3 147.44, 200.93 55.42 M25.76 256.92 C79.65 192.22, 135.68 128.55, 200.93 55.42 M30.75 257.28 C75.76 205.16, 118.88 153.98, 201.33 61.06 M30.75 257.28 C87.85 189.83, 145.03 124.01, 201.33 61.06 M36.39 256.89 C90.26 195.95, 141.14 135.52, 201.06 67.46 M36.39 256.89 C81.92 204.16, 125.74 153.92, 201.06 67.46 M41.38 257.25 C104.46 188.14, 164.27 115.73, 201.46 73.1 M41.38 257.25 C88.41 202.63, 135.81 146.83, 201.46 73.1 M46.37 257.61 C107.71 187.04, 167.01 120.69, 201.2 79.5 M46.37 257.61 C96.55 200.36, 147.94 141.34, 201.2 79.5 M52.01 257.21 C97.12 208.43, 138.65 160.37, 200.94 85.89 M52.01 257.21 C101.11 200.89, 148.69 146.31, 200.94 85.89 M57 257.57 C96.99 215.5, 132.8 171.02, 201.33 91.54 M57 257.57 C94.99 214.85, 130.77 173.51, 201.33 91.54 M62.64 257.18 C110.85 202.38, 160.64 142.68, 201.07 97.94 M62.64 257.18 C93.14 224.49, 121.93 190.88, 201.07 97.94 M67.63 257.54 C105.05 217.27, 140.65 176.08, 201.46 103.58 M67.63 257.54 C116.62 200.98, 164.26 144.9, 201.46 103.58 M73.27 257.14 C121.18 201.74, 169.63 145, 201.2 109.98 M73.27 257.14 C106.88 219.57, 139.29 181.13, 201.2 109.98 M78.26 257.5 C121.36 206.54, 167.69 152.42, 200.94 116.37 M78.26 257.5 C127.14 202.78, 175.86 145.58, 200.94 116.37 M83.9 257.11 C112.34 223.31, 142.28 189.82, 201.33 122.02 M83.9 257.11 C121.58 212.37, 160.34 168.66, 201.33 122.02 M88.89 257.47 C123.49 216.69, 160.3 176.75, 201.07 128.42 M88.89 257.47 C111.33 230.01, 136.37 203.86, 201.07 128.42 M94.53 257.08 C121.21 228.89, 144.5 199.59, 201.47 134.06 M94.53 257.08 C133.47 212.76, 170.94 171, 201.47 134.06 M99.52 257.44 C123.51 231.38, 145.18 201.93, 201.21 140.46 M99.52 257.44 C129.39 221.66, 161.85 184.53, 201.21 140.46 M105.16 257.04 C136.55 220.62, 165.67 188.03, 200.95 146.85 M105.16 257.04 C130.54 229.22, 154.62 200.47, 200.95 146.85 M110.15 257.4 C132.66 230.92, 157.5 202.09, 201.34 152.5 M110.15 257.4 C139.16 224.35, 167.74 191.46, 201.34 152.5 M115.79 257.01 C139.97 231.55, 161.16 205.03, 201.08 158.89 M115.79 257.01 C136.81 231.37, 158.14 207.05, 201.08 158.89 M120.78 257.37 C147.43 224.62, 177.57 194.94, 201.47 164.54 M120.78 257.37 C144.57 231.14, 167.43 203.5, 201.47 164.54 M126.42 256.97 C151.32 225.6, 179.85 197.16, 201.21 170.94 M126.42 256.97 C151.27 229.27, 175.06 201.28, 201.21 170.94 M131.41 257.33 C157.75 226.38, 181.94 196.39, 200.95 177.33 M131.41 257.33 C158.19 224.04, 187.01 193.44, 200.95 177.33 M137.05 256.94 C152.8 239.51, 164.06 224.16, 201.34 182.98 M137.05 256.94 C156.41 232.42, 177.14 209.4, 201.34 182.98 M142.04 257.3 C162.22 234.42, 180.5 216.82, 201.08 189.37 M142.04 257.3 C158.62 238.57, 175.08 219.22, 201.08 189.37 M147.68 256.9 C159.44 243.82, 173.62 227.15, 201.48 195.02 M147.68 256.9 C164.13 237.8, 180.53 219.89, 201.48 195.02 M152.67 257.26 C165.23 242.6, 178.51 231.34, 201.22 201.41 M152.67 257.26 C165.67 241.92, 178.1 228.17, 201.22 201.41 M157.65 257.62 C171.98 238.36, 186.61 220.9, 200.95 207.81 M157.65 257.62 C173.67 239.96, 189.85 221.35, 200.95 207.81 M163.3 257.23 C176.02 245.55, 185.23 233, 201.35 213.46 M163.3 257.23 C175.18 242.78, 187.63 228.28, 201.35 213.46 M168.29 257.59 C175.96 250.78, 182.95 240.16, 201.09 219.85 M168.29 257.59 C176.51 249.24, 184.63 240.4, 201.09 219.85 M173.93 257.19 C185.31 244.29, 195.64 234.92, 201.48 225.5 M173.93 257.19 C183.75 245.39, 194.67 234.54, 201.48 225.5 M178.92 257.55 C183.03 251.73, 190.22 244.17, 201.22 231.89 M178.92 257.55 C185.54 249.32, 190.93 243.66, 201.22 231.89 M184.56 257.16 C192.34 250.05, 195.75 241.1, 200.96 238.29 M184.56 257.16 C189.22 250.33, 195.27 243.83, 200.96 238.29 M189.55 257.52 C191.32 255.05, 196.41 249.54, 201.35 243.94 M189.55 257.52 C191.98 253.53, 195.36 250.64, 201.35 243.94 M195.19 257.13 C198.36 253.57, 200.06 251.66, 201.09 250.33 M195.19 257.13 C197.07 254.71, 198.86 252.88, 201.09 250.33 M200.18 257.49 C200.71 256.97, 201.03 256.51, 201.49 255.98 M200.18 257.49 C200.45 257.17, 200.87 256.71, 201.49 255.98" stroke="#ffec99" stroke-width="0.5" fill="none"></path><path d="M0 0 C51.64 0.9, 105.19 -0.76, 201 0 M0 0 C61.81 -1.86, 125.4 -0.81, 201 0 M201 0 C200.73 98.42, 202.79 199.6, 201 257 M201 0 C202.06 51.43, 201.68 103.99, 201 257 M201 257 C146.23 259.26, 94.77 257.42, 0 257 M201 257 C139.26 257.36, 77.33 256.92, 0 257 M0 257 C0.04 160.04, 1.2 61.03, 0 0 M0 257 C-1.16 181.73, -2.05 105.37, 0 0" stroke="#f08c00" stroke-width="1" fill="none"></path></g><g stroke-linecap="round" transform="translate(485.3750000000002 898.4375000000005) rotate(0 100.5 128.5)"><path d="M0 0 C56.61 -1.67, 115.32 0.85, 201 0 M0 0 C76.83 1.47, 153.85 1.02, 201 0 M201 0 C201.37 88.64, 198.47 177.81, 201 257 M201 0 C201.42 101.68, 201.29 203.33, 201 257 M201 257 C133.32 258.36, 65.85 258.76, 0 257 M201 257 C142.48 258.23, 85.44 258.22, 0 257 M0 257 C1.08 205.1, -0.42 153.36, 0 0 M0 257 C-2.1 199.76, -1.82 142.5, 0 0" stroke="#1971c2" stroke-width="1" fill="none"></path></g><g transform="translate(528.4666671752932 991.9375000000005) rotate(0 57.40833282470703 35)"><text x="57.40833282470703" y="24.528" font-family="Virgil, Segoe UI Emoji" font-size="28px" fill="#1971c2" text-anchor="middle" style="white-space: pre;" direction="ltr" dominant-baseline="alphabetic">artifact</text><text x="57.40833282470703" y="59.528" font-family="Virgil, Segoe UI Emoji" font-size="28px" fill="#1971c2" text-anchor="middle" style="white-space: pre;" direction="ltr" dominant-baseline="alphabetic">zone</text></g><g stroke-linecap="round" transform="translate(719.8750000000002 897.9375000000005) rotate(0 100.5 128.5)"><path d="M0 0 C67.81 2.52, 136.67 -0.47, 201 0 M0 0 C51.99 -1.1, 102.79 -1.72, 201 0 M201 0 C201.12 56.12, 204.23 111.39, 201 257 M201 0 C200.31 61.79, 200.89 122.29, 201 257 M201 257 C122.95 256.91, 44.46 256.56, 0 257 M201 257 C129 257.33, 54.65 257.38, 0 257 M0 257 C-1.91 159.59, -3.06 60.72, 0 0 M0 257 C0.46 157.76, -0.36 56.91, 0 0" stroke="#1971c2" stroke-width="1" fill="none"></path></g><g transform="translate(762.9666671752932 991.4375000000005) rotate(0 57.40833282470703 35)"><text x="57.40833282470703" y="24.528" font-family="Virgil, Segoe UI Emoji" font-size="28px" fill="#1971c2" text-anchor="middle" style="white-space: pre;" direction="ltr" dominant-baseline="alphabetic">artifact</text><text x="57.40833282470703" y="59.528" font-family="Virgil, Segoe UI Emoji" font-size="28px" fill="#1971c2" text-anchor="middle" style="white-space: pre;" direction="ltr" dominant-baseline="alphabetic">zone</text></g><g stroke-linecap="round" transform="translate(946.6250000000002 899.1875000000005) rotate(0 100.5 128.5)"><path d="M0 0 C50.44 -2.99, 97.16 -0.9, 201 0 M0 0 C75.25 -0.83, 148.94 0.33, 201 0 M201 0 C200.5 78.49, 198 155.78, 201 257 M201 0 C200.55 81.24, 200.97 163.97, 201 257 M201 257 C143.23 256.96, 86.96 256.4, 0 257 M201 257 C137.26 257.36, 76.01 258, 0 257 M0 257 C-1.13 170.63, 1.52 80.95, 0 0 M0 257 C-1.08 168.93, -1.23 80.71, 0 0" stroke="#1971c2" stroke-width="1" fill="none"></path></g><g transform="translate(989.7166671752932 992.6875000000005) rotate(0 57.40833282470703 35)"><text x="57.40833282470703" y="24.528" font-family="Virgil, Segoe UI Emoji" font-size="28px" fill="#1971c2" text-anchor="middle" style="white-space: pre;" direction="ltr" dominant-baseline="alphabetic">artifact</text><text x="57.40833282470703" y="59.528" font-family="Virgil, Segoe UI Emoji" font-size="28px" fill="#1971c2" text-anchor="middle" style="white-space: pre;" direction="ltr" dominant-baseline="alphabetic">zone</text></g><g stroke-linecap="round"><g transform="translate(31.875000000000227 592.3125000000005) rotate(0 538.5 0)"><path d="M0 0 C242.9 1.23, 487.91 2.3, 1077 0 M0 0 C425.86 -0.45, 851.42 -0.36, 1077 0" stroke="#1e1e1e" stroke-width="1" fill="none"></path></g></g><mask></mask><g stroke-linecap="round" transform="translate(940.7500000000002 293.87499999999943) rotate(180 100.5 128.5)"><path d="M0 0 C49.15 2.42, 98.23 -0.23, 201 0 M0 0 C58.84 -0.2, 116.49 -1.17, 201 0 M201 0 C199.07 68.49, 197.56 138.76, 201 257 M201 0 C200.57 55.93, 200.41 111.5, 201 257 M201 257 C132.42 259.01, 58.91 258.88, 0 257 M201 257 C130.24 255.91, 59 255.11, 0 257 M0 257 C-3.09 173.03, -2.96 86.95, 0 0 M0 257 C-1.3 171.95, -0.98 86.46, 0 0" stroke="#e03131" stroke-width="1" fill="none"></path></g><g transform="translate(981.6749992370608 387.37499999999943) rotate(180 59.57500076293945 35)"><text x="59.57500076293945" y="24.528" font-family="Virgil, Segoe UI Emoji" font-size="28px" fill="#e03131" text-anchor="middle" style="white-space: pre;" direction="ltr" dominant-baseline="alphabetic">creature</text><text x="59.57500076293945" y="59.528" font-family="Virgil, Segoe UI Emoji" font-size="28px" fill="#e03131" text-anchor="middle" style="white-space: pre;" direction="ltr" dominant-baseline="alphabetic">zone</text></g><g stroke-linecap="round" transform="translate(706.2500000000005 294.3749999999999) rotate(180 100.5 128.5)"><path d="M0 0 C77.94 2.03, 156.65 1.51, 201 0 M0 0 C65.91 0.56, 132.39 1.45, 201 0 M201 0 C197.81 61.13, 198.63 122.45, 201 257 M201 0 C200.63 74.15, 200.36 150.22, 201 257 M201 257 C122.45 258.1, 40.42 258.86, 0 257 M201 257 C129.58 257.12, 57.21 255.59, 0 257 M0 257 C2.27 164.57, 0.18 69.83, 0 0 M0 257 C1.01 173.64, 1.31 90.2, 0 0" stroke="#e03131" stroke-width="1" fill="none"></path></g><g transform="translate(747.174999237061 387.87499999999983) rotate(180 59.57500076293945 35)"><text x="59.57500076293945" y="24.528" font-family="Virgil, Segoe UI Emoji" font-size="28px" fill="#e03131" text-anchor="middle" style="white-space: pre;" direction="ltr" dominant-baseline="alphabetic">creature</text><text x="59.57500076293945" y="59.528" font-family="Virgil, Segoe UI Emoji" font-size="28px" fill="#e03131" text-anchor="middle" style="white-space: pre;" direction="ltr" dominant-baseline="alphabetic">zone</text></g><g stroke-linecap="round" transform="translate(475.50000000000045 299.12500000000045) rotate(180 100.5 128.5)"><path d="M0 0 C71.6 -1.93, 140.73 -0.98, 201 0 M0 0 C40.45 -0.87, 81.89 -0.8, 201 0 M201 0 C200.22 72.87, 199.34 147.73, 201 257 M201 0 C202.11 57.72, 202.05 117.27, 201 257 M201 257 C147.21 256.89, 90.81 257.83, 0 257 M201 257 C125.79 254.56, 49.39 255.61, 0 257 M0 257 C2.44 171.11, 2.01 86.86, 0 0 M0 257 C-1.87 166.73, -0.9 74.88, 0 0" stroke="#e03131" stroke-width="1" fill="none"></path></g><g transform="translate(516.424999237061 392.62500000000045) rotate(180 59.57500076293945 35)"><text x="59.57500076293945" y="24.528" font-family="Virgil, Segoe UI Emoji" font-size="28px" fill="#e03131" text-anchor="middle" style="white-space: pre;" direction="ltr" dominant-baseline="alphabetic">creature</text><text x="59.57500076293945" y="59.528" font-family="Virgil, Segoe UI Emoji" font-size="28px" fill="#e03131" text-anchor="middle" style="white-space: pre;" direction="ltr" dominant-baseline="alphabetic">zone</text></g><g stroke-linecap="round" transform="translate(241.00000000000068 299.6250000000009) rotate(180 100.5 128.5)"><path d="M0 0 C41.98 0.64, 87.47 -0.56, 201 0 M0 0 C41.99 1.21, 84.08 1.4, 201 0 M201 0 C198.51 67.81, 201.19 136.64, 201 257 M201 0 C202.6 53.92, 202.94 109.73, 201 257 M201 257 C146.41 256.75, 87.39 258.66, 0 257 M201 257 C158.06 256.69, 113.84 257.81, 0 257 M0 257 C0.87 191.36, 1.57 122.5, 0 0 M0 257 C-0.15 166.09, -0.75 73.5, 0 0" stroke="#2f9e44" stroke-width="1" fill="none"></path></g><g transform="translate(281.92499923706123 393.1250000000009) rotate(180 59.57500076293945 35.00000000000001)"><text x="59.57500076293945" y="24.528" font-family="Virgil, Segoe UI Emoji" font-size="28px" fill="#2f9e44" text-anchor="middle" style="white-space: pre;" direction="ltr" dominant-baseline="alphabetic">creature</text><text x="59.57500076293945" y="59.528" font-family="Virgil, Segoe UI Emoji" font-size="28px" fill="#2f9e44" text-anchor="middle" style="white-space: pre;" direction="ltr" dominant-baseline="alphabetic">zone</text></g><g stroke-linecap="round" transform="translate(14.250000000000682 298.37500000000136) rotate(180 100.5 128.5)"><path d="M0 0 C55.46 -0.54, 114.81 -1.24, 201 0 M0 0 C75.36 0.88, 151.99 0.69, 201 0 M201 0 C200.62 66.34, 200.93 135.56, 201 257 M201 0 C199.49 80.24, 200.2 160.66, 201 257 M201 257 C138.37 255.59, 76.74 255.37, 0 257 M201 257 C135.36 256.27, 69.91 256.78, 0 257 M0 257 C-0.82 175.48, 0.66 92.06, 0 0 M0 257 C1.73 161.8, 1.7 68.46, 0 0" stroke="#e03131" stroke-width="1" fill="none"></path></g><g transform="translate(55.17499923706123 391.87500000000136) rotate(180 59.57500076293945 35)"><text x="59.57500076293945" y="24.528" font-family="Virgil, Segoe UI Emoji" font-size="28px" fill="#e03131" text-anchor="middle" style="white-space: pre;" direction="ltr" dominant-baseline="alphabetic">creature</text><text x="59.57500076293945" y="59.528" font-family="Virgil, Segoe UI Emoji" font-size="28px" fill="#e03131" text-anchor="middle" style="white-space: pre;" direction="ltr" dominant-baseline="alphabetic">zone</text></g><g stroke-linecap="round" transform="translate(936.4999999999998 10.499999999999545) rotate(180 100.5 128.5)"><path d="M0 0 C57.46 -0.05, 115.86 -0.41, 201 0 M0 0 C47.65 2.15, 95.86 0.53, 201 0 M201 0 C200.66 99.97, 203 199.11, 201 257 M201 0 C201.27 68.16, 202.13 137.13, 201 257 M201 257 C140.61 256.14, 84.21 256.83, 0 257 M201 257 C141.41 258.82, 80.02 258.45, 0 257 M0 257 C2.67 170.61, 0.21 82.82, 0 0 M0 257 C1.81 164.72, 1.69 73.71, 0 0" stroke="#e03131" stroke-width="1" fill="none"></path></g><g transform="translate(979.5916671752927 103.99999999999952) rotate(180 57.40833282470703 35)"><text x="57.40833282470703" y="24.528" font-family="Virgil, Segoe UI Emoji" font-size="28px" fill="#e03131" text-anchor="middle" style="white-space: pre;" direction="ltr" dominant-baseline="alphabetic">artifact</text><text x="57.40833282470703" y="59.528" font-family="Virgil, Segoe UI Emoji" font-size="28px" fill="#e03131" text-anchor="middle" style="white-space: pre;" direction="ltr" dominant-baseline="alphabetic">zone</text></g><g stroke-linecap="round" transform="translate(702.0000000000002 10) rotate(180 100.5 128.5)"><path d="M0 0 C55.7 1.56, 112.39 0.96, 201 0 M0 0 C79.85 2.05, 157.87 0.78, 201 0 M201 0 C201.66 81.53, 203.41 161.35, 201 257 M201 0 C202.21 53.45, 202.53 105.59, 201 257 M201 257 C156.69 256.62, 113.36 257.29, 0 257 M201 257 C121.65 257.23, 42.31 258.51, 0 257 M0 257 C2.93 179.23, 1.07 104.6, 0 0 M0 257 C-1.45 194.89, -0.96 133.59, 0 0" stroke="#e03131" stroke-width="1" fill="none"></path></g><g transform="translate(745.0916671752932 103.49999999999994) rotate(180 57.40833282470703 35)"><text x="57.40833282470703" y="24.528" font-family="Virgil, Segoe UI Emoji" font-size="28px" fill="#e03131" text-anchor="middle" style="white-space: pre;" direction="ltr" dominant-baseline="alphabetic">artifact</text><text x="57.40833282470703" y="59.528" font-family="Virgil, Segoe UI Emoji" font-size="28px" fill="#e03131" text-anchor="middle" style="white-space: pre;" direction="ltr" dominant-baseline="alphabetic">zone</text></g><g stroke-linecap="round" transform="translate(471.2500000000002 14.750000000000398) rotate(180 100.5 128.5)"><path d="M0 0 C71.94 1.42, 138.95 1.29, 201 0 M0 0 C71.04 2.11, 141.61 1.31, 201 0 M201 0 C201.09 85.95, 201.22 169.78, 201 257 M201 0 C201.01 85.47, 201.32 170.52, 201 257 M201 257 C138.38 256.51, 73.29 258.69, 0 257 M201 257 C157.9 257.14, 114.02 258.53, 0 257 M0 257 C0.25 194.8, 1.85 130.36, 0 0 M0 257 C-2.07 188.73, -1.27 118.37, 0 0" stroke="#e03131" stroke-width="1" fill="none"></path></g><g transform="translate(514.3416671752932 108.25000000000045) rotate(180 57.40833282470703 35)"><text x="57.40833282470703" y="24.528" font-family="Virgil, Segoe UI Emoji" font-size="28px" fill="#e03131" text-anchor="middle" style="white-space: pre;" direction="ltr" dominant-baseline="alphabetic">artifact</text><text x="57.40833282470703" y="59.528" font-family="Virgil, Segoe UI Emoji" font-size="28px" fill="#e03131" text-anchor="middle" style="white-space: pre;" direction="ltr" dominant-baseline="alphabetic">zone</text></g><g stroke-linecap="round" transform="translate(236.74999999999977 15.250000000001023) rotate(180 100.5 128.5)"><path d="M0 0 C80.44 -2.08, 157.39 -1.31, 201 0 M0 0 C71.97 1.27, 142.99 -0.26, 201 0 M201 0 C199.75 93.45, 197.67 184.6, 201 257 M201 0 C200.31 84.22, 200.61 168.36, 201 257 M201 257 C156.27 258.98, 115.62 257.64, 0 257 M201 257 C159.72 257.51, 120.19 257.5, 0 257 M0 257 C-1.34 162.2, -0.24 63.91, 0 0 M0 257 C-0.22 159.08, -1.17 61.4, 0 0" stroke="#1e1e1e" stroke-width="1" fill="none"></path></g><g transform="translate(279.84166717529274 108.75000000000105) rotate(180 57.40833282470703 35)"><text x="57.40833282470703" y="24.528" font-family="Virgil, Segoe UI Emoji" font-size="28px" fill="#1e1e1e" text-anchor="middle" style="white-space: pre;" direction="ltr" dominant-baseline="alphabetic">artifact</text><text x="57.40833282470703" y="59.528" font-family="Virgil, Segoe UI Emoji" font-size="28px" fill="#1e1e1e" text-anchor="middle" style="white-space: pre;" direction="ltr" dominant-baseline="alphabetic">zone</text></g><g stroke-linecap="round" transform="translate(10 14.000000000001478) rotate(180 100.5 128.5)"><path d="M0 0 C55.83 -0.66, 109.04 0.27, 201 0 M0 0 C76.32 0.92, 151.46 1.97, 201 0 M201 0 C199.39 84.57, 198.96 170.79, 201 257 M201 0 C201.5 91.16, 202.48 180.74, 201 257 M201 257 C124.12 255.4, 51.76 256.03, 0 257 M201 257 C153.07 256.29, 103.89 255.64, 0 257 M0 257 C0.54 162.42, -2.36 67.59, 0 0 M0 257 C1.59 179.25, 1.16 102.3, 0 0" stroke="#1e1e1e" stroke-width="1" fill="none"></path></g><g transform="translate(53.09166717529297 107.50000000000142) rotate(180 57.40833282470703 35)"><text x="57.40833282470703" y="24.528" font-family="Virgil, Segoe UI Emoji" font-size="28px" fill="#1e1e1e" text-anchor="middle" style="white-space: pre;" direction="ltr" dominant-baseline="alphabetic">artifact</text><text x="57.40833282470703" y="59.528" font-family="Virgil, Segoe UI Emoji" font-size="28px" fill="#1e1e1e" text-anchor="middle" style="white-space: pre;" direction="ltr" dominant-baseline="alphabetic">zone</text></g><g stroke-linecap="round" transform="translate(14.250000000000682 297.0333401537247) rotate(180 100.5 128.5)"><path d="M0 0 C59.78 0.9, 121.34 0.85, 201 0 M0 0 C53.8 -0.41, 108.71 -0.49, 201 0 M201 0 C201.52 82.7, 203.78 162.13, 201 257 M201 0 C201.14 54.07, 201.56 109.26, 201 257 M201 257 C148.12 257.96, 98.87 258.68, 0 257 M201 257 C160.01 257.46, 119.93 257.95, 0 257 M0 257 C-1.1 165.71, -3.37 74.45, 0 0 M0 257 C-0.7 165.93, -0.41 73.48, 0 0" stroke="#1e1e1e" stroke-width="1" fill="none"></path></g><g transform="translate(55.17499923706123 390.5333401537247) rotate(180 59.57500076293945 35)"><text x="59.57500076293945" y="24.528" font-family="Virgil, Segoe UI Emoji" font-size="28px" fill="#1e1e1e" text-anchor="middle" style="white-space: pre;" direction="ltr" dominant-baseline="alphabetic">creature</text><text x="59.57500076293945" y="59.528" font-family="Virgil, Segoe UI Emoji" font-size="28px" fill="#1e1e1e" text-anchor="middle" style="white-space: pre;" direction="ltr" dominant-baseline="alphabetic">zone</text></g><g stroke-linecap="round"><g transform="translate(351.4211071540092 923.3155429216869) rotate(89.99999999999994 4.72539837915906 -4.725398379159003)"><path d="M0 0 C3.49 -3.79, 6.3 -7.05, 9.45 -9.45 M0 0 C2.9 -2.92, 5.51 -5.54, 9.45 -9.45" stroke="#2f9e44" stroke-width="2" fill="none"></path></g></g><mask></mask><g stroke-linecap="round"><g transform="translate(341.66484328189904 910.8606849119255) rotate(89.99999999999994 2.9560658988525574 5.12005632733451)"><path d="M0 0 C1.58 3.22, 4.2 7.38, 5.91 10.24 M0 0 C1.36 2.66, 2.76 5.15, 5.91 10.24" stroke="#2f9e44" stroke-width="2" fill="none"></path></g></g><mask></mask><g stroke-linecap="round"><g transform="translate(354.1040923620228 931.4732874561265) rotate(89.99999999999994 4.72539837915906 -4.725398379159003)"><path d="M0 0 C2.61 -1.96, 4.43 -4.59, 9.45 -9.45 M0 0 C3.21 -3.4, 6.88 -6.85, 9.45 -9.45" stroke="#2f9e44" stroke-width="2" fill="none"></path></g></g><mask></mask><g stroke-linecap="round"><g transform="translate(344.3478284899127 919.0184294463653) rotate(89.99999999999994 2.9560658988525574 5.120056327334453)"><path d="M0 0 C0.94 2.29, 2.87 4.15, 5.91 10.24 M0 0 C2.15 3.25, 3.95 6.96, 5.91 10.24" stroke="#2f9e44" stroke-width="2" fill="none"></path></g></g><mask></mask><g stroke-linecap="round"><g transform="translate(426.2820317382582 1055.955029102619) rotate(180 4.72539837915906 -4.725398379159003)"><path d="M0 0 C3.98 -3.27, 7.2 -7.43, 9.45 -9.45 M0 0 C3.72 -3.82, 7.12 -7.14, 9.45 -9.45" stroke="#1971c2" stroke-width="2" fill="none"></path></g></g><mask></mask><g stroke-linecap="round"><g transform="translate(429.7180050965196 1035.40817816655) rotate(180 2.9560658988525574 5.12005632733451)"><path d="M0 0 C1.91 3, 4.3 6.92, 5.91 10.24 M0 0 C2.11 4.03, 4.23 7.58, 5.91 10.24" stroke="#1971c2" stroke-width="2" fill="none"></path></g></g><mask></mask><g stroke-linecap="round"><g transform="translate(434.0099723837395 1055.9550291026187) rotate(180 4.72539837915906 -4.725398379159003)"><path d="M0 0 C3.12 -3.37, 6.29 -6.07, 9.45 -9.45 M0 0 C3.63 -3.65, 7.38 -7.43, 9.45 -9.45" stroke="#1971c2" stroke-width="2" fill="none"></path></g></g><mask></mask><g stroke-linecap="round"><g transform="translate(437.44594574200096 1035.40817816655) rotate(180 2.9560658988525574 5.12005632733451)"><path d="M0 0 C1.02 2.65, 3.01 4.45, 5.91 10.24 M0 0 C1.42 2.51, 2.91 4.86, 5.91 10.24" stroke="#1971c2" stroke-width="2" fill="none"></path></g></g><mask></mask><g stroke-linecap="round"><g transform="translate(441.7379130292204 1057.6723492460592) rotate(180 4.72539837915906 -4.725398379159003)"><path d="M0 0 C1.84 -1.76, 4.15 -4.56, 9.45 -9.45 M0 0 C2.02 -2.35, 4.48 -4.58, 9.45 -9.45" stroke="#1971c2" stroke-width="1" fill="none"></path></g></g><mask></mask><g stroke-linecap="round"><g transform="translate(445.17388638748184 1037.1254983099902) rotate(180 2.9560658988525574 5.12005632733451)"><path d="M0 0 C1.09 2.17, 2.44 5.07, 5.91 10.24 M0 0 C1.32 2.09, 2.42 4.82, 5.91 10.24" stroke="#1971c2" stroke-width="1" fill="none"></path></g></g><mask></mask><g transform="translate(435.11215018249686 909.0012425656284) rotate(0 7.623601747844987 8.338314411705483)" stroke="none"><path fill="#e03131" d="M -0.09,-2.20 Q -0.09,-2.20 3.06,-2.22 6.21,-2.24 9.06,-1.74 11.91,-1.23 13.29,1.78 14.66,4.81 15.13,7.08 15.60,9.36 15.91,10.41 16.22,11.45 16.77,14.19 17.31,16.92 17.30,17.26 17.28,17.59 17.15,17.91 17.03,18.22 16.81,18.48 16.59,18.74 16.30,18.91 16.02,19.08 15.69,19.16 15.36,19.23 15.02,19.19 14.69,19.16 14.38,19.02 14.07,18.88 13.83,18.64 13.58,18.41 13.43,18.11 13.27,17.82 13.21,17.48 13.16,17.15 13.21,16.82 13.27,16.48 13.42,16.19 13.58,15.89 13.83,15.66 14.07,15.42 14.38,15.28 14.68,15.14 15.02,15.10 15.35,15.07 15.68,15.14 16.01,15.21 16.30,15.38 16.59,15.56 16.81,15.81 17.03,16.07 17.15,16.38 17.28,16.70 17.30,17.03 17.32,17.37 17.23,17.70 17.14,18.02 16.95,18.30 16.76,18.58 16.49,18.78 16.22,18.99 15.90,19.10 15.58,19.21 15.24,19.21 14.91,19.21 14.59,19.10 14.27,18.99 14.00,18.79 13.73,18.58 13.54,18.30 13.35,18.03 13.26,17.70 13.17,17.38 13.17,17.38 13.17,17.38 12.94,15.31 12.71,13.24 12.62,11.64 12.53,10.04 12.05,8.04 11.57,6.04 10.73,3.52 9.88,1.00 8.13,1.34 6.38,1.69 3.24,1.94 0.09,2.20 -0.16,2.18 -0.43,2.16 -0.68,2.07 -0.93,1.99 -1.16,1.85 -1.38,1.71 -1.57,1.52 -1.75,1.32 -1.89,1.10 -2.02,0.87 -2.09,0.61 -2.17,0.36 -2.18,0.09 -2.19,-0.17 -2.14,-0.43 -2.09,-0.69 -1.97,-0.93 -1.86,-1.17 -1.69,-1.37 -1.53,-1.58 -1.31,-1.74 -1.10,-1.90 -0.86,-2.01 -0.61,-2.11 -0.35,-2.15 -0.09,-2.20 -0.09,-2.20 L -0.09,-2.20 Z"></path></g><g transform="translate(430.8238741993341 918.5307447504347) rotate(0 6.432413974744122 6.6706515293643065)" stroke="none"><path fill="#e03131" d="M -0.17,-1.94 Q -0.17,-1.94 2.84,-2.13 5.86,-2.32 8.14,-1.87 10.42,-1.42 11.68,2.50 12.94,6.42 13.35,8.62 13.77,10.81 14.17,12.37 14.56,13.92 14.58,14.21 14.59,14.49 14.51,14.76 14.44,15.03 14.28,15.26 14.12,15.49 13.89,15.66 13.67,15.83 13.40,15.92 13.13,16.01 12.85,16.01 12.57,16.01 12.30,15.92 12.04,15.82 11.81,15.65 11.59,15.48 11.43,15.25 11.27,15.01 11.20,14.74 11.13,14.47 11.14,14.19 11.16,13.91 11.27,13.64 11.37,13.38 11.56,13.17 11.74,12.95 11.98,12.81 12.22,12.67 12.50,12.61 12.78,12.55 13.06,12.58 13.34,12.61 13.59,12.73 13.85,12.85 14.05,13.05 14.25,13.24 14.38,13.49 14.51,13.74 14.56,14.02 14.60,14.30 14.56,14.58 14.51,14.85 14.37,15.10 14.24,15.35 14.04,15.54 13.83,15.74 13.57,15.85 13.32,15.97 13.04,16.00 12.76,16.03 12.48,15.97 12.21,15.90 11.96,15.76 11.72,15.61 11.54,15.40 11.36,15.18 11.26,14.92 11.16,14.65 11.16,14.65 11.16,14.65 10.88,13.07 10.60,11.49 10.11,9.44 9.61,7.38 7.90,4.30 6.18,1.22 3.18,1.58 0.17,1.94 -0.05,1.93 -0.29,1.92 -0.52,1.86 -0.74,1.80 -0.95,1.68 -1.15,1.57 -1.32,1.41 -1.49,1.24 -1.62,1.05 -1.75,0.85 -1.83,0.63 -1.90,0.40 -1.92,0.17 -1.94,-0.05 -1.91,-0.29 -1.87,-0.52 -1.78,-0.74 -1.69,-0.95 -1.55,-1.14 -1.42,-1.33 -1.23,-1.48 -1.05,-1.63 -0.84,-1.74 -0.63,-1.84 -0.40,-1.89 -0.17,-1.94 -0.17,-1.94 L -0.17,-1.94 Z"></path></g><g transform="translate(422.2473222330084 928.5367220444812) rotate(0 5.71770131088374 5.479463756263613)" stroke="none"><path fill="#e03131" d="M 0,-2.18 Q 0,-2.18 2.19,-2.06 4.38,-1.95 6.37,-2.00 8.36,-2.06 9.70,-1.35 11.04,-0.64 12.09,2.07 13.15,4.78 13.41,8.03 13.67,11.28 13.63,11.64 13.60,12.00 13.45,12.34 13.30,12.67 13.06,12.93 12.81,13.20 12.49,13.37 12.17,13.55 11.81,13.61 11.46,13.67 11.10,13.62 10.74,13.56 10.42,13.40 10.09,13.23 9.84,12.97 9.59,12.71 9.43,12.38 9.28,12.06 9.23,11.70 9.19,11.34 9.26,10.98 9.34,10.63 9.52,10.31 9.70,10.00 9.98,9.76 10.25,9.52 10.59,9.38 10.92,9.25 11.28,9.22 11.65,9.20 12.00,9.29 12.35,9.38 12.65,9.58 12.95,9.78 13.18,10.07 13.40,10.36 13.52,10.70 13.64,11.04 13.64,11.40 13.65,11.77 13.54,12.11 13.42,12.46 13.21,12.75 12.99,13.04 12.69,13.25 12.40,13.45 12.05,13.56 11.70,13.66 11.34,13.64 10.97,13.63 10.64,13.50 10.30,13.37 10.02,13.13 9.74,12.90 9.55,12.59 9.36,12.28 9.27,11.93 9.19,11.58 9.19,11.58 9.19,11.58 9.04,8.54 8.88,5.49 8.42,3.50 7.96,1.51 6.17,1.73 4.38,1.95 2.19,2.06 0,2.18 -0.26,2.15 -0.52,2.11 -0.76,2.02 -1.01,1.93 -1.23,1.78 -1.44,1.63 -1.62,1.43 -1.79,1.23 -1.91,1.00 -2.03,0.77 -2.10,0.51 -2.16,0.26 -2.16,-0.00 -2.16,-0.26 -2.10,-0.51 -2.03,-0.77 -1.91,-1.00 -1.79,-1.23 -1.62,-1.43 -1.44,-1.63 -1.23,-1.78 -1.01,-1.93 -0.76,-2.02 -0.52,-2.11 -0.26,-2.15 0.00,-2.18 0.00,-2.18 L 0,-2.18 Z"></path></g></svg>