<svg version="1.1" xmlns="http://www.w3.org/2000/svg" viewBox="0 0 1157.6250000000002 1170.1875000000005" width="3472.875000000001" height="3510.5625000000014" filter="invert(93%) hue-rotate(180deg)">
  <!-- svg-source:excalidraw -->
  
  <defs>
    <style class="style-fonts">
      @font-face {
        font-family: "Virgil";
        src: url("https://excalidraw.com/Virgil.woff2");
      }
      @font-face {
        font-family: "Cascadia";
        src: url("https://excalidraw.com/Cascadia.woff2");
      }
    </style>
    
  </defs>
  <g stroke-linecap="round" transform="translate(15.875000000000227 619.3125000000005) rotate(0 100.5 128.5)"><path d="M-1.69 -0.4 C65.14 1.17, 129.83 1.68, 202.53 -1.03 M0.05 -0.76 C70.71 -1.27, 141.94 -2.48, 200.58 -0.51 M201.73 -1.5 C200.48 84.41, 201.64 169.89, 200.83 256.54 M201.6 0.26 C202.25 68.7, 202.28 137.82, 200.49 257.06 M200.94 256.69 C157.85 257.85, 114.23 256.77, 1.23 255.36 M201.56 256.16 C146.65 256.84, 91.41 258.2, -0.08 256.6 M0.76 258.28 C-0.3 183.3, 0.63 105.45, 1.3 -1.03 M-0.18 257.13 C0.18 197.51, -0.48 138.92, -0.73 -0.57" stroke="#1e1e1e" stroke-width="1" fill="none"></path></g><g transform="translate(56.799999237060774 712.8125000000005) rotate(0 59.57500076293945 35)"><text x="59.57500076293945" y="0" font-family="Virgil, Segoe UI Emoji" font-size="28px" fill="#1e1e1e" text-anchor="middle" style="white-space: pre;" direction="ltr" dominant-baseline="text-before-edge">creature</text><text x="59.57500076293945" y="35" font-family="Virgil, Segoe UI Emoji" font-size="28px" fill="#1e1e1e" text-anchor="middle" style="white-space: pre;" direction="ltr" dominant-baseline="text-before-edge">zone</text></g><g stroke-linecap="round" transform="translate(250.37500000000023 618.8125000000005) rotate(0 100.5 128.5)"><path d="M-1.14 0.14 C52.82 0.53, 108.18 0.06, 200.69 -0.51 M0.62 -0.82 C76.61 -0.3, 153.93 0.16, 200.16 0.69 M200.87 -0.72 C201.99 59.37, 203.3 119.58, 202.28 256.65 M201.65 -0.52 C201.17 99.02, 201.67 198.05, 201.13 256.94 M199.38 255.72 C157 254.9, 108.78 255.9, -0.54 257.22 M201.43 256.22 C120.61 255.67, 41.28 254.95, -0.26 256.7 M0.93 256.62 C0.41 187.72, 1.84 115.56, -0.28 -1.5 M0.41 256.46 C0.94 164.69, -0.55 74.34, 0.13 -0.32" stroke="#e03131" stroke-width="1" fill="none"></path></g><g transform="translate(291.2999992370608 712.3125000000005) rotate(0 59.57500076293945 35)"><text x="59.57500076293945" y="0" font-family="Virgil, Segoe UI Emoji" font-size="28px" fill="#e03131" text-anchor="middle" style="white-space: pre;" direction="ltr" dominant-baseline="text-before-edge">creature</text><text x="59.57500076293945" y="35" font-family="Virgil, Segoe UI Emoji" font-size="28px" fill="#e03131" text-anchor="middle" style="white-space: pre;" direction="ltr" dominant-baseline="text-before-edge">zone</text></g><g stroke-linecap="round" transform="translate(481.1250000000002 613.0625000000005) rotate(0 100.5 128.5)"><path d="M0 0 C0 0, 0 0, 0 0 M0 0 C0 0, 0 0, 0 0 M0.1 6.03 C0.97 4.79, 3.62 1.11, 5.31 1.12 M-0.19 6.25 C1.63 4.57, 2.84 2.8, 4.98 0.31 M-0.04 13.03 C2.68 8.55, 7.88 4.83, 9.1 0.24 M0.1 12.79 C3.46 8.12, 8.82 2.59, 10.96 0.13 M-2.12 16.48 C6.59 13.57, 13 3.27, 14.26 1.6 M-0.49 18.03 C2.28 14.41, 7.37 10.71, 15.31 0.96 M0.23 25.2 C5.8 16.17, 13.53 5.65, 19.67 -1.69 M1.24 23.92 C5.08 17.46, 10.81 10.62, 20.55 -0.99 M0.99 31.45 C8.99 20.91, 20.12 8.43, 25.96 0.07 M-0.85 30.27 C9.41 19.5, 19.39 10.28, 27.16 -0.61 M1.03 36.98 C5.9 28.1, 12.98 20.49, 31.09 -0.98 M0.02 37.34 C5.75 29.67, 14.21 20.66, 32.87 -0.25 M2.05 42.55 C12.65 26.97, 30.92 10.01, 38.64 0.9 M0.1 42.22 C10.28 31.43, 20.7 19.38, 37.04 -0.68 M-1.49 47.25 C11.24 37.34, 19.48 24.86, 43.03 -1.89 M0.69 48.08 C18.05 30.18, 34.01 10.4, 42.48 0.85 M2.22 54.33 C15.42 36.74, 31.56 21.99, 46.15 0.75 M-0.73 54.88 C17.58 34.54, 35.51 12.98, 47.67 -0.41 M-1.01 62.27 C17.93 40.16, 35.01 21.35, 54.62 1.69 M-0.24 60.32 C20.46 37.86, 40.31 13.22, 52.59 -0.71 M1.14 66.53 C19.79 42.15, 42.64 20.87, 56.43 -0.35 M-0.34 66.57 C23.19 40.25, 45.93 15.51, 58.97 1.1 M-0.48 74.96 C16.16 52.31, 32.62 32.85, 62.12 0.25 M-0.41 73.49 C16.16 54.75, 33.55 35.9, 64.09 -0.39 M1.46 81.02 C20.91 58.89, 38.91 37, 69.51 -0.92 M-0.1 78.88 C22.78 54.23, 45.11 27.55, 69.06 -0.21 M1.27 83.66 C16.45 67.83, 29.07 50.34, 72.85 -1.28 M0.75 84.12 C22.5 57.86, 44.47 33.29, 74.59 -1.08 M-1.01 92.34 C21.17 67.01, 39.15 44.68, 79.52 -0.11 M-0.61 92.22 C25.63 62.61, 50.21 35.81, 79.29 -0.37 M-1.16 98.87 C30.72 58.26, 64.3 22.66, 83.23 -1.59 M0.34 97.49 C25.69 67.79, 52.46 36.49, 85.4 -0.17 M-0.73 102.68 C34.63 66.14, 66.95 24.69, 88.69 0.35 M-0.13 103.78 C32.8 64.5, 66.72 26.46, 89.17 -0.33 M0.89 110.21 C37.6 67.22, 74.8 24.58, 96.79 -0.97 M-0.35 109.69 C28.13 77.7, 56.63 44.09, 96.53 -0.47 M-1.03 116.64 C39.51 71.14, 77.06 27.13, 101.32 -1.86 M-0.21 115.3 C26.61 86.1, 52.5 55.36, 101.45 0.98 M0.19 121 C31.8 88.35, 63.51 49.45, 106.13 0.73 M-0.81 121.13 C34.04 80.83, 69.01 42, 105.69 -1.25 M-0.86 127.97 C32.82 90.7, 63.92 55.4, 109.83 0.34 M0.64 128.84 C42.13 77.94, 86.42 28.93, 111.07 -0.3 M-1.71 135.19 C35.81 90.15, 76.53 46.79, 114.32 -1.22 M0.35 134.49 C39.13 91.38, 75.57 47.42, 116.64 -0.48 M-2.05 138.59 C45.86 86.82, 89.17 37.17, 120.73 1.44 M0.58 140.72 C40.49 93.83, 82.97 44.3, 122.17 -0.02 M-1.18 144.15 C25.23 114.48, 53.29 87.77, 127.45 -1.37 M-0.29 146.5 C39.3 102.9, 77.96 57.92, 126.8 1.15 M0.59 152.98 C25.52 118.84, 56.24 86.65, 132.6 1.2 M-0.42 153.01 C43.23 103.59, 85.71 53.63, 133.04 -0.84 M0.71 157.56 C29.2 127.89, 57.31 95.81, 136.86 -1.4 M-0.57 159.61 C37.09 115.43, 72.71 73.4, 138.27 -0.17 M0.26 165.44 C29.95 132.14, 57.72 97.03, 142.29 -0.58 M0.66 163.93 C47.29 110.88, 93.16 56.96, 143.37 0.17 M-0.47 169.78 C37.17 125.5, 76.29 80.72, 147.4 -0.16 M0.57 170.5 C51.27 113.16, 101.31 56.19, 147.88 0.28 M-0.86 175.08 C41.22 129.54, 83.44 82.24, 154.1 0.1 M1.02 176.51 C57.58 110.32, 116.55 43.33, 152.99 -0.25 M-0.02 183.07 C50.35 127.07, 99.91 68.11, 158.99 -0.81 M-0.71 182.41 C39.19 139.06, 78.67 94.21, 158.51 0.17 M0.9 190.32 C55.82 126.27, 113.85 60.87, 163.67 -0.14 M-0.2 189.74 C44.2 139.43, 89.99 87.68, 164.36 -0.04 M-1.3 194.89 C55.59 130.34, 112.84 68.29, 169.26 0.49 M0.14 194.38 C35 154.17, 71.62 112.47, 169.19 0.37 M-1.14 200.84 C50.16 143.73, 100.43 83.46, 173.55 -0.02 M-0.51 201.79 C43.08 150.63, 86.48 101.47, 175.1 0.26 M-0.95 207.26 C51.33 148.91, 103.14 90.41, 178.55 -0.36 M1.05 206.39 C48.91 150.8, 98.77 93.59, 179.65 0.49 M-0.04 213.77 C76.17 128.63, 149.93 44.32, 184.52 1.12 M-0.54 213.53 C56.74 147.96, 112.17 83.06, 185.52 0.24 M-1.14 219.23 C77 133.68, 150.87 48.46, 190.98 -0.6 M0.47 219.21 C67.25 140.75, 136.42 62.14, 190.9 -0.12 M-0.16 226.11 C50.78 166.52, 103.46 109.46, 197.34 -0.98 M-0.49 224.76 C55.51 159.12, 113.15 94.38, 196.08 0.29 M1.07 231.71 C55.18 170.76, 108.24 110.35, 200.77 0.99 M0.5 232.08 C47.18 179.64, 93.21 126.86, 201.46 -0.19 M-0.28 236.97 C62.06 167.29, 125.36 95.31, 199.66 7.74 M-0.01 237.09 C43.44 186.01, 87.39 134.63, 200.69 6.16 M-0.49 244.4 C75.49 158.04, 150.38 72.41, 201.57 12.25 M0.66 243.65 C62.74 172.43, 125.56 99.07, 202.12 11.71 M0.87 249.32 C56.39 186.14, 112.13 123.37, 201.12 19.25 M0.34 249.61 C71.87 168.89, 141.04 88.49, 200.63 18.95 M0.33 257.31 C69.3 177.49, 138.23 100.42, 200.78 25.22 M-0.21 255.51 C54.31 193.27, 107.85 131.71, 201.61 25.54 M2.73 259.69 C65.45 186.22, 130.93 110.71, 201.55 30.13 M2.28 259.49 C61.71 190.47, 120.56 123.13, 201.35 30.2 M7.46 258.08 C63.69 192.34, 121.04 129.75, 200.98 36.18 M8.35 258.74 C57.94 201.76, 107.6 145.45, 201.35 36.37 M11.91 258.33 C80.35 183.58, 145.23 107.85, 202.08 43.29 M13.74 259.9 C75.66 186.47, 139.18 112.82, 200.94 43.36 M16.91 259.95 C73.27 195.27, 127.32 133.64, 202.17 48.39 M18.91 259.6 C59.66 210.57, 101.56 163.01, 201.29 49.23 M25.1 260.52 C64.26 211.6, 108.5 163.43, 201.78 56.07 M23.33 258.63 C76.83 201.17, 127.54 141.78, 200.65 55.25 M27.98 258.63 C85.99 192.29, 144.69 126.06, 202.8 61.84 M29.38 259.04 C73.05 207.52, 117.73 155.84, 201.89 60.67 M35.49 260.71 C74.24 217.64, 112.53 174.68, 201.71 67.46 M34.89 258.69 C76.7 212.26, 116.72 165.64, 200.88 67.21 M40.84 259.24 C88.23 207.53, 135.26 151.31, 200.37 71.9 M40.01 259.66 C74.53 219.59, 108.95 179.34, 200.95 73.77 M44.57 257.93 C99.14 196.45, 156.05 132.34, 202.69 78.3 M45.02 258.95 C80.24 219.03, 115.1 177.73, 200.96 79.94 M51.36 259.48 C106.25 192.53, 164.47 130.53, 202.5 84.61 M49.5 260.24 C91.78 212, 133.4 165.59, 200.19 85.61 M55.02 258.37 C112.25 197.04, 167.76 132.76, 203.01 89.92 M56.52 259.49 C104.21 203.3, 152.29 148.44, 201.04 90.82 M61.95 257.96 C106.84 205.12, 154.88 148.02, 201.55 99.56 M60.02 260.26 C90.59 225.98, 119.37 191.46, 200.72 98.01 M65.47 260.5 C109.03 210.98, 148.99 165.1, 202.63 103.26 M66.05 259.06 C120.72 197.31, 174.22 136.48, 202.35 104.05 M69.9 259.87 C101.71 222.84, 133.01 189.88, 202.31 108.08 M71.57 259.18 C112.82 211.47, 153.75 164.28, 201.38 109.63 M75.28 259.27 C106.23 226.63, 132.02 196.45, 200.89 117.91 M76.91 259.57 C117.05 213.02, 160.09 163.38, 200.26 116.96 M80.11 261.08 C113.14 227.98, 141.82 191.58, 202.24 121.07 M82.34 259.33 C114.75 220.4, 147.68 182.13, 202.26 122.49 M87.17 258.75 C115.05 227.35, 143.02 193.09, 201.14 130.01 M87.86 259.77 C131.99 207.45, 175.94 155.49, 200.49 127.78 M92.1 260.08 C119.29 229.44, 148.08 196.04, 199.91 135.04 M93.49 259.4 C123.64 223.31, 154.12 187.66, 201.09 134.28 M96.63 260.26 C122.28 232.5, 145.71 200.72, 201.15 139.48 M99.06 259.89 C127.74 226.68, 154.84 193.15, 201.52 140.37 M101.26 260.95 C131.13 225.03, 162.37 193.09, 200.23 145.4 M102.45 259.03 C134.82 221.49, 168.2 182.54, 201.7 145.97 M110.39 259.33 C133.88 230.01, 155.18 201.3, 201.29 152.94 M109.43 258.7 C132.23 231.99, 154.88 204.83, 201.54 151.85 M113.1 259.17 C139.34 229.03, 167.36 198.51, 199.2 157.69 M113.87 259.87 C145.11 224.03, 174.37 189.54, 201.56 159.81 M120.25 259.89 C145.26 233.07, 167.65 203.76, 202.05 166.41 M119.59 258.52 C139.21 235.15, 160.15 211.32, 200.96 164.38 M125.22 259.64 C147.28 230.13, 175.6 198.91, 201.92 170.16 M124.6 258.66 C141.01 242.36, 158.12 223.83, 200.93 170.85 M128.43 261.06 C157.79 229.69, 180.36 200.49, 201.33 176.07 M130.22 258.98 C152.9 234.37, 175.15 207.65, 200.74 176.91 M133.3 258.66 C156.9 230.69, 183.29 207.25, 203.27 184.68 M134.67 260.15 C158.25 233.09, 181.14 205.14, 200.37 182.95 M140.24 260.08 C164.23 231.6, 185.78 208.56, 199.11 189.25 M139.64 258.99 C164.53 231.44, 189.04 204.66, 202 189.2 M145.14 257.93 C160.83 239.24, 178.55 221.41, 201.19 193.54 M146.35 258.18 C165.6 234.5, 186.02 210.33, 201.19 194.51 M150.1 258.86 C165.79 244.91, 177.95 225.65, 199.47 202.93 M150.92 260.26 C169.83 236.81, 187.67 215.46, 201.11 201.29 M154.61 258.58 C170.56 241.1, 184.59 225.53, 202.08 206.18 M157.09 258.58 C165.95 248.68, 174.65 238.35, 201.72 208.23 M162.2 258.97 C174.68 241.5, 189.94 224.92, 203.27 214.76 M161.51 259.3 C176.1 241.21, 191.13 224.56, 201.29 213.52 M167.68 259.12 C174.06 249.45, 183.68 240.44, 201.39 220.19 M166.55 258.28 C180.83 244.37, 193.69 229.04, 200.98 219.09 M171.79 260.39 C181.58 252.23, 189.96 242.12, 201.44 225.79 M171.54 259.16 C179.84 249.93, 189.21 238.45, 200.95 226.3 M176.42 257.48 C185.17 251.99, 189.38 244.92, 201.72 231.82 M177.59 258.23 C185.08 249.82, 191.86 242.29, 201.7 231.9 M183.25 259.49 C187.44 252.67, 192.31 250.44, 200.38 239.24 M182.84 258.46 C186.91 253.18, 193.77 246.45, 200.08 237.81 M188.98 260.98 C192.58 256.13, 195.81 254.14, 201.39 243.01 M187.27 258.43 C191.12 254.7, 195.62 250.04, 201.99 243.24 M192.5 259.19 C196.8 257.22, 198.58 253.02, 201.94 251.01 M193.66 259.96 C195.26 256.7, 196.88 254.58, 201.53 250.15 M199.02 259.27 C199.75 258.33, 200.97 257.13, 201.15 255.99 M199.06 258.98 C199.62 258.06, 200.66 256.74, 201.52 255.83" stroke="#ffc9c9" stroke-width="0.5" fill="none"></path><path d="M0.64 -1.55 C77.68 -2.7, 151.17 -1.76, 200.85 -0.4 M-0.81 -0.33 C62.66 0.7, 127.64 0.62, 200.28 -0.22 M202.13 -1.27 C202.03 67.91, 200.41 138.82, 201.2 255.88 M200.29 0.28 C200.78 69.48, 199.6 139.85, 201.01 256.57 M200.82 258.27 C145.08 256.81, 88.99 256.54, -1.69 258.44 M200.97 257.07 C137.78 255.92, 73.3 256.28, 0.54 256.21 M0.53 255.64 C-0.55 191.25, 0.19 127.79, -1.19 1.47 M0.23 256.21 C-1.93 173.44, -1.29 91.94, 0.36 -0.77" stroke="#e03131" stroke-width="1" fill="none"></path></g><g stroke-linecap="round" transform="translate(715.6250000000002 613.5625000000005) rotate(0 100.5 128.5)"><path d="M1.45 -1.15 C76.25 1.35, 154.89 1.16, 201.28 -0.14 M-0.81 -0.64 C46.09 -0.06, 90.07 0.44, 200.73 0.11 M201.77 -1.41 C201.6 102.37, 202.65 203.25, 200.53 256.47 M201.47 -0.19 C198.46 70.79, 199.17 140.15, 200.86 256.25 M201.91 255.79 C130.97 256.8, 55.95 259.71, 0.29 256.29 M201.29 257.45 C157.09 257.96, 115.06 256.35, -0.41 256.73 M-1.18 256.58 C-1.12 189.55, -1.86 120.7, 0.36 1.58 M0.1 256.22 C0.14 203.32, -0.24 147.89, 0.65 -0.16" stroke="#e03131" stroke-width="1" fill="none"></path></g><g transform="translate(756.5499992370608 707.0625000000005) rotate(0 59.57500076293945 35)"><text x="59.57500076293945" y="0" font-family="Virgil, Segoe UI Emoji" font-size="28px" fill="#e03131" text-anchor="middle" style="white-space: pre;" direction="ltr" dominant-baseline="text-before-edge">creature</text><text x="59.57500076293945" y="35" font-family="Virgil, Segoe UI Emoji" font-size="28px" fill="#e03131" text-anchor="middle" style="white-space: pre;" direction="ltr" dominant-baseline="text-before-edge">zone</text></g><g stroke-linecap="round" transform="translate(942.3750000000002 614.8125000000005) rotate(0 100.5 128.5)"><path d="M1.44 0.29 C78 0.17, 157.36 1.84, 201.58 0.9 M-0.79 -0.41 C45.08 -1.38, 90.99 -1.85, 200.34 -0.24 M202.47 0.36 C204.42 68.61, 203.31 138.5, 201.19 255.43 M200.23 0.65 C202.11 101.33, 202.25 201.64, 201.55 257.43 M202.53 256.75 C130.28 257, 61.46 255.34, 0.2 258.5 M201.3 257.65 C125.27 256.39, 48.35 255.77, -0.76 257.74 M1.53 257.45 C1.05 178.64, 2.33 100.33, 0.54 0.59 M-0.11 257.05 C-1.77 203.75, -1.93 151.16, -0.33 0.1" stroke="#e03131" stroke-width="1" fill="none"></path></g><g transform="translate(983.2999992370608 708.3125000000005) rotate(0 59.57500076293945 35)"><text x="59.57500076293945" y="0" font-family="Virgil, Segoe UI Emoji" font-size="28px" fill="#e03131" text-anchor="middle" style="white-space: pre;" direction="ltr" dominant-baseline="text-before-edge">creature</text><text x="59.57500076293945" y="35" font-family="Virgil, Segoe UI Emoji" font-size="28px" fill="#e03131" text-anchor="middle" style="white-space: pre;" direction="ltr" dominant-baseline="text-before-edge">zone</text></g><g stroke-linecap="round" transform="translate(20.125000000000227 902.6875000000005) rotate(0 100.5 128.5)"><path d="M1.53 -0.25 C67.87 1.3, 137.64 -0.36, 201.2 1.5 M0.3 0.65 C77.32 1.02, 153.45 0.4, 200.24 0.74 M202.53 0.45 C198 77.73, 199.28 155.51, 201.54 257.59 M200.89 0.05 C202.91 53.08, 202.75 106.84, 200.67 257.1 M201.3 258.52 C125.7 256.03, 47.12 256.96, -1.36 258.72 M201.18 257.73 C122.14 257.4, 43.86 256.87, 0.26 257.88 M1.03 255.57 C2.77 167.61, 0.89 76.74, -1.24 -0.26 M0.51 257.52 C0.52 154.44, 0.05 52.74, -0.8 0.34" stroke="#1e1e1e" stroke-width="1" fill="none"></path></g><g transform="translate(63.216667175293196 996.1875000000005) rotate(0 57.40833282470703 35)"><text x="57.40833282470703" y="0" font-family="Virgil, Segoe UI Emoji" font-size="28px" fill="#1e1e1e" text-anchor="middle" style="white-space: pre;" direction="ltr" dominant-baseline="text-before-edge">artifact</text><text x="57.40833282470703" y="35" font-family="Virgil, Segoe UI Emoji" font-size="28px" fill="#1e1e1e" text-anchor="middle" style="white-space: pre;" direction="ltr" dominant-baseline="text-before-edge">zone</text></g><g stroke-linecap="round" transform="translate(254.62500000000023 903.1875000000005) rotate(0 100.5 128.5)"><path d="M-1.43 0.65 C52.12 -0.76, 106.34 1.75, 202.45 -1.48 M0.79 0.2 C51.6 -1.72, 101.64 -0.57, 201.03 -0.88 M200.02 -0.31 C203.27 86.85, 203.51 175.43, 199.5 258.43 M201.07 -0.09 C200.63 76.93, 200.38 152.96, 201.66 257.09 M202.6 257.76 C159.8 260.21, 117.4 260.25, 1.59 256.74 M200.27 256.65 C131.47 257.58, 63.99 259.34, 0.44 256.36 M1.29 257.41 C-1.91 196.64, -2.56 137.33, 1.58 -0.05 M0.45 256.8 C-1.32 188.29, -2.11 119.02, -0.78 -0.34" stroke="#1e1e1e" stroke-width="1" fill="none"></path></g><g transform="translate(297.7166671752932 996.6875000000005) rotate(0 57.40833282470703 35)"><text x="57.40833282470703" y="0" font-family="Virgil, Segoe UI Emoji" font-size="28px" fill="#1e1e1e" text-anchor="middle" style="white-space: pre;" direction="ltr" dominant-baseline="text-before-edge">artifact</text><text x="57.40833282470703" y="35" font-family="Virgil, Segoe UI Emoji" font-size="28px" fill="#1e1e1e" text-anchor="middle" style="white-space: pre;" direction="ltr" dominant-baseline="text-before-edge">zone</text></g><g stroke-linecap="round" transform="translate(485.3750000000002 898.4375000000005) rotate(0 100.5 128.5)"><path d="M-0.95 -1.01 C57.76 0.85, 116.56 -2.14, 200.19 0.61 M0.4 -0.42 C74.09 0.33, 149.73 -1.29, 201.36 0.85 M201.31 -0.58 C200.29 84.86, 198.25 169.97, 200.96 256.78 M200.91 0.5 C200.84 78.92, 201.84 157.73, 200.23 257.14 M200.92 258.68 C122.28 259.48, 47.88 257.5, 0.74 257.37 M200.11 256.12 C124.72 257.18, 48.36 255.65, -0.61 257.57 M-0.59 256.35 C-2.89 202.43, -0.07 148.32, -0.5 1.02 M-0.01 257.45 C-1.97 163.51, -1.94 69, -0.64 -0.65" stroke="#1e1e1e" stroke-width="1" fill="none"></path></g><g transform="translate(528.4666671752932 991.9375000000005) rotate(0 57.40833282470703 35)"><text x="57.40833282470703" y="0" font-family="Virgil, Segoe UI Emoji" font-size="28px" fill="#1e1e1e" text-anchor="middle" style="white-space: pre;" direction="ltr" dominant-baseline="text-before-edge">artifact</text><text x="57.40833282470703" y="35" font-family="Virgil, Segoe UI Emoji" font-size="28px" fill="#1e1e1e" text-anchor="middle" style="white-space: pre;" direction="ltr" dominant-baseline="text-before-edge">zone</text></g><g stroke-linecap="round" transform="translate(719.8750000000002 897.9375000000005) rotate(0 100.5 128.5)"><path d="M0.2 1.5 C69.06 -0.47, 134.41 1.62, 202.3 1.58 M-0.76 0.74 C64.9 -0.05, 130.1 1.69, 201.25 -0.54 M201.54 0.59 C199.89 73.56, 201.35 144.05, 201.11 257.14 M200.67 0.1 C201.44 74.44, 200.01 148.84, 201.68 257.72 M199.64 258.72 C133.84 258.43, 64.23 259.06, 1.45 255.54 M201.26 257.88 C148.96 254.59, 95.42 255.81, -0.8 257.72 M-1.24 256.74 C2.34 173.29, 0.26 90.69, 1.05 0.91 M-0.8 257.34 C-0.74 186, -0.6 115.04, -0.21 0.42" stroke="#1e1e1e" stroke-width="1" fill="none"></path></g><g transform="translate(762.9666671752932 991.4375000000005) rotate(0 57.40833282470703 35)"><text x="57.40833282470703" y="0" font-family="Virgil, Segoe UI Emoji" font-size="28px" fill="#1e1e1e" text-anchor="middle" style="white-space: pre;" direction="ltr" dominant-baseline="text-before-edge">artifact</text><text x="57.40833282470703" y="35" font-family="Virgil, Segoe UI Emoji" font-size="28px" fill="#1e1e1e" text-anchor="middle" style="white-space: pre;" direction="ltr" dominant-baseline="text-before-edge">zone</text></g><g stroke-linecap="round" transform="translate(946.6250000000002 899.1875000000005) rotate(0 100.5 128.5)"><path d="M1.45 -1.48 C48.17 -0.9, 99.27 0.08, 201.41 0.8 M0.03 -0.88 C51.37 -0.63, 102.28 -2.03, 200.83 0.17 M199.5 1.43 C201.65 67.67, 201.8 135.91, 200.83 256.82 M201.66 0.09 C199.37 93.15, 200.82 186.74, 201.34 256.96 M202.59 256.74 C122.65 259.1, 44.26 257.27, -0.7 255.21 M201.44 256.36 C159.75 259.35, 118.93 259.49, 0.23 256.67 M1.58 256.95 C1.1 191.33, 2.64 124.53, -0.4 -0.03 M-0.78 256.66 C1.43 164.93, 1.86 74.58, 0.32 0.78" stroke="#1e1e1e" stroke-width="1" fill="none"></path></g><g transform="translate(989.7166671752932 992.6875000000005) rotate(0 57.40833282470703 35)"><text x="57.40833282470703" y="0" font-family="Virgil, Segoe UI Emoji" font-size="28px" fill="#1e1e1e" text-anchor="middle" style="white-space: pre;" direction="ltr" dominant-baseline="text-before-edge">artifact</text><text x="57.40833282470703" y="35" font-family="Virgil, Segoe UI Emoji" font-size="28px" fill="#1e1e1e" text-anchor="middle" style="white-space: pre;" direction="ltr" dominant-baseline="text-before-edge">zone</text></g><g stroke-linecap="round"><g transform="translate(31.875000000000227 592.3125000000005) rotate(0 538.223612294346 -0.7238547804876703)"><path d="M-0.69 -0.33 C244.32 2.3, 487.94 1.96, 1077.13 0.51 M0.22 -0.13 C395.59 -4.14, 791.55 -3.96, 1076.93 -0.16" stroke="#1e1e1e" stroke-width="1" fill="none"></path></g></g><mask></mask><g stroke-linecap="round" transform="translate(940.7500000000002 293.87499999999943) rotate(180 100.5 128.5)"><path d="M0.49 1.59 C49.57 -0.23, 97.17 1.79, 201.46 0.44 M-0.27 -0.86 C66.22 1.45, 131.8 0.61, 200.9 -0.74 M200.85 -0.6 C199.34 74.26, 199.2 147.19, 202.5 258.54 M200.78 -0.71 C202.94 55.09, 202.65 109.02, 201.25 257.62 M199.47 256.85 C150.22 258.68, 96.54 256.68, 0.47 256.26 M201.52 257.87 C140.13 258.45, 81.1 257.19, 0.66 257.5 M0.92 256.14 C1.07 181.5, 1.05 104.37, 0.64 0.12 M-0.63 257.65 C-1.27 187.28, -1.23 119.17, -0.74 0.24" stroke="#1e1e1e" stroke-width="1" fill="none"></path></g><g transform="translate(981.6749992370608 387.37499999999943) rotate(180 59.57500076293945 35)"><text x="59.57500076293945" y="0" font-family="Virgil, Segoe UI Emoji" font-size="28px" fill="#1e1e1e" text-anchor="middle" style="white-space: pre;" direction="ltr" dominant-baseline="text-before-edge">creature</text><text x="59.57500076293945" y="35" font-family="Virgil, Segoe UI Emoji" font-size="28px" fill="#1e1e1e" text-anchor="middle" style="white-space: pre;" direction="ltr" dominant-baseline="text-before-edge">zone</text></g><g stroke-linecap="round" transform="translate(706.2500000000005 294.3749999999999) rotate(180 100.5 128.5)"><path d="M-0.15 0.96 C78.56 1.51, 156.71 -0.42, 199.58 -0.53 M-0.55 -0.81 C40.89 -0.8, 81.87 -0.34, 200.85 -0.08 M199.83 0.26 C201.19 69.09, 198.28 136.52, 201.85 256.56 M200.83 -0.26 C201.56 54.94, 200.96 107.9, 201.5 256.32 M199.24 255.57 C142.84 256.83, 83.72 257.93, 0.95 258.03 M201.32 256.23 C121.99 258.51, 41.64 257.13, -0.8 257.51 M-0.96 258.18 C1.85 193.74, 0.69 131.35, 0.59 -1.26 M0.21 257 C-1.17 159.32, -0.74 60.57, -0.74 -0.38" stroke="#1e1e1e" stroke-width="1" fill="none"></path></g><g transform="translate(747.174999237061 387.87499999999983) rotate(180 59.57500076293945 35)"><text x="59.57500076293945" y="0" font-family="Virgil, Segoe UI Emoji" font-size="28px" fill="#1e1e1e" text-anchor="middle" style="white-space: pre;" direction="ltr" dominant-baseline="text-before-edge">creature</text><text x="59.57500076293945" y="35" font-family="Virgil, Segoe UI Emoji" font-size="28px" fill="#1e1e1e" text-anchor="middle" style="white-space: pre;" direction="ltr" dominant-baseline="text-before-edge">zone</text></g><g stroke-linecap="round" transform="translate(475.50000000000045 299.12500000000045) rotate(180 100.5 128.5)"><path d="M0.52 -1.48 C69.66 -0.98, 140.42 -0.34, 201.06 -1.1 M-0.13 -0.28 C41.96 1.4, 83.9 0.91, 201.45 -0.65 M199.59 1.42 C203.78 80.85, 201.5 162.82, 201.91 256.65 M200.64 -0.75 C202.13 68.22, 201.57 138.07, 201.25 256.21 M200.98 257.36 C157.65 257.29, 114.14 254.73, 1 257.65 M200.99 256.13 C157.11 258.53, 114.33 257.49, 0.79 256.47 M-0.51 258.12 C-0.24 159.82, 0.48 65.5, -1.6 0.41 M-0.32 256.41 C1.16 179.46, 1.21 103.01, 0.73 0.22" stroke="#1e1e1e" stroke-width="1" fill="none"></path></g><g transform="translate(516.424999237061 392.62500000000045) rotate(180 59.57500076293945 35)"><text x="59.57500076293945" y="0" font-family="Virgil, Segoe UI Emoji" font-size="28px" fill="#1e1e1e" text-anchor="middle" style="white-space: pre;" direction="ltr" dominant-baseline="text-before-edge">creature</text><text x="59.57500076293945" y="35" font-family="Virgil, Segoe UI Emoji" font-size="28px" fill="#1e1e1e" text-anchor="middle" style="white-space: pre;" direction="ltr" dominant-baseline="text-before-edge">zone</text></g><g stroke-linecap="round" transform="translate(241.00000000000068 299.6250000000009) rotate(180 100.5 128.5)"><path d="M-1.73 0.1 C43.76 -0.56, 85.78 0.33, 199.53 -0.25 M-0.33 -0.57 C54.58 -0.49, 108.41 1, 201.86 -0.79 M199.57 0.25 C203 99.38, 201.58 199.95, 202.24 256.28 M200.93 0.26 C202.53 52.4, 201.63 106.59, 200.67 256.99 M202.73 255.47 C137.65 258.69, 70.76 259.36, 1.01 256.99 M200.52 256.48 C160.99 257.5, 120.06 258.39, 0.07 256.71 M1.3 257.33 C-2.36 162.5, -0.76 65.69, 0.48 -0.64 M-0.7 257.32 C2.65 199, 1.23 140.57, -0.6 -0.48" stroke="#e03131" stroke-width="1" fill="none"></path></g><g transform="translate(281.92499923706123 393.1250000000009) rotate(180 59.57500076293945 35.00000000000001)"><text x="59.57500076293945" y="0" font-family="Virgil, Segoe UI Emoji" font-size="28px" fill="#e03131" text-anchor="middle" style="white-space: pre;" direction="ltr" dominant-baseline="text-before-edge">creature</text><text x="59.57500076293945" y="35" font-family="Virgil, Segoe UI Emoji" font-size="28px" fill="#e03131" text-anchor="middle" style="white-space: pre;" direction="ltr" dominant-baseline="text-before-edge">zone</text></g><g stroke-linecap="round" transform="translate(14.250000000000682 298.37500000000136) rotate(180 100.5 128.5)"><path d="M-1.63 -0.2 C59.93 0.85, 122.27 0.8, 200.83 -0.67 M0.15 0.84 C48.36 0.53, 95.79 1.79, 200.75 -0.8 M200.49 0.49 C203.41 80.32, 200.67 163.06, 199.63 256.87 M200.36 0.21 C201.32 85.26, 201.82 170.95, 201.46 257.78 M199.46 258.33 C158.82 257.64, 112.87 256.06, 1.03 256.04 M201.66 257.36 C152.48 255.64, 104.44 256.26, -0.7 257.73 M0 255.52 C2.54 173.98, 0.87 90.75, -0.76 -1.4 M-0.69 257.01 C-2.48 169.05, -2.35 82.47, -0.22 0.07" stroke="#e03131" stroke-width="1" fill="none"></path></g><g transform="translate(55.17499923706123 391.87500000000136) rotate(180 59.57500076293945 35)"><text x="59.57500076293945" y="0" font-family="Virgil, Segoe UI Emoji" font-size="28px" fill="#e03131" text-anchor="middle" style="white-space: pre;" direction="ltr" dominant-baseline="text-before-edge">creature</text><text x="59.57500076293945" y="35" font-family="Virgil, Segoe UI Emoji" font-size="28px" fill="#e03131" text-anchor="middle" style="white-space: pre;" direction="ltr" dominant-baseline="text-before-edge">zone</text></g><g stroke-linecap="round" transform="translate(936.4999999999998 10.499999999999545) rotate(180 100.5 128.5)"><path d="M-0.55 -0.31 C57.85 -0.41, 114.88 1.15, 199.69 0.29 M0.79 0.47 C78.81 0.78, 158.26 2.09, 200.81 -0.29 M199.5 0.99 C201.22 84.82, 203.1 170.42, 199.42 255.72 M201.16 0.43 C200.61 84.57, 199.47 168.03, 201.29 256.31 M199.26 255.41 C126.89 256.03, 49.68 258.56, -1.07 258.32 M201.62 257.33 C131.96 257.15, 64.51 255.53, 0.23 257 M-1.18 255.51 C-1.38 202.18, 0.03 151.63, 0.44 -1.38 M-0.46 257.41 C1.32 179.54, 1.7 101.17, -0.08 0.65" stroke="#1e1e1e" stroke-width="1" fill="none"></path></g><g transform="translate(979.5916671752927 103.99999999999952) rotate(180 57.40833282470703 35)"><text x="57.40833282470703" y="0" font-family="Virgil, Segoe UI Emoji" font-size="28px" fill="#1e1e1e" text-anchor="middle" style="white-space: pre;" direction="ltr" dominant-baseline="text-before-edge">artifact</text><text x="57.40833282470703" y="35" font-family="Virgil, Segoe UI Emoji" font-size="28px" fill="#1e1e1e" text-anchor="middle" style="white-space: pre;" direction="ltr" dominant-baseline="text-before-edge">zone</text></g><g stroke-linecap="round" transform="translate(702.0000000000002 10) rotate(180 100.5 128.5)"><path d="M-1.14 0.89 C55.54 0.96, 115.37 2.39, 199.43 1.58 M0.14 0.51 C70.71 1.31, 142.08 2.29, 200.6 -0.84 M201.51 0.51 C197.67 91.66, 199.66 185.23, 200.98 257.32 M200.31 0.45 C202.48 90.02, 202.78 181.88, 200.99 256.22 M199.95 258.57 C157.43 257.35, 116.72 256.17, -0.57 258.25 M201.18 256.11 C133.55 258.46, 64.81 258.73, -0.35 256.34 M0.65 258.46 C1.41 202.3, 1 149.15, -0.96 -0.93 M0.15 256.24 C0.49 167.6, -0.15 77.44, 0.25 0.25" stroke="#1e1e1e" stroke-width="1" fill="none"></path></g><g transform="translate(745.0916671752932 103.49999999999994) rotate(180 57.40833282470703 35)"><text x="57.40833282470703" y="0" font-family="Virgil, Segoe UI Emoji" font-size="28px" fill="#1e1e1e" text-anchor="middle" style="white-space: pre;" direction="ltr" dominant-baseline="text-before-edge">artifact</text><text x="57.40833282470703" y="35" font-family="Virgil, Segoe UI Emoji" font-size="28px" fill="#1e1e1e" text-anchor="middle" style="white-space: pre;" direction="ltr" dominant-baseline="text-before-edge">zone</text></g><g stroke-linecap="round" transform="translate(471.2500000000002 14.750000000000398) rotate(180 100.5 128.5)"><path d="M1.68 1.72 C68.69 1.29, 141.47 -0.78, 199.41 0.28 M0.27 0.69 C71.29 -0.26, 143.94 -0.19, 200.93 0.29 M201.42 -0.66 C198.96 85.56, 199.83 171.39, 202.55 255.63 M201.59 0.45 C201.74 90.58, 201.03 183.17, 200.57 256.53 M201.72 257.13 C122.52 259.57, 45.84 256.91, 1.46 257.37 M200.17 257.27 C160.32 256.34, 119.52 256.58, -0.78 257.36 M0.03 255.8 C-1.53 155.59, 0.25 55.59, 0.15 0.3 M-0.72 257.54 C0.46 204.34, 0.47 150.48, -0.46 0.54" stroke="#1e1e1e" stroke-width="1" fill="none"></path></g><g transform="translate(514.3416671752932 108.25000000000045) rotate(180 57.40833282470703 35)"><text x="57.40833282470703" y="0" font-family="Virgil, Segoe UI Emoji" font-size="28px" fill="#1e1e1e" text-anchor="middle" style="white-space: pre;" direction="ltr" dominant-baseline="text-before-edge">artifact</text><text x="57.40833282470703" y="35" font-family="Virgil, Segoe UI Emoji" font-size="28px" fill="#1e1e1e" text-anchor="middle" style="white-space: pre;" direction="ltr" dominant-baseline="text-before-edge">zone</text></g><g stroke-linecap="round" transform="translate(236.74999999999977 15.250000000001023) rotate(180 100.5 128.5)"><path d="M0.95 -0.49 C77.9 -1.31, 160 -1.98, 200.43 0.55 M0.55 -0.76 C75.69 1.97, 151.82 0.8, 200.28 0.23 M201.85 0.93 C202.53 65.19, 201.87 133.71, 199.62 258.19 M200.29 0.46 C200.55 91.06, 201.69 182.57, 201.59 257.32 M201.66 255.59 C140.65 258.62, 75.6 258.71, 0 255.34 M200.17 256.58 C133.88 256.04, 69.14 255.92, -0.77 257.02 M0.81 256.56 C1.38 199.42, -0.28 141.08, 1.3 -1.43 M0.26 256.3 C-1.1 163.14, -1.11 68.22, 0.56 0.2" stroke="#1e1e1e" stroke-width="1" fill="none"></path></g><g transform="translate(279.84166717529274 108.75000000000105) rotate(180 57.40833282470703 35)"><text x="57.40833282470703" y="0" font-family="Virgil, Segoe UI Emoji" font-size="28px" fill="#1e1e1e" text-anchor="middle" style="white-space: pre;" direction="ltr" dominant-baseline="text-before-edge">artifact</text><text x="57.40833282470703" y="35" font-family="Virgil, Segoe UI Emoji" font-size="28px" fill="#1e1e1e" text-anchor="middle" style="white-space: pre;" direction="ltr" dominant-baseline="text-before-edge">zone</text></g><g stroke-linecap="round" transform="translate(10 14.000000000001478) rotate(180 100.5 128.5)"><path d="M1.02 -0.39 C54.24 0.27, 111 -1.08, 199.33 1.11 M0.28 -0.88 C42.51 -0.34, 86.08 -0.58, 201.18 0.48 M201.89 0.58 C201.62 93.06, 203.9 183.72, 199.44 255.57 M201.71 -0.48 C200.48 92.13, 199.96 183.35, 201.56 257.3 M199.21 257.46 C156.48 255.72, 112.48 256.66, -1.32 255.34 M201.82 257.25 C149.37 257.74, 98.61 257.19, -0.52 257.45 M-1.52 256.84 C1.11 185.56, 0.89 117.49, 0.51 0.52 M-0.47 257.02 C1.74 202.32, 1.51 147.04, -0.4 0.55" stroke="#1e1e1e" stroke-width="1" fill="none"></path></g><g transform="translate(53.09166717529297 107.50000000000142) rotate(180 57.40833282470703 35)"><text x="57.40833282470703" y="0" font-family="Virgil, Segoe UI Emoji" font-size="28px" fill="#1e1e1e" text-anchor="middle" style="white-space: pre;" direction="ltr" dominant-baseline="text-before-edge">artifact</text><text x="57.40833282470703" y="35" font-family="Virgil, Segoe UI Emoji" font-size="28px" fill="#1e1e1e" text-anchor="middle" style="white-space: pre;" direction="ltr" dominant-baseline="text-before-edge">zone</text></g><g transform="translate(491.528818455125 631.9412243483068) rotate(0 7.421276166502366 -6.493616645689485)" stroke="none"><path fill="#e03131" d="M -2.27,0.40 Q -2.27,0.40 -2.78,-3.25 -3.29,-6.91 -2.46,-9.55 -1.62,-12.19 1.52,-12.67 4.68,-13.16 6.05,-13.38 7.42,-13.61 9.32,-13.37 11.23,-13.12 12.32,-12.97 13.41,-12.82 15.55,-12.39 17.70,-11.95 18.05,-11.79 18.40,-11.63 18.68,-11.36 18.97,-11.10 19.15,-10.76 19.33,-10.42 19.40,-10.03 19.46,-9.65 19.40,-9.27 19.34,-8.89 19.16,-8.54 18.98,-8.20 18.70,-7.93 18.41,-7.66 18.06,-7.50 17.71,-7.34 17.33,-7.29 16.94,-7.25 16.56,-7.33 16.18,-7.41 15.85,-7.61 15.52,-7.81 15.27,-8.11 15.02,-8.40 14.87,-8.76 14.73,-9.12 14.70,-9.51 14.68,-9.89 14.78,-10.27 14.89,-10.64 15.10,-10.96 15.32,-11.28 15.63,-11.52 15.94,-11.76 16.30,-11.88 16.67,-12.00 17.06,-12.01 17.44,-12.01 17.81,-11.88 18.18,-11.76 18.49,-11.53 18.80,-11.30 19.02,-10.98 19.23,-10.66 19.34,-10.28 19.44,-9.91 19.42,-9.52 19.40,-9.14 19.26,-8.77 19.12,-8.41 18.87,-8.12 18.62,-7.82 18.29,-7.62 17.96,-7.42 17.58,-7.34 17.20,-7.25 16.82,-7.29 16.43,-7.33 16.43,-7.33 16.43,-7.33 15.04,-7.80 13.66,-8.26 12.14,-8.70 10.62,-9.13 9.23,-9.39 7.85,-9.65 6.50,-9.55 5.16,-9.46 2.94,-8.52 0.73,-7.59 1.50,-3.99 2.27,-0.40 2.29,-0.12 2.30,0.15 2.25,0.42 2.20,0.70 2.08,0.95 1.96,1.20 1.79,1.42 1.62,1.64 1.40,1.81 1.18,1.98 0.92,2.09 0.67,2.21 0.39,2.25 0.12,2.30 -0.15,2.28 -0.43,2.27 -0.69,2.18 -0.96,2.10 -1.19,1.95 -1.43,1.80 -1.63,1.61 -1.82,1.41 -1.97,1.17 -2.11,0.93 -2.19,0.66 -2.27,0.40 -2.27,0.40 L -2.27,0.40 Z"></path></g><g transform="translate(501.91860508822833 637.1361176648584) rotate(0 3.1540423707634773 -3.8961699874136855)" stroke="none"><path fill="#e03131" d="M -1.73,1.29 Q -1.73,1.29 -2.69,0.02 -3.66,-1.25 -4.58,-2.89 -5.51,-4.52 -4.88,-6.42 -4.24,-8.32 -1.27,-8.80 1.68,-9.28 4.20,-9.02 6.72,-8.76 9.06,-8.54 11.40,-8.31 11.71,-8.21 12.03,-8.12 12.29,-7.93 12.56,-7.74 12.75,-7.47 12.94,-7.20 13.04,-6.89 13.13,-6.58 13.13,-6.25 13.12,-5.92 13.00,-5.61 12.89,-5.31 12.69,-5.05 12.48,-4.79 12.20,-4.62 11.93,-4.44 11.61,-4.36 11.29,-4.28 10.96,-4.31 10.64,-4.34 10.34,-4.47 10.04,-4.60 9.79,-4.81 9.55,-5.03 9.39,-5.32 9.22,-5.60 9.16,-5.93 9.10,-6.25 9.15,-6.57 9.19,-6.90 9.34,-7.19 9.48,-7.49 9.71,-7.72 9.95,-7.95 10.24,-8.09 10.53,-8.24 10.86,-8.28 11.18,-8.33 11.50,-8.27 11.83,-8.20 12.11,-8.04 12.40,-7.88 12.62,-7.64 12.83,-7.39 12.96,-7.09 13.09,-6.79 13.12,-6.47 13.15,-6.14 13.07,-5.82 12.99,-5.50 12.81,-5.23 12.63,-4.95 12.38,-4.74 12.12,-4.54 11.82,-4.43 11.51,-4.31 11.18,-4.30 10.85,-4.30 10.85,-4.30 10.85,-4.30 8.65,-4.69 6.45,-5.08 4.33,-5.16 2.21,-5.23 0.27,-5.70 -1.66,-6.18 -0.92,-5.02 -0.17,-3.86 0.77,-2.58 1.73,-1.29 1.86,-1.07 1.99,-0.84 2.06,-0.59 2.13,-0.34 2.14,-0.08 2.15,0.17 2.10,0.43 2.05,0.68 1.94,0.92 1.82,1.15 1.66,1.36 1.49,1.56 1.29,1.72 1.08,1.87 0.84,1.97 0.60,2.08 0.34,2.12 0.08,2.16 -0.17,2.14 -0.43,2.12 -0.68,2.03 -0.93,1.95 -1.15,1.81 -1.37,1.67 -1.55,1.48 -1.73,1.29 -1.73,1.29 L -1.73,1.29 Z"></path></g><g transform="translate(491.8998822634501 739.9207925709148) rotate(0 0.5565957124878196 6.3080847415269545)" stroke="none"><path fill="#e03131" d="M 1.93,1.13 Q 1.93,1.13 0.34,3.61 -1.25,6.10 -1.40,7.15 -1.56,8.21 0.24,8.53 2.04,8.85 4.55,9.67 7.05,10.50 7.37,10.67 7.69,10.85 7.94,11.12 8.18,11.38 8.33,11.72 8.47,12.05 8.51,12.41 8.54,12.77 8.46,13.12 8.37,13.48 8.18,13.78 7.99,14.09 7.71,14.32 7.43,14.55 7.09,14.68 6.75,14.81 6.39,14.82 6.02,14.84 5.67,14.73 5.33,14.63 5.03,14.42 4.73,14.21 4.52,13.92 4.30,13.63 4.19,13.28 4.08,12.94 4.09,12.57 4.10,12.21 4.22,11.87 4.34,11.53 4.56,11.24 4.79,10.96 5.09,10.76 5.40,10.56 5.75,10.47 6.10,10.38 6.46,10.40 6.82,10.43 7.16,10.57 7.49,10.71 7.76,10.95 8.04,11.19 8.22,11.50 8.40,11.82 8.47,12.17 8.54,12.53 8.50,12.89 8.45,13.25 8.30,13.57 8.14,13.90 7.88,14.16 7.63,14.42 7.31,14.58 6.98,14.75 6.62,14.80 6.26,14.85 5.91,14.79 5.55,14.72 5.55,14.72 5.55,14.72 3.14,13.80 0.72,12.87 -2.14,11.78 -5.02,10.69 -5.34,8.96 -5.66,7.23 -5.19,5.68 -4.72,4.13 -3.33,1.50 -1.93,-1.13 -1.77,-1.34 -1.61,-1.56 -1.40,-1.73 -1.19,-1.90 -0.94,-2.01 -0.70,-2.13 -0.43,-2.18 -0.17,-2.23 0.09,-2.22 0.36,-2.21 0.62,-2.13 0.88,-2.06 1.12,-1.92 1.35,-1.78 1.55,-1.59 1.74,-1.41 1.88,-1.18 2.03,-0.95 2.11,-0.69 2.20,-0.43 2.22,-0.16 2.24,0.10 2.19,0.36 2.15,0.63 2.04,0.88 1.93,1.13 1.93,1.13 L 1.93,1.13 Z"></path></g><g transform="translate(653.3126388848748 743.631430654166) rotate(0 4.823829508226254 10.204254728940612)" stroke="none"><path fill="#e03131" d="M 1.13,-1.50 Q 1.13,-1.50 3.21,0.15 5.30,1.81 7.35,3.31 9.39,4.82 9.64,7.34 9.88,9.86 7.20,13.23 4.51,16.59 2.11,19.10 -0.28,21.61 -0.51,21.77 -0.73,21.93 -1.00,22.01 -1.26,22.09 -1.53,22.08 -1.81,22.07 -2.07,21.97 -2.32,21.88 -2.54,21.71 -2.75,21.53 -2.90,21.30 -3.04,21.07 -3.11,20.80 -3.17,20.53 -3.15,20.26 -3.13,19.98 -3.02,19.73 -2.91,19.48 -2.72,19.28 -2.54,19.07 -2.30,18.94 -2.06,18.80 -1.79,18.75 -1.52,18.70 -1.24,18.74 -0.97,18.78 -0.73,18.90 -0.48,19.03 -0.29,19.22 -0.09,19.42 0.02,19.67 0.14,19.91 0.17,20.19 0.21,20.46 0.16,20.73 0.10,21.00 -0.02,21.24 -0.16,21.48 -0.37,21.66 -0.57,21.84 -0.83,21.95 -1.08,22.06 -1.35,22.08 -1.63,22.10 -1.89,22.03 -2.16,21.96 -2.39,21.81 -2.62,21.66 -2.79,21.45 -2.96,21.23 -3.06,20.97 -3.15,20.71 -3.16,20.44 -3.16,20.16 -3.08,19.90 -3.00,19.64 -2.84,19.42 -2.67,19.19 -2.67,19.19 -2.67,19.19 -0.24,16.92 2.19,14.64 4.55,12.03 6.90,9.42 6.96,7.93 7.03,6.43 5.12,5.51 3.22,4.58 1.04,3.04 -1.13,1.50 -1.29,1.35 -1.45,1.19 -1.58,1.00 -1.70,0.80 -1.77,0.59 -1.84,0.37 -1.86,0.15 -1.88,-0.07 -1.84,-0.29 -1.81,-0.52 -1.72,-0.73 -1.63,-0.94 -1.49,-1.12 -1.36,-1.30 -1.18,-1.44 -1.00,-1.59 -0.80,-1.68 -0.59,-1.78 -0.37,-1.83 -0.15,-1.87 0.07,-1.86 0.30,-1.86 0.51,-1.79 0.73,-1.73 0.93,-1.62 1.13,-1.50 1.13,-1.50 L 1.13,-1.50 Z"></path></g><g transform="translate(659.9917874347268 739.9207925709148) rotate(0 5.565957124876604 14.657020428842031)" stroke="none"><path fill="#e03131" d="M 1.13,-1.55 Q 1.13,-1.55 4.60,1.07 8.07,3.69 9.76,5.05 11.45,6.42 12.35,7.20 13.25,7.98 14.21,9.78 15.18,11.58 13.75,13.90 12.32,16.22 11.50,17.46 10.69,18.70 7.17,22.14 3.65,25.59 1.13,28.05 -1.39,30.50 -1.61,30.66 -1.83,30.82 -2.09,30.91 -2.35,30.99 -2.63,30.98 -2.90,30.98 -3.16,30.88 -3.42,30.79 -3.63,30.62 -3.85,30.45 -4.00,30.22 -4.15,29.99 -4.21,29.72 -4.28,29.46 -4.26,29.18 -4.24,28.91 -4.13,28.66 -4.03,28.40 -3.85,28.20 -3.66,27.99 -3.43,27.86 -3.19,27.72 -2.92,27.67 -2.65,27.61 -2.38,27.65 -2.10,27.68 -1.86,27.80 -1.61,27.93 -1.42,28.12 -1.22,28.31 -1.10,28.56 -0.97,28.80 -0.94,29.07 -0.90,29.34 -0.95,29.61 -1.00,29.88 -1.13,30.12 -1.26,30.36 -1.47,30.55 -1.67,30.73 -1.92,30.84 -2.17,30.95 -2.45,30.98 -2.72,31.00 -2.99,30.94 -3.25,30.87 -3.49,30.72 -3.72,30.58 -3.89,30.37 -4.06,30.15 -4.16,29.90 -4.26,29.64 -4.27,29.36 -4.27,29.09 -4.20,28.83 -4.12,28.56 -3.96,28.34 -3.80,28.12 -3.80,28.12 -3.80,28.12 -1.38,25.56 1.04,23.01 4.21,19.68 7.38,16.35 8.25,15.20 9.12,14.05 10.23,12.89 11.34,11.74 10.40,10.38 9.46,9.02 7.73,7.78 6.00,6.54 2.43,4.05 -1.13,1.55 -1.30,1.39 -1.47,1.24 -1.59,1.04 -1.72,0.85 -1.80,0.63 -1.87,0.41 -1.90,0.18 -1.92,-0.04 -1.88,-0.27 -1.85,-0.50 -1.76,-0.72 -1.68,-0.93 -1.54,-1.12 -1.40,-1.31 -1.23,-1.46 -1.05,-1.61 -0.84,-1.71 -0.63,-1.81 -0.41,-1.86 -0.18,-1.91 0.04,-1.90 0.27,-1.90 0.50,-1.84 0.72,-1.78 0.92,-1.66 1.13,-1.55 1.13,-1.55 L 1.13,-1.55 Z"></path></g></svg>