<svg version="1.1" xmlns="http://www.w3.org/2000/svg" viewBox="0 0 1157.6250000000002 1170.1875000000005" width="3472.875000000001" height="3510.5625000000014" filter="invert(93%) hue-rotate(180deg)">
  <!-- svg-source:excalidraw -->
  
  <defs>
    <style class="style-fonts">
      @font-face {
        font-family: "Virgil";
        src: url("https://excalidraw.com/Virgil.woff2");
      }
      @font-face {
        font-family: "Cascadia";
        src: url("https://excalidraw.com/Cascadia.woff2");
      }
    </style>
    
  </defs>
  <rect x="0" y="0" width="1157.6250000000002" height="1170.1875000000005" fill="#ffffff"></rect><g stroke-linecap="round" transform="translate(15.875000000000227 619.3125000000005) rotate(0 100.5 128.5)"><path d="M-1.69 -0.4 C65.14 1.17, 129.83 1.68, 202.53 -1.03 M0.05 -0.76 C70.71 -1.27, 141.94 -2.48, 200.58 -0.51 M201.73 -1.5 C200.48 84.41, 201.64 169.89, 200.83 256.54 M201.6 0.26 C202.25 68.7, 202.28 137.82, 200.49 257.06 M200.94 256.69 C157.85 257.85, 114.23 256.77, 1.23 255.36 M201.56 256.16 C146.65 256.84, 91.41 258.2, -0.08 256.6 M0.76 258.28 C-0.3 183.3, 0.63 105.45, 1.3 -1.03 M-0.18 257.13 C0.18 197.51, -0.48 138.92, -0.73 -0.57" stroke="#1e1e1e" stroke-width="1" fill="none"></path></g><g transform="translate(56.799999237060774 712.8125000000005) rotate(0 59.57500076293945 35)"><text x="59.57500076293945" y="0" font-family="Virgil, Segoe UI Emoji" font-size="28px" fill="#1e1e1e" text-anchor="middle" style="white-space: pre;" direction="ltr" dominant-baseline="text-before-edge">creature</text><text x="59.57500076293945" y="35" font-family="Virgil, Segoe UI Emoji" font-size="28px" fill="#1e1e1e" text-anchor="middle" style="white-space: pre;" direction="ltr" dominant-baseline="text-before-edge">zone</text></g><g stroke-linecap="round" transform="translate(250.37500000000023 618.8125000000005) rotate(0 100.5 128.5)"><path d="M-1.14 0.14 C52.82 0.53, 108.18 0.06, 200.69 -0.51 M0.62 -0.82 C76.61 -0.3, 153.93 0.16, 200.16 0.69 M200.87 -0.72 C201.99 59.37, 203.3 119.58, 202.28 256.65 M201.65 -0.52 C201.17 99.02, 201.67 198.05, 201.13 256.94 M199.38 255.72 C157 254.9, 108.78 255.9, -0.54 257.22 M201.43 256.22 C120.61 255.67, 41.28 254.95, -0.26 256.7 M0.93 256.62 C0.41 187.72, 1.84 115.56, -0.28 -1.5 M0.41 256.46 C0.94 164.69, -0.55 74.34, 0.13 -0.32" stroke="#e03131" stroke-width="1" fill="none"></path></g><g transform="translate(291.2999992370608 712.3125000000005) rotate(0 59.57500076293945 35)"><text x="59.57500076293945" y="0" font-family="Virgil, Segoe UI Emoji" font-size="28px" fill="#e03131" text-anchor="middle" style="white-space: pre;" direction="ltr" dominant-baseline="text-before-edge">creature</text><text x="59.57500076293945" y="35" font-family="Virgil, Segoe UI Emoji" font-size="28px" fill="#e03131" text-anchor="middle" style="white-space: pre;" direction="ltr" dominant-baseline="text-before-edge">zone</text></g><g stroke-linecap="round" transform="translate(481.1250000000002 613.0625000000005) rotate(0 100.5 128.5)"><path d="M0 0 C0 0, 0 0, 0 0 M0 0 C0 0, 0 0, 0 0 M0.1 6.03 C0.97 4.79, 3.62 1.11, 5.31 1.12 M-0.19 6.25 C1.63 4.57, 2.84 2.8, 4.98 0.31 M-0.04 13.03 C2.68 8.55, 7.88 4.83, 9.1 0.24 M0.1 12.79 C3.46 8.12, 8.82 2.59, 10.96 0.13 M-2.12 16.48 C6.59 13.57, 13 3.27, 14.26 1.6 M-0.49 18.03 C2.28 14.41, 7.37 10.71, 15.31 0.96 M0.23 25.2 C5.8 16.17, 13.53 5.65, 19.67 -1.69 M1.24 23.92 C5.08 17.46, 10.81 10.62, 20.55 -0.99 M0.99 31.45 C8.99 20.91, 20.12 8.43, 25.96 0.07 M-0.85 30.27 C9.41 19.5, 19.39 10.28, 27.16 -0.61 M1.03 36.98 C5.9 28.1, 12.98 20.49, 31.09 -0.98 M0.02 37.34 C5.75 29.67, 14.21 20.66, 32.87 -0.25 M2.05 42.55 C12.65 26.97, 30.92 10.01, 38.64 0.9 M0.1 42.22 C10.28 31.43, 20.7 19.38, 37.04 -0.68 M-1.49 47.25 C11.24 37.34, 19.48 24.86, 43.03 -1.89 M0.69 48.08 C18.05 30.18, 34.01 10.4, 42.48 0.85 M2.22 54.33 C15.42 36.74, 31.56 21.99, 46.15 0.75 M-0.73 54.88 C17.58 34.54, 35.51 12.98, 47.67 -0.41 M-1.01 62.27 C17.93 40.16, 35.01 21.35, 54.62 1.69 M-0.24 60.32 C20.46 37.86, 40.31 13.22, 52.59 -0.71 M1.14 66.53 C19.79 42.15, 42.64 20.87, 56.43 -0.35 M-0.34 66.57 C23.19 40.25, 45.93 15.51, 58.97 1.1 M-0.48 74.96 C16.16 52.31, 32.62 32.85, 62.12 0.25 M-0.41 73.49 C16.16 54.75, 33.55 35.9, 64.09 -0.39 M1.46 81.02 C20.91 58.89, 38.91 37, 69.51 -0.92 M-0.1 78.88 C22.78 54.23, 45.11 27.55, 69.06 -0.21 M1.27 83.66 C16.45 67.83, 29.07 50.34, 72.85 -1.28 M0.75 84.12 C22.5 57.86, 44.47 33.29, 74.59 -1.08 M-1.01 92.34 C21.17 67.01, 39.15 44.68, 79.52 -0.11 M-0.61 92.22 C25.63 62.61, 50.21 35.81, 79.29 -0.37 M-1.16 98.87 C30.72 58.26, 64.3 22.66, 83.23 -1.59 M0.34 97.49 C25.69 67.79, 52.46 36.49, 85.4 -0.17 M-0.73 102.68 C34.63 66.14, 66.95 24.69, 88.69 0.35 M-0.13 103.78 C32.8 64.5, 66.72 26.46, 89.17 -0.33 M0.89 110.21 C37.6 67.22, 74.8 24.58, 96.79 -0.97 M-0.35 109.69 C28.13 77.7, 56.63 44.09, 96.53 -0.47 M-1.03 116.64 C39.51 71.14, 77.06 27.13, 101.32 -1.86 M-0.21 115.3 C26.61 86.1, 52.5 55.36, 101.45 0.98 M0.19 121 C31.8 88.35, 63.51 49.45, 106.13 0.73 M-0.81 121.13 C34.04 80.83, 69.01 42, 105.69 -1.25 M-0.86 127.97 C32.82 90.7, 63.92 55.4, 109.83 0.34 M0.64 128.84 C42.13 77.94, 86.42 28.93, 111.07 -0.3 M-1.71 135.19 C35.81 90.15, 76.53 46.79, 114.32 -1.22 M0.35 134.49 C39.13 91.38, 75.57 47.42, 116.64 -0.48 M-2.05 138.59 C45.86 86.82, 89.17 37.17, 120.73 1.44 M0.58 140.72 C40.49 93.83, 82.97 44.3, 122.17 -0.02 M-1.18 144.15 C25.23 114.48, 53.29 87.77, 127.45 -1.37 M-0.29 146.5 C39.3 102.9, 77.96 57.92, 126.8 1.15 M0.59 152.98 C25.52 118.84, 56.24 86.65, 132.6 1.2 M-0.42 153.01 C43.23 103.59, 85.71 53.63, 133.04 -0.84 M0.71 157.56 C29.2 127.89, 57.31 95.81, 136.86 -1.4 M-0.57 159.61 C37.09 115.43, 72.71 73.4, 138.27 -0.17 M0.26 165.44 C29.95 132.14, 57.72 97.03, 142.29 -0.58 M0.66 163.93 C47.29 110.88, 93.16 56.96, 143.37 0.17 M-0.47 169.78 C37.17 125.5, 76.29 80.72, 147.4 -0.16 M0.57 170.5 C51.27 113.16, 101.31 56.19, 147.88 0.28 M-0.86 175.08 C41.22 129.54, 83.44 82.24, 154.1 0.1 M1.02 176.51 C57.58 110.32, 116.55 43.33, 152.99 -0.25 M-0.02 183.07 C50.35 127.07, 99.91 68.11, 158.99 -0.81 M-0.71 182.41 C39.19 139.06, 78.67 94.21, 158.51 0.17 M0.9 190.32 C55.82 126.27, 113.85 60.87, 163.67 -0.14 M-0.2 189.74 C44.2 139.43, 89.99 87.68, 164.36 -0.04 M-1.3 194.89 C55.59 130.34, 112.84 68.29, 169.26 0.49 M0.14 194.38 C35 154.17, 71.62 112.47, 169.19 0.37 M-1.14 200.84 C50.16 143.73, 100.43 83.46, 173.55 -0.02 M-0.51 201.79 C43.08 150.63, 86.48 101.47, 175.1 0.26 M-0.95 207.26 C51.33 148.91, 103.14 90.41, 178.55 -0.36 M1.05 206.39 C48.91 150.8, 98.77 93.59, 179.65 0.49 M-0.04 213.77 C76.17 128.63, 149.93 44.32, 184.52 1.12 M-0.54 213.53 C56.74 147.96, 112.17 83.06, 185.52 0.24 M-1.14 219.23 C77 133.68, 150.87 48.46, 190.98 -0.6 M0.47 219.21 C67.25 140.75, 136.42 62.14, 190.9 -0.12 M-0.16 226.11 C50.78 166.52, 103.46 109.46, 197.34 -0.98 M-0.49 224.76 C55.51 159.12, 113.15 94.38, 196.08 0.29 M1.07 231.71 C55.18 170.76, 108.24 110.35, 200.77 0.99 M0.5 232.08 C47.18 179.64, 93.21 126.86, 201.46 -0.19 M-0.28 236.97 C62.06 167.29, 125.36 95.31, 199.66 7.74 M-0.01 237.09 C43.44 186.01, 87.39 134.63, 200.69 6.16 M-0.49 244.4 C75.49 158.04, 150.38 72.41, 201.57 12.25 M0.66 243.65 C62.74 172.43, 125.56 99.07, 202.12 11.71 M0.87 249.32 C56.39 186.14, 112.13 123.37, 201.12 19.25 M0.34 249.61 C71.87 168.89, 141.04 88.49, 200.63 18.95 M0.33 257.31 C69.3 177.49, 138.23 100.42, 200.78 25.22 M-0.21 255.51 C54.31 193.27, 107.85 131.71, 201.61 25.54 M2.73 259.69 C65.45 186.22, 130.93 110.71, 201.55 30.13 M2.28 259.49 C61.71 190.47, 120.56 123.13, 201.35 30.2 M7.46 258.08 C63.69 192.34, 121.04 129.75, 200.98 36.18 M8.35 258.74 C57.94 201.76, 107.6 145.45, 201.35 36.37 M11.91 258.33 C80.35 183.58, 145.23 107.85, 202.08 43.29 M13.74 259.9 C75.66 186.47, 139.18 112.82, 200.94 43.36 M16.91 259.95 C73.27 195.27, 127.32 133.64, 202.17 48.39 M18.91 259.6 C59.66 210.57, 101.56 163.01, 201.29 49.23 M25.1 260.52 C64.26 211.6, 108.5 163.43, 201.78 56.07 M23.33 258.63 C76.83 201.17, 127.54 141.78, 200.65 55.25 M27.98 258.63 C85.99 192.29, 144.69 126.06, 202.8 61.84 M29.38 259.04 C73.05 207.52, 117.73 155.84, 201.89 60.67 M35.49 260.71 C74.24 217.64, 112.53 174.68, 201.71 67.46 M34.89 258.69 C76.7 212.26, 116.72 165.64, 200.88 67.21 M40.84 259.24 C88.23 207.53, 135.26 151.31, 200.37 71.9 M40.01 259.66 C74.53 219.59, 108.95 179.34, 200.95 73.77 M44.57 257.93 C99.14 196.45, 156.05 132.34, 202.69 78.3 M45.02 258.95 C80.24 219.03, 115.1 177.73, 200.96 79.94 M51.36 259.48 C106.25 192.53, 164.47 130.53, 202.5 84.61 M49.5 260.24 C91.78 212, 133.4 165.59, 200.19 85.61 M55.02 258.37 C112.25 197.04, 167.76 132.76, 203.01 89.92 M56.52 259.49 C104.21 203.3, 152.29 148.44, 201.04 90.82 M61.95 257.96 C106.84 205.12, 154.88 148.02, 201.55 99.56 M60.02 260.26 C90.59 225.98, 119.37 191.46, 200.72 98.01 M65.47 260.5 C109.03 210.98, 148.99 165.1, 202.63 103.26 M66.05 259.06 C120.72 197.31, 174.22 136.48, 202.35 104.05 M69.9 259.87 C101.71 222.84, 133.01 189.88, 202.31 108.08 M71.57 259.18 C112.82 211.47, 153.75 164.28, 201.38 109.63 M75.28 259.27 C106.23 226.63, 132.02 196.45, 200.89 117.91 M76.91 259.57 C117.05 213.02, 160.09 163.38, 200.26 116.96 M80.11 261.08 C113.14 227.98, 141.82 191.58, 202.24 121.07 M82.34 259.33 C114.75 220.4, 147.68 182.13, 202.26 122.49 M87.17 258.75 C115.05 227.35, 143.02 193.09, 201.14 130.01 M87.86 259.77 C131.99 207.45, 175.94 155.49, 200.49 127.78 M92.1 260.08 C119.29 229.44, 148.08 196.04, 199.91 135.04 M93.49 259.4 C123.64 223.31, 154.12 187.66, 201.09 134.28 M96.63 260.26 C122.28 232.5, 145.71 200.72, 201.15 139.48 M99.06 259.89 C127.74 226.68, 154.84 193.15, 201.52 140.37 M101.26 260.95 C131.13 225.03, 162.37 193.09, 200.23 145.4 M102.45 259.03 C134.82 221.49, 168.2 182.54, 201.7 145.97 M110.39 259.33 C133.88 230.01, 155.18 201.3, 201.29 152.94 M109.43 258.7 C132.23 231.99, 154.88 204.83, 201.54 151.85 M113.1 259.17 C139.34 229.03, 167.36 198.51, 199.2 157.69 M113.87 259.87 C145.11 224.03, 174.37 189.54, 201.56 159.81 M120.25 259.89 C145.26 233.07, 167.65 203.76, 202.05 166.41 M119.59 258.52 C139.21 235.15, 160.15 211.32, 200.96 164.38 M125.22 259.64 C147.28 230.13, 175.6 198.91, 201.92 170.16 M124.6 258.66 C141.01 242.36, 158.12 223.83, 200.93 170.85 M128.43 261.06 C157.79 229.69, 180.36 200.49, 201.33 176.07 M130.22 258.98 C152.9 234.37, 175.15 207.65, 200.74 176.91 M133.3 258.66 C156.9 230.69, 183.29 207.25, 203.27 184.68 M134.67 260.15 C158.25 233.09, 181.14 205.14, 200.37 182.95 M140.24 260.08 C164.23 231.6, 185.78 208.56, 199.11 189.25 M139.64 258.99 C164.53 231.44, 189.04 204.66, 202 189.2 M145.14 257.93 C160.83 239.24, 178.55 221.41, 201.19 193.54 M146.35 258.18 C165.6 234.5, 186.02 210.33, 201.19 194.51 M150.1 258.86 C165.79 244.91, 177.95 225.65, 199.47 202.93 M150.92 260.26 C169.83 236.81, 187.67 215.46, 201.11 201.29 M154.61 258.58 C170.56 241.1, 184.59 225.53, 202.08 206.18 M157.09 258.58 C165.95 248.68, 174.65 238.35, 201.72 208.23 M162.2 258.97 C174.68 241.5, 189.94 224.92, 203.27 214.76 M161.51 259.3 C176.1 241.21, 191.13 224.56, 201.29 213.52 M167.68 259.12 C174.06 249.45, 183.68 240.44, 201.39 220.19 M166.55 258.28 C180.83 244.37, 193.69 229.04, 200.98 219.09 M171.79 260.39 C181.58 252.23, 189.96 242.12, 201.44 225.79 M171.54 259.16 C179.84 249.93, 189.21 238.45, 200.95 226.3 M176.42 257.48 C185.17 251.99, 189.38 244.92, 201.72 231.82 M177.59 258.23 C185.08 249.82, 191.86 242.29, 201.7 231.9 M183.25 259.49 C187.44 252.67, 192.31 250.44, 200.38 239.24 M182.84 258.46 C186.91 253.18, 193.77 246.45, 200.08 237.81 M188.98 260.98 C192.58 256.13, 195.81 254.14, 201.39 243.01 M187.27 258.43 C191.12 254.7, 195.62 250.04, 201.99 243.24 M192.5 259.19 C196.8 257.22, 198.58 253.02, 201.94 251.01 M193.66 259.96 C195.26 256.7, 196.88 254.58, 201.53 250.15 M199.02 259.27 C199.75 258.33, 200.97 257.13, 201.15 255.99 M199.06 258.98 C199.62 258.06, 200.66 256.74, 201.52 255.83" stroke="#ffc9c9" stroke-width="0.5" fill="none"></path><path d="M0.64 -1.55 C77.68 -2.7, 151.17 -1.76, 200.85 -0.4 M-0.81 -0.33 C62.66 0.7, 127.64 0.62, 200.28 -0.22 M202.13 -1.27 C202.03 67.91, 200.41 138.82, 201.2 255.88 M200.29 0.28 C200.78 69.48, 199.6 139.85, 201.01 256.57 M200.82 258.27 C145.08 256.81, 88.99 256.54, -1.69 258.44 M200.97 257.07 C137.78 255.92, 73.3 256.28, 0.54 256.21 M0.53 255.64 C-0.55 191.25, 0.19 127.79, -1.19 1.47 M0.23 256.21 C-1.93 173.44, -1.29 91.94, 0.36 -0.77" stroke="#e03131" stroke-width="1" fill="none"></path></g><g stroke-linecap="round" transform="translate(715.6250000000002 613.5625000000005) rotate(0 100.5 128.5)"><path d="M1.45 -1.15 C76.25 1.35, 154.89 1.16, 201.28 -0.14 M-0.81 -0.64 C46.09 -0.06, 90.07 0.44, 200.73 0.11 M201.77 -1.41 C201.6 102.37, 202.65 203.25, 200.53 256.47 M201.47 -0.19 C198.46 70.79, 199.17 140.15, 200.86 256.25 M201.91 255.79 C130.97 256.8, 55.95 259.71, 0.29 256.29 M201.29 257.45 C157.09 257.96, 115.06 256.35, -0.41 256.73 M-1.18 256.58 C-1.12 189.55, -1.86 120.7, 0.36 1.58 M0.1 256.22 C0.14 203.32, -0.24 147.89, 0.65 -0.16" stroke="#e03131" stroke-width="1" fill="none"></path></g><g transform="translate(756.5499992370608 707.0625000000005) rotate(0 59.57500076293945 35)"><text x="59.57500076293945" y="0" font-family="Virgil, Segoe UI Emoji" font-size="28px" fill="#e03131" text-anchor="middle" style="white-space: pre;" direction="ltr" dominant-baseline="text-before-edge">creature</text><text x="59.57500076293945" y="35" font-family="Virgil, Segoe UI Emoji" font-size="28px" fill="#e03131" text-anchor="middle" style="white-space: pre;" direction="ltr" dominant-baseline="text-before-edge">zone</text></g><g stroke-linecap="round" transform="translate(942.3750000000002 614.8125000000005) rotate(0 100.5 128.5)"><path d="M1.44 0.29 C78 0.17, 157.36 1.84, 201.58 0.9 M-0.79 -0.41 C45.08 -1.38, 90.99 -1.85, 200.34 -0.24 M202.47 0.36 C204.42 68.61, 203.31 138.5, 201.19 255.43 M200.23 0.65 C202.11 101.33, 202.25 201.64, 201.55 257.43 M202.53 256.75 C130.28 257, 61.46 255.34, 0.2 258.5 M201.3 257.65 C125.27 256.39, 48.35 255.77, -0.76 257.74 M1.53 257.45 C1.05 178.64, 2.33 100.33, 0.54 0.59 M-0.11 257.05 C-1.77 203.75, -1.93 151.16, -0.33 0.1" stroke="#e03131" stroke-width="1" fill="none"></path></g><g transform="translate(983.2999992370608 708.3125000000005) rotate(0 59.57500076293945 35)"><text x="59.57500076293945" y="0" font-family="Virgil, Segoe UI Emoji" font-size="28px" fill="#e03131" text-anchor="middle" style="white-space: pre;" direction="ltr" dominant-baseline="text-before-edge">creature</text><text x="59.57500076293945" y="35" font-family="Virgil, Segoe UI Emoji" font-size="28px" fill="#e03131" text-anchor="middle" style="white-space: pre;" direction="ltr" dominant-baseline="text-before-edge">zone</text></g><g stroke-linecap="round" transform="translate(20.125000000000227 902.6875000000005) rotate(0 100.5 128.5)"><path d="M1.53 -0.25 C67.87 1.3, 137.64 -0.36, 201.2 1.5 M0.3 0.65 C77.32 1.02, 153.45 0.4, 200.24 0.74 M202.53 0.45 C198 77.73, 199.28 155.51, 201.54 257.59 M200.89 0.05 C202.91 53.08, 202.75 106.84, 200.67 257.1 M201.3 258.52 C125.7 256.03, 47.12 256.96, -1.36 258.72 M201.18 257.73 C122.14 257.4, 43.86 256.87, 0.26 257.88 M1.03 255.57 C2.77 167.61, 0.89 76.74, -1.24 -0.26 M0.51 257.52 C0.52 154.44, 0.05 52.74, -0.8 0.34" stroke="#1e1e1e" stroke-width="1" fill="none"></path></g><g transform="translate(63.216667175293196 996.1875000000005) rotate(0 57.40833282470703 35)"><text x="57.40833282470703" y="0" font-family="Virgil, Segoe UI Emoji" font-size="28px" fill="#1e1e1e" text-anchor="middle" style="white-space: pre;" direction="ltr" dominant-baseline="text-before-edge">artifact</text><text x="57.40833282470703" y="35" font-family="Virgil, Segoe UI Emoji" font-size="28px" fill="#1e1e1e" text-anchor="middle" style="white-space: pre;" direction="ltr" dominant-baseline="text-before-edge">zone</text></g><g stroke-linecap="round" transform="translate(254.62500000000023 903.1875000000005) rotate(0 100.5 128.5)"><path d="M-1.43 0.65 C52.12 -0.76, 106.34 1.75, 202.45 -1.48 M0.79 0.2 C51.6 -1.72, 101.64 -0.57, 201.03 -0.88 M200.02 -0.31 C203.27 86.85, 203.51 175.43, 199.5 258.43 M201.07 -0.09 C200.63 76.93, 200.38 152.96, 201.66 257.09 M202.6 257.76 C159.8 260.21, 117.4 260.25, 1.59 256.74 M200.27 256.65 C131.47 257.58, 63.99 259.34, 0.44 256.36 M1.29 257.41 C-1.91 196.64, -2.56 137.33, 1.58 -0.05 M0.45 256.8 C-1.32 188.29, -2.11 119.02, -0.78 -0.34" stroke="#1e1e1e" stroke-width="1" fill="none"></path></g><g transform="translate(297.7166671752932 996.6875000000005) rotate(0 57.40833282470703 35)"><text x="57.40833282470703" y="0" font-family="Virgil, Segoe UI Emoji" font-size="28px" fill="#1e1e1e" text-anchor="middle" style="white-space: pre;" direction="ltr" dominant-baseline="text-before-edge">artifact</text><text x="57.40833282470703" y="35" font-family="Virgil, Segoe UI Emoji" font-size="28px" fill="#1e1e1e" text-anchor="middle" style="white-space: pre;" direction="ltr" dominant-baseline="text-before-edge">zone</text></g><g stroke-linecap="round" transform="translate(485.3750000000002 898.4375000000005) rotate(0 100.5 128.5)"><path d="M-0.95 -1.01 C57.76 0.85, 116.56 -2.14, 200.19 0.61 M0.4 -0.42 C74.09 0.33, 149.73 -1.29, 201.36 0.85 M201.31 -0.58 C200.29 84.86, 198.25 169.97, 200.96 256.78 M200.91 0.5 C200.84 78.92, 201.84 157.73, 200.23 257.14 M200.92 258.68 C122.28 259.48, 47.88 257.5, 0.74 257.37 M200.11 256.12 C124.72 257.18, 48.36 255.65, -0.61 257.57 M-0.59 256.35 C-2.89 202.43, -0.07 148.32, -0.5 1.02 M-0.01 257.45 C-1.97 163.51, -1.94 69, -0.64 -0.65" stroke="#1e1e1e" stroke-width="1" fill="none"></path></g><g transform="translate(528.4666671752932 991.9375000000005) rotate(0 57.40833282470703 35)"><text x="57.40833282470703" y="0" font-family="Virgil, Segoe UI Emoji" font-size="28px" fill="#1e1e1e" text-anchor="middle" style="white-space: pre;" direction="ltr" dominant-baseline="text-before-edge">artifact</text><text x="57.40833282470703" y="35" font-family="Virgil, Segoe UI Emoji" font-size="28px" fill="#1e1e1e" text-anchor="middle" style="white-space: pre;" direction="ltr" dominant-baseline="text-before-edge">zone</text></g><g stroke-linecap="round" transform="translate(719.8750000000002 897.9375000000005) rotate(0 100.5 128.5)"><path d="M0.2 1.5 C69.06 -0.47, 134.41 1.62, 202.3 1.58 M-0.76 0.74 C64.9 -0.05, 130.1 1.69, 201.25 -0.54 M201.54 0.59 C199.89 73.56, 201.35 144.05, 201.11 257.14 M200.67 0.1 C201.44 74.44, 200.01 148.84, 201.68 257.72 M199.64 258.72 C133.84 258.43, 64.23 259.06, 1.45 255.54 M201.26 257.88 C148.96 254.59, 95.42 255.81, -0.8 257.72 M-1.24 256.74 C2.34 173.29, 0.26 90.69, 1.05 0.91 M-0.8 257.34 C-0.74 186, -0.6 115.04, -0.21 0.42" stroke="#1e1e1e" stroke-width="1" fill="none"></path></g><g transform="translate(762.9666671752932 991.4375000000005) rotate(0 57.40833282470703 35)"><text x="57.40833282470703" y="0" font-family="Virgil, Segoe UI Emoji" font-size="28px" fill="#1e1e1e" text-anchor="middle" style="white-space: pre;" direction="ltr" dominant-baseline="text-before-edge">artifact</text><text x="57.40833282470703" y="35" font-family="Virgil, Segoe UI Emoji" font-size="28px" fill="#1e1e1e" text-anchor="middle" style="white-space: pre;" direction="ltr" dominant-baseline="text-before-edge">zone</text></g><g stroke-linecap="round" transform="translate(946.6250000000002 899.1875000000005) rotate(0 100.5 128.5)"><path d="M1.45 -1.48 C48.17 -0.9, 99.27 0.08, 201.41 0.8 M0.03 -0.88 C51.37 -0.63, 102.28 -2.03, 200.83 0.17 M199.5 1.43 C201.65 67.67, 201.8 135.91, 200.83 256.82 M201.66 0.09 C199.37 93.15, 200.82 186.74, 201.34 256.96 M202.59 256.74 C122.65 259.1, 44.26 257.27, -0.7 255.21 M201.44 256.36 C159.75 259.35, 118.93 259.49, 0.23 256.67 M1.58 256.95 C1.1 191.33, 2.64 124.53, -0.4 -0.03 M-0.78 256.66 C1.43 164.93, 1.86 74.58, 0.32 0.78" stroke="#1e1e1e" stroke-width="1" fill="none"></path></g><g transform="translate(989.7166671752932 992.6875000000005) rotate(0 57.40833282470703 35)"><text x="57.40833282470703" y="0" font-family="Virgil, Segoe UI Emoji" font-size="28px" fill="#1e1e1e" text-anchor="middle" style="white-space: pre;" direction="ltr" dominant-baseline="text-before-edge">artifact</text><text x="57.40833282470703" y="35" font-family="Virgil, Segoe UI Emoji" font-size="28px" fill="#1e1e1e" text-anchor="middle" style="white-space: pre;" direction="ltr" dominant-baseline="text-before-edge">zone</text></g><g stroke-linecap="round"><g transform="translate(31.875000000000227 592.3125000000005) rotate(0 538.223612294346 -0.7238547804876703)"><path d="M-0.69 -0.33 C244.32 2.3, 487.94 1.96, 1077.13 0.51 M0.22 -0.13 C395.59 -4.14, 791.55 -3.96, 1076.93 -0.16" stroke="#1e1e1e" stroke-width="1" fill="none"></path></g></g><mask></mask><g stroke-linecap="round" transform="translate(940.7500000000002 293.87499999999943) rotate(180 100.5 128.5)"><path d="M0.49 1.59 C49.57 -0.23, 97.17 1.79, 201.46 0.44 M-0.27 -0.86 C66.22 1.45, 131.8 0.61, 200.9 -0.74 M200.85 -0.6 C199.34 74.26, 199.2 147.19, 202.5 258.54 M200.78 -0.71 C202.94 55.09, 202.65 109.02, 201.25 257.62 M199.47 256.85 C150.22 258.68, 96.54 256.68, 0.47 256.26 M201.52 257.87 C140.13 258.45, 81.1 257.19, 0.66 257.5 M0.92 256.14 C1.07 181.5, 1.05 104.37, 0.64 0.12 M-0.63 257.65 C-1.27 187.28, -1.23 119.17, -0.74 0.24" stroke="#1e1e1e" stroke-width="1" fill="none"></path></g><g transform="translate(981.6749992370608 387.37499999999943) rotate(180 59.57500076293945 35)"><text x="59.57500076293945" y="0" font-family="Virgil, Segoe UI Emoji" font-size="28px" fill="#1e1e1e" text-anchor="middle" style="white-space: pre;" direction="ltr" dominant-baseline="text-before-edge">creature</text><text x="59.57500076293945" y="35" font-family="Virgil, Segoe UI Emoji" font-size="28px" fill="#1e1e1e" text-anchor="middle" style="white-space: pre;" direction="ltr" dominant-baseline="text-before-edge">zone</text></g><g stroke-linecap="round" transform="translate(706.2500000000005 294.3749999999999) rotate(180 100.5 128.5)"><path d="M-0.15 0.96 C78.56 1.51, 156.71 -0.42, 199.58 -0.53 M-0.55 -0.81 C40.89 -0.8, 81.87 -0.34, 200.85 -0.08 M199.83 0.26 C201.19 69.09, 198.28 136.52, 201.85 256.56 M200.83 -0.26 C201.56 54.94, 200.96 107.9, 201.5 256.32 M199.24 255.57 C142.84 256.83, 83.72 257.93, 0.95 258.03 M201.32 256.23 C121.99 258.51, 41.64 257.13, -0.8 257.51 M-0.96 258.18 C1.85 193.74, 0.69 131.35, 0.59 -1.26 M0.21 257 C-1.17 159.32, -0.74 60.57, -0.74 -0.38" stroke="#1e1e1e" stroke-width="1" fill="none"></path></g><g transform="translate(747.174999237061 387.87499999999983) rotate(180 59.57500076293945 35)"><text x="59.57500076293945" y="0" font-family="Virgil, Segoe UI Emoji" font-size="28px" fill="#1e1e1e" text-anchor="middle" style="white-space: pre;" direction="ltr" dominant-baseline="text-before-edge">creature</text><text x="59.57500076293945" y="35" font-family="Virgil, Segoe UI Emoji" font-size="28px" fill="#1e1e1e" text-anchor="middle" style="white-space: pre;" direction="ltr" dominant-baseline="text-before-edge">zone</text></g><g stroke-linecap="round" transform="translate(475.50000000000045 299.12500000000045) rotate(180 100.5 128.5)"><path d="M0.52 -1.48 C69.66 -0.98, 140.42 -0.34, 201.06 -1.1 M-0.13 -0.28 C41.96 1.4, 83.9 0.91, 201.45 -0.65 M199.59 1.42 C203.78 80.85, 201.5 162.82, 201.91 256.65 M200.64 -0.75 C202.13 68.22, 201.57 138.07, 201.25 256.21 M200.98 257.36 C157.65 257.29, 114.14 254.73, 1 257.65 M200.99 256.13 C157.11 258.53, 114.33 257.49, 0.79 256.47 M-0.51 258.12 C-0.24 159.82, 0.48 65.5, -1.6 0.41 M-0.32 256.41 C1.16 179.46, 1.21 103.01, 0.73 0.22" stroke="#1e1e1e" stroke-width="1" fill="none"></path></g><g transform="translate(516.424999237061 392.62500000000045) rotate(180 59.57500076293945 35)"><text x="59.57500076293945" y="0" font-family="Virgil, Segoe UI Emoji" font-size="28px" fill="#1e1e1e" text-anchor="middle" style="white-space: pre;" direction="ltr" dominant-baseline="text-before-edge">creature</text><text x="59.57500076293945" y="35" font-family="Virgil, Segoe UI Emoji" font-size="28px" fill="#1e1e1e" text-anchor="middle" style="white-space: pre;" direction="ltr" dominant-baseline="text-before-edge">zone</text></g><g stroke-linecap="round" transform="translate(241.00000000000068 299.6250000000009) rotate(180 100.5 128.5)"><path d="M-1.73 0.1 C43.76 -0.56, 85.78 0.33, 199.53 -0.25 M-0.33 -0.57 C54.58 -0.49, 108.41 1, 201.86 -0.79 M199.57 0.25 C203 99.38, 201.58 199.95, 202.24 256.28 M200.93 0.26 C202.53 52.4, 201.63 106.59, 200.67 256.99 M202.73 255.47 C137.65 258.69, 70.76 259.36, 1.01 256.99 M200.52 256.48 C160.99 257.5, 120.06 258.39, 0.07 256.71 M1.3 257.33 C-2.36 162.5, -0.76 65.69, 0.48 -0.64 M-0.7 257.32 C2.65 199, 1.23 140.57, -0.6 -0.48" stroke="#e03131" stroke-width="1" fill="none"></path></g><g transform="translate(281.92499923706123 393.1250000000009) rotate(180 59.57500076293945 35.00000000000001)"><text x="59.57500076293945" y="0" font-family="Virgil, Segoe UI Emoji" font-size="28px" fill="#e03131" text-anchor="middle" style="white-space: pre;" direction="ltr" dominant-baseline="text-before-edge">creature</text><text x="59.57500076293945" y="35" font-family="Virgil, Segoe UI Emoji" font-size="28px" fill="#e03131" text-anchor="middle" style="white-space: pre;" direction="ltr" dominant-baseline="text-before-edge">zone</text></g><g stroke-linecap="round" transform="translate(14.250000000000682 298.37500000000136) rotate(180 100.5 128.5)"><path d="M-1.63 -0.2 C59.93 0.85, 122.27 0.8, 200.83 -0.67 M0.15 0.84 C48.36 0.53, 95.79 1.79, 200.75 -0.8 M200.49 0.49 C203.41 80.32, 200.67 163.06, 199.63 256.87 M200.36 0.21 C201.32 85.26, 201.82 170.95, 201.46 257.78 M199.46 258.33 C158.82 257.64, 112.87 256.06, 1.03 256.04 M201.66 257.36 C152.48 255.64, 104.44 256.26, -0.7 257.73 M0 255.52 C2.54 173.98, 0.87 90.75, -0.76 -1.4 M-0.69 257.01 C-2.48 169.05, -2.35 82.47, -0.22 0.07" stroke="#e03131" stroke-width="1" fill="none"></path></g><g transform="translate(55.17499923706123 391.87500000000136) rotate(180 59.57500076293945 35)"><text x="59.57500076293945" y="0" font-family="Virgil, Segoe UI Emoji" font-size="28px" fill="#e03131" text-anchor="middle" style="white-space: pre;" direction="ltr" dominant-baseline="text-before-edge">creature</text><text x="59.57500076293945" y="35" font-family="Virgil, Segoe UI Emoji" font-size="28px" fill="#e03131" text-anchor="middle" style="white-space: pre;" direction="ltr" dominant-baseline="text-before-edge">zone</text></g><g stroke-linecap="round" transform="translate(936.4999999999998 10.499999999999545) rotate(180 100.5 128.5)"><path d="M-0.55 -0.31 C57.85 -0.41, 114.88 1.15, 199.69 0.29 M0.79 0.47 C78.81 0.78, 158.26 2.09, 200.81 -0.29 M199.5 0.99 C201.22 84.82, 203.1 170.42, 199.42 255.72 M201.16 0.43 C200.61 84.57, 199.47 168.03, 201.29 256.31 M199.26 255.41 C126.89 256.03, 49.68 258.56, -1.07 258.32 M201.62 257.33 C131.96 257.15, 64.51 255.53, 0.23 257 M-1.18 255.51 C-1.38 202.18, 0.03 151.63, 0.44 -1.38 M-0.46 257.41 C1.32 179.54, 1.7 101.17, -0.08 0.65" stroke="#1e1e1e" stroke-width="1" fill="none"></path></g><g transform="translate(979.5916671752927 103.99999999999952) rotate(180 57.40833282470703 35)"><text x="57.40833282470703" y="0" font-family="Virgil, Segoe UI Emoji" font-size="28px" fill="#1e1e1e" text-anchor="middle" style="white-space: pre;" direction="ltr" dominant-baseline="text-before-edge">artifact</text><text x="57.40833282470703" y="35" font-family="Virgil, Segoe UI Emoji" font-size="28px" fill="#1e1e1e" text-anchor="middle" style="white-space: pre;" direction="ltr" dominant-baseline="text-before-edge">zone</text></g><g stroke-linecap="round" transform="translate(702.0000000000002 10) rotate(180 100.5 128.5)"><path d="M-1.14 0.89 C55.54 0.96, 115.37 2.39, 199.43 1.58 M0.14 0.51 C70.71 1.31, 142.08 2.29, 200.6 -0.84 M201.51 0.51 C197.67 91.66, 199.66 185.23, 200.98 257.32 M200.31 0.45 C202.48 90.02, 202.78 181.88, 200.99 256.22 M199.95 258.57 C157.43 257.35, 116.72 256.17, -0.57 258.25 M201.18 256.11 C133.55 258.46, 64.81 258.73, -0.35 256.34 M0.65 258.46 C1.41 202.3, 1 149.15, -0.96 -0.93 M0.15 256.24 C0.49 167.6, -0.15 77.44, 0.25 0.25" stroke="#1e1e1e" stroke-width="1" fill="none"></path></g><g transform="translate(745.0916671752932 103.49999999999994) rotate(180 57.40833282470703 35)"><text x="57.40833282470703" y="0" font-family="Virgil, Segoe UI Emoji" font-size="28px" fill="#1e1e1e" text-anchor="middle" style="white-space: pre;" direction="ltr" dominant-baseline="text-before-edge">artifact</text><text x="57.40833282470703" y="35" font-family="Virgil, Segoe UI Emoji" font-size="28px" fill="#1e1e1e" text-anchor="middle" style="white-space: pre;" direction="ltr" dominant-baseline="text-before-edge">zone</text></g><g stroke-linecap="round" transform="translate(471.2500000000002 14.750000000000398) rotate(180 100.5 128.5)"><path d="M1.68 1.72 C68.69 1.29, 141.47 -0.78, 199.41 0.28 M0.27 0.69 C71.29 -0.26, 143.94 -0.19, 200.93 0.29 M201.42 -0.66 C198.96 85.56, 199.83 171.39, 202.55 255.63 M201.59 0.45 C201.74 90.58, 201.03 183.17, 200.57 256.53 M201.72 257.13 C122.52 259.57, 45.84 256.91, 1.46 257.37 M200.17 257.27 C160.32 256.34, 119.52 256.58, -0.78 257.36 M0.03 255.8 C-1.53 155.59, 0.25 55.59, 0.15 0.3 M-0.72 257.54 C0.46 204.34, 0.47 150.48, -0.46 0.54" stroke="#1e1e1e" stroke-width="1" fill="none"></path></g><g transform="translate(514.3416671752932 108.25000000000045) rotate(180 57.40833282470703 35)"><text x="57.40833282470703" y="0" font-family="Virgil, Segoe UI Emoji" font-size="28px" fill="#1e1e1e" text-anchor="middle" style="white-space: pre;" direction="ltr" dominant-baseline="text-before-edge">artifact</text><text x="57.40833282470703" y="35" font-family="Virgil, Segoe UI Emoji" font-size="28px" fill="#1e1e1e" text-anchor="middle" style="white-space: pre;" direction="ltr" dominant-baseline="text-before-edge">zone</text></g><g stroke-linecap="round" transform="translate(236.74999999999977 15.250000000001023) rotate(180 100.5 128.5)"><path d="M0.95 -0.49 C77.9 -1.31, 160 -1.98, 200.43 0.55 M0.55 -0.76 C75.69 1.97, 151.82 0.8, 200.28 0.23 M201.85 0.93 C202.53 65.19, 201.87 133.71, 199.62 258.19 M200.29 0.46 C200.55 91.06, 201.69 182.57, 201.59 257.32 M201.66 255.59 C140.65 258.62, 75.6 258.71, 0 255.34 M200.17 256.58 C133.88 256.04, 69.14 255.92, -0.77 257.02 M0.81 256.56 C1.38 199.42, -0.28 141.08, 1.3 -1.43 M0.26 256.3 C-1.1 163.14, -1.11 68.22, 0.56 0.2" stroke="#1e1e1e" stroke-width="1" fill="none"></path></g><g transform="translate(279.84166717529274 108.75000000000105) rotate(180 57.40833282470703 35)"><text x="57.40833282470703" y="0" font-family="Virgil, Segoe UI Emoji" font-size="28px" fill="#1e1e1e" text-anchor="middle" style="white-space: pre;" direction="ltr" dominant-baseline="text-before-edge">artifact</text><text x="57.40833282470703" y="35" font-family="Virgil, Segoe UI Emoji" font-size="28px" fill="#1e1e1e" text-anchor="middle" style="white-space: pre;" direction="ltr" dominant-baseline="text-before-edge">zone</text></g><g stroke-linecap="round" transform="translate(10 14.000000000001478) rotate(180 100.5 128.5)"><path d="M1.02 -0.39 C54.24 0.27, 111 -1.08, 199.33 1.11 M0.28 -0.88 C42.51 -0.34, 86.08 -0.58, 201.18 0.48 M201.89 0.58 C201.62 93.06, 203.9 183.72, 199.44 255.57 M201.71 -0.48 C200.48 92.13, 199.96 183.35, 201.56 257.3 M199.21 257.46 C156.48 255.72, 112.48 256.66, -1.32 255.34 M201.82 257.25 C149.37 257.74, 98.61 257.19, -0.52 257.45 M-1.52 256.84 C1.11 185.56, 0.89 117.49, 0.51 0.52 M-0.47 257.02 C1.74 202.32, 1.51 147.04, -0.4 0.55" stroke="#1e1e1e" stroke-width="1" fill="none"></path></g><g transform="translate(53.09166717529297 107.50000000000142) rotate(180 57.40833282470703 35)"><text x="57.40833282470703" y="0" font-family="Virgil, Segoe UI Emoji" font-size="28px" fill="#1e1e1e" text-anchor="middle" style="white-space: pre;" direction="ltr" dominant-baseline="text-before-edge">artifact</text><text x="57.40833282470703" y="35" font-family="Virgil, Segoe UI Emoji" font-size="28px" fill="#1e1e1e" text-anchor="middle" style="white-space: pre;" direction="ltr" dominant-baseline="text-before-edge">zone</text></g><g stroke-linecap="round"><g transform="translate(489.2602656853021 639.6770858957528) rotate(0 0.5869072546994403 -9.556439459797218)"><path d="M1.44 0.59 C1.71 -4.86, -0.4 -6.69, -0.29 -19.7 M0.4 -0.44 C0.76 -4.77, 0 -10.65, 0.43 -18.39" stroke="#e03131" stroke-width="2" fill="none"></path></g></g><mask></mask><g stroke-linecap="round"><g transform="translate(489.2602656853021 620.3554569676363) rotate(0 8.023931943976663 -0.04416176223293178)"><path d="M0.69 -0.77 C5.84 1, 9.14 0.05, 16.71 0.16 M-0.66 0.68 C4.11 -0.72, 7.32 0.24, 15.91 -0.44" stroke="#e03131" stroke-width="2" fill="none"></path></g></g><mask></mask><g stroke-linecap="round"><g transform="translate(498.5010447378795 627.4960589628099) rotate(0 -0.24470767330387844 6.010319344380832)"><path d="M-0.92 0.49 C-0.15 5.52, 1.24 8.91, -0.17 12.17 M0.22 -0.15 C-0.5 2.76, 0.27 5.55, 0.12 11.72" stroke="#e03131" stroke-width="2" fill="none"></path></g></g><mask></mask><g stroke-linecap="round"><g transform="translate(498.5010447378795 627.9160943742907) rotate(0 4.64427332855837 -0.3122028643807653)"><path d="M-0.14 -0.01 C3.09 -0.85, 7.12 0.37, 9.43 -0.61 M0.1 -0.37 C2.69 0, 5.06 -0.39, 9.41 -0.27" stroke="#e03131" stroke-width="2" fill="none"></path></g></g><mask></mask><g stroke-linecap="round"><g transform="translate(489.6803010967826 740.4855846511434) rotate(0 4.2038656531406104 -4.934629890768093)"><path d="M-0.91 0.26 C1.25 -1.91, 4.32 -4.65, 8.19 -10.13 M-0.61 0.26 C2.8 -1.99, 5.06 -4.99, 9.32 -9.22" stroke="#e03131" stroke-width="2" fill="none"></path></g></g><mask></mask><g stroke-linecap="round"><g transform="translate(488.84023027382113 742.1657262970666) rotate(0 3.0532138808808895 5.04735487350581)"><path d="M-0.6 -0.67 C1.1 2.74, 2.3 6.39, 6.71 10.76 M0.2 0.17 C1.73 3.68, 3.7 6.85, 5.77 10.76" stroke="#e03131" stroke-width="2" fill="none"></path></g></g><mask></mask><g stroke-linecap="round"><g transform="translate(667.1168893446488 752.1399963644024) rotate(180 4.384477204320092 -4.36630413485824)"><path d="M0.35 1.11 C3.34 -2.2, 4.35 -6.25, 9.29 -9.84 M-0.52 -0.41 C3.23 -2.43, 5.81 -6.03, 9.01 -9.71" stroke="#e03131" stroke-width="2" fill="none"></path></g></g><mask></mask><g stroke-linecap="round"><g transform="translate(670.5528627029105 731.5931454283334) rotate(180 3.08652593667 5.067050510214699)"><path d="M0.5 0.52 C0.85 2.61, 3.65 6.13, 5.76 9.63 M0.42 0.28 C2.2 2.96, 3.49 6.65, 5.58 9.86" stroke="#e03131" stroke-width="2" fill="none"></path></g></g><mask></mask><g stroke-linecap="round"><g transform="translate(660.1546091023195 751.009791382198) rotate(180 4.393198289839347 -3.82678566117184)"><path d="M-1.19 1.23 C2.94 -1.43, 5.83 -5.85, 9.22 -8.59 M0.43 -0.36 C2.72 -2.93, 6.06 -6.67, 9.97 -8.88" stroke="#e03131" stroke-width="2" fill="none"></path></g></g><mask></mask><g stroke-linecap="round"><g transform="translate(663.5905824605809 730.4629404461292) rotate(180 2.988550625403718 5.3415981724055825)"><path d="M0.5 0.91 C3.11 2.94, 4.19 8.49, 6.47 10.29 M-0.49 0.3 C1.27 2.77, 3.82 6.24, 5.5 10.39" stroke="#e03131" stroke-width="2" fill="none"></path></g></g><mask></mask></svg>