<svg version="1.1" xmlns="http://www.w3.org/2000/svg" viewBox="0 0 1313.145710265503 350.930894172759" width="3939.4371307965093" height="1052.792682518277" filter="invert(93%) hue-rotate(180deg)">
  <!-- svg-source:excalidraw -->
  
  <defs>
    <style class="style-fonts">
      @font-face {
        font-family: "Virgil";
        src: url("https://excalidraw.com/Virgil.woff2");
      }
      @font-face {
        font-family: "Cascadia";
        src: url("https://excalidraw.com/Cascadia.woff2");
      }
    </style>
    
  </defs>
  <g stroke-linecap="round" transform="translate(10 140.31534575324878) rotate(0 78.5 24.5)"><path d="M-1.83 -1.23 C53.21 2.69, 106.27 1.63, 158.33 -1.03 M-0.92 0.5 C44.89 -0.41, 88.38 -0.91, 156.68 0.04 M157.17 1.97 C157.62 9.96, 158.25 21.9, 156.81 47.77 M156.43 -0.89 C156.34 17.52, 156.48 34.83, 157.46 49.39 M156.56 50.49 C103.84 49.61, 48.77 48.21, -1.49 47.24 M157.99 49.57 C117.44 46.96, 79.58 47.81, -0.58 48.25 M0.8 50.01 C-1.09 33.68, 1.57 20.27, 1.21 -0.14 M0.48 48.05 C-0.01 36.28, 0.13 24.2, 0.29 -0.29" stroke="#1e1e1e" stroke-width="1" fill="none"></path></g><g transform="translate(26.03333282470703 152.31534575324878) rotate(0 62.46666717529297 12.5)"><text x="62.46666717529297" y="0" font-family="Virgil, Segoe UI Emoji" font-size="20px" fill="#1e1e1e" text-anchor="middle" style="white-space: pre;" direction="ltr" dominant-baseline="text-before-edge">Start Phase</text></g><g stroke-linecap="round" transform="translate(220.28392630013946 140.63967601575462) rotate(0 78.5 24.5)"><path d="M-1.59 1.99 C34.4 -2.09, 64.93 0.57, 157.11 -1.16 M-0.43 0.4 C35.83 -0.53, 69.99 0.81, 156.63 0.61 M158.35 0.97 C154.89 14.24, 156.65 28.86, 157.98 49.59 M156.44 0.44 C157.28 13.16, 156.67 26.16, 157.99 48.74 M155.91 48.11 C114.44 47.71, 70.29 48.44, 0 49.27 M157 48.26 C110.22 49.1, 62.15 49.3, -0.65 49.92 M-1.54 49.33 C-0.56 32.98, -0.52 15.55, -0.9 1.37 M0.73 48.73 C-1.01 33.65, 0.46 18.93, -0.44 -0.44" stroke="#1e1e1e" stroke-width="1" fill="none"></path></g><g transform="translate(239.80892782601836 152.63967601575462) rotate(0 58.974998474121094 12.5)"><text x="58.974998474121094" y="0" font-family="Virgil, Segoe UI Emoji" font-size="20px" fill="#1e1e1e" text-anchor="middle" style="white-space: pre;" direction="ltr" dominant-baseline="text-before-edge">Draw Phase</text></g><g stroke-linecap="round" transform="translate(421.4077747398203 138.7613273282837) rotate(0 78.5 24.5)"><path d="M-1.48 0.59 C40.34 -1.41, 83.01 -1.32, 158.83 1.07 M0.17 -0.08 C60.5 1.15, 120.29 0.76, 157.68 0.08 M156.46 -1.9 C156.32 16.36, 157.02 29.77, 156.12 48.45 M156.96 0.69 C156.76 10.23, 157.67 23.05, 156.73 49.3 M158.72 48.99 C116.9 49.47, 74.51 46.42, 1.63 48.09 M156.64 49.49 C95.59 48.48, 36.4 47.94, 0.51 49.02 M0.79 49.51 C-1.63 30.55, 0.35 15.5, 0.47 0.79 M0.34 48.26 C-0.41 35.52, -0.53 23.07, -0.95 0.22" stroke="#1e1e1e" stroke-width="1" fill="none"></path></g><g transform="translate(436.8994396262949 150.7613273282837) rotate(0 63.00833511352539 12.5)"><text x="63.00833511352539" y="0" font-family="Virgil, Segoe UI Emoji" font-size="20px" fill="#1e1e1e" text-anchor="middle" style="white-space: pre;" direction="ltr" dominant-baseline="text-before-edge">Main Phase 1</text></g><g stroke-linecap="round" transform="translate(948.2658710702625 142.9611275685328) rotate(0 78.5 24.5)"><path d="M0.29 0.17 C50.07 0.69, 98.62 0.9, 156.64 -0.11 M-0.42 0.76 C55.78 -0.74, 112.24 0.41, 157.04 0.03 M155.15 -0.34 C157.35 14.29, 157.99 27.91, 157.68 49.07 M156.21 0.35 C156.39 17.14, 157.05 34.39, 157.79 48.52 M158.16 48.54 C104.73 48.39, 57.24 48.43, 0.73 47.4 M157.76 48.14 C102.44 50.27, 46.92 50.85, 0.62 48.01 M-1.74 49.03 C0.8 28.87, -1.33 9.33, 0.58 -0.82 M0.53 49.78 C-1.05 38.21, -0.96 29.09, 0.24 0.81" stroke="#1e1e1e" stroke-width="1" fill="none"></path></g><g transform="translate(959.3492069467273 154.9611275685328) rotate(0 67.41666412353516 12.5)"><text x="67.41666412353516" y="0" font-family="Virgil, Segoe UI Emoji" font-size="20px" fill="#1e1e1e" text-anchor="middle" style="white-space: pre;" direction="ltr" dominant-baseline="text-before-edge">Main Phase 2</text></g><g stroke-linecap="round" transform="translate(1146.145710265503 141.9517651439308) rotate(0 78.5 24.5)"><path d="M-0.46 -1.44 C49.42 1, 99.81 -0.18, 155.4 1.06 M-0.86 0.88 C32.34 -0.39, 65.29 -0.57, 156.01 0.98 M157.03 1.02 C156.87 15.84, 156.85 34.46, 156.18 47 M157.78 -0.64 C155.67 18.21, 156.37 37.76, 157.81 49.35 M157.6 49.77 C100.26 48.86, 41.44 48.36, 1.17 48.38 M157.49 49.96 C95.44 48.8, 34.32 49.63, -0.83 49.93 M1.22 48.09 C-1.15 38.17, 1.63 26.38, -1.06 -1.96 M0.43 49.88 C1.18 36.55, -0.74 23.64, -0.36 0.44" stroke="#1e1e1e" stroke-width="1" fill="none"></path></g><g transform="translate(1173.4290430902101 153.9517651439308) rotate(0 51.21666717529297 12.5)"><text x="51.21666717529297" y="0" font-family="Virgil, Segoe UI Emoji" font-size="20px" fill="#1e1e1e" text-anchor="middle" style="white-space: pre;" direction="ltr" dominant-baseline="text-before-edge">End Phase</text></g><g stroke-linecap="round" transform="translate(679.365752531553 54.39028341728647) rotate(0 78.49999999999994 24.5)"><path d="M-1.01 0.04 C60.43 -0.24, 120.11 -1.18, 155.83 -0.67 M-0.84 -0.21 C56.8 -0.43, 112.08 -1.27, 156.4 0.95 M155.47 1.44 C158.67 9.72, 155.93 22.37, 158.26 50.24 M156.5 -0.51 C156.95 12.98, 157.45 24.12, 156.01 48.36 M158.36 49.51 C115.17 51.12, 73.35 49.19, -0.33 47.43 M156.59 49.78 C108.68 48.48, 61.67 47.94, 0.46 48.92 M-0.12 50.19 C0.37 32.29, -0.94 14.22, 1.62 1.62 M0.3 48.73 C0.01 38.21, 0.19 27.85, -0.37 -0.41" stroke="#1e1e1e" stroke-width="1" fill="none"></path></g><g transform="translate(714.9574197068459 66.39028341728647) rotate(0 42.908332824706974 12.5)"><text x="42.90833282470703" y="0" font-family="Virgil, Segoe UI Emoji" font-size="20px" fill="#1e1e1e" text-anchor="middle" style="white-space: pre;" direction="ltr" dominant-baseline="text-before-edge">Campaign</text></g><g stroke-linecap="round" transform="translate(679.3657525315526 144.52710284177329) rotate(0 78.5 24.5)"><path d="M1.1 1.26 C57.89 0.13, 111.34 0.24, 155.99 -1.03 M-0.09 -0.99 C53.16 -1.83, 108.03 -0.53, 157.68 0.26 M155.72 -0.33 C155.58 13.8, 156.1 26.32, 156.19 50.57 M156.88 0.46 C157.13 10.45, 157.56 20.06, 156.94 49.59 M156.08 50.62 C107.23 46.66, 56.16 48.75, 0.6 48.47 M156.74 48.63 C101.99 49.95, 48.32 49.94, -0.62 49 M1.66 47.39 C-1.45 30.8, 0.09 13.03, -1.23 -0.2 M0.43 48.69 C0.45 34.33, -0.23 19.31, 0.24 0.44" stroke="#1e1e1e" stroke-width="1" fill="none"></path></g><g transform="translate(724.532420469785 156.52710284177329) rotate(0 33.33333206176758 12.5)"><text x="33.33333206176758" y="0" font-family="Virgil, Segoe UI Emoji" font-size="20px" fill="#1e1e1e" text-anchor="middle" style="white-space: pre;" direction="ltr" dominant-baseline="text-before-edge">Battle</text></g><g stroke-linecap="round" transform="translate(681.9410902293959 241.1022665108664) rotate(0 78.5 24.5)"><path d="M1.62 -1.74 C43 -0.92, 82.75 -1.8, 157.96 -0.69 M-0.41 -0.09 C57.99 0.49, 114.33 0.59, 157.5 0.73 M155.91 -1.05 C157.85 10.56, 156.18 24.28, 156.88 49.04 M157.46 -0.26 C157 12.62, 157.45 27.45, 156.74 48.8 M155.52 49.17 C107.81 47.46, 59.88 49.59, -1.87 50.95 M157.4 49.47 C106.91 49.11, 54.78 50.73, 0.63 49.16 M-0.47 47 C-1.94 37.29, 1.05 21.05, -1.42 1.17 M-0.39 49.84 C-0.25 36.67, -0.77 24.57, -0.19 -0.84" stroke="#1e1e1e" stroke-width="1" fill="none"></path></g><g transform="translate(695.1494261058607 253.1022665108664) rotate(0 65.29166412353516 12.5)"><text x="65.29166412353516" y="0" font-family="Virgil, Segoe UI Emoji" font-size="20px" fill="#1e1e1e" text-anchor="middle" style="white-space: pre;" direction="ltr" dominant-baseline="text-before-edge">XD Summoning</text></g><g stroke-linecap="round" transform="translate(622.016688970362 10) rotate(0 125.54771276982103 165.4654470863795)"><path d="M0.86 -0.82 C94.15 1.33, 190.61 0.75, 249.61 1.03 M251.5 -0.73 C254.19 114.02, 254.01 225.71, 251.55 331.15 M251.69 330.93 C172.53 332.5, 92 333.24, 0.61 331.41 M-0.59 330 C-0.02 245.6, 0.56 161.34, -1.21 0.4" stroke="#1e1e1e" stroke-width="1.5" fill="none" stroke-dasharray="1.5 7"></path></g><g stroke-linecap="round"><g transform="translate(165.53808202778214 165.16409629500959) rotate(0 25.92060164393513 -0.23395989253427274)"><path d="M0.59 -0.89 C14.31 -0.79, 29.89 -1.55, 49.07 -1.17 M0.29 0.81 C13.54 0.6, 24.74 -0.46, 51.55 -0.07" stroke="#1e1e1e" stroke-width="1" fill="none"></path></g><g transform="translate(165.53808202778214 165.16409629500959) rotate(0 25.92060164393513 -0.23395989253427274)"><path d="M28.23 7.71 C33.75 5.29, 41.18 1.91, 49.75 -1.24 M27.94 9.41 C34.4 6.77, 38.79 3.52, 52.24 -0.15" stroke="#1e1e1e" stroke-width="1" fill="none"></path></g><g transform="translate(165.53808202778214 165.16409629500959) rotate(0 25.92060164393513 -0.23395989253427274)"><path d="M28.25 -9.68 C33.87 -6.84, 41.29 -4.97, 49.75 -1.24 M27.95 -7.98 C34.35 -6.23, 38.73 -5.08, 52.24 -0.15" stroke="#1e1e1e" stroke-width="1" fill="none"></path></g></g><mask></mask><g stroke-linecap="round"><g transform="translate(379.29111094870814 164.52026187054895) rotate(0 17.66640056885649 -0.3552777121084887)"><path d="M-0.6 -0.87 C10.72 -1.39, 23 -0.32, 35.93 -1.14 M0.15 -0.97 C11.17 0.65, 24.09 0.44, 35.83 0.39" stroke="#1e1e1e" stroke-width="1" fill="none"></path></g><g transform="translate(379.29111094870814 164.52026187054895) rotate(0 17.66640056885649 -0.3552777121084887)"><path d="M18.05 5.92 C23.05 3.08, 28.9 1.78, 35.12 -1.25 M18.74 5.83 C23.39 5.15, 29.82 2.68, 35.03 0.15" stroke="#1e1e1e" stroke-width="1" fill="none"></path></g><g transform="translate(379.29111094870814 164.52026187054895) rotate(0 17.66640056885649 -0.3552777121084887)"><path d="M18.01 -6.63 C22.97 -5.34, 28.83 -2.51, 35.12 -1.25 M18.69 -6.72 C23.46 -3.27, 29.91 -1.61, 35.03 0.15" stroke="#1e1e1e" stroke-width="1" fill="none"></path></g></g><mask></mask><g stroke-linecap="round"><g transform="translate(578.2359481070398 165.16409629500959) rotate(0 34.63628217780689 -0.9738141550630814)"><path d="M0.29 -1.95 C20.85 0.69, 45.19 -0.36, 67.15 -1.16 M-0.1 -0.09 C15.89 0.12, 29.9 0.07, 69.37 -1.47" stroke="#1e1e1e" stroke-width="1" fill="none"></path></g></g><mask></mask><g stroke-linecap="round"><g transform="translate(643.9070594020232 80.82178669066826) rotate(0 0.11669998334315324 96.45377348233188)"><path d="M1.63 0.66 C-1 52.9, -0.25 109.6, -0.58 192.54 M0.2 0.37 C-1.95 68.87, -1.77 137.66, -0.19 190.48" stroke="#1e1e1e" stroke-width="1" fill="none"></path></g></g><mask></mask><g stroke-linecap="round"><g transform="translate(644.5508938264837 276.5474517266969) rotate(0 17.189543346915684 -0.16993902995750432)"><path d="M-1.54 0.4 C14.84 -0.51, 27.3 -0.16, 33.46 -0.37 M0.52 -0.53 C9.97 -0.25, 20.03 -0.77, 35.92 -0.74" stroke="#1e1e1e" stroke-width="1" fill="none"></path></g><g transform="translate(644.5508938264837 276.5474517266969) rotate(0 17.189543346915684 -0.16993902995750432)"><path d="M17.96 5.78 C26.54 2.4, 31.7 0.25, 34.19 -1.07 M19.78 4.95 C23.9 3.46, 28.52 1.21, 36.36 -1.4" stroke="#1e1e1e" stroke-width="1" fill="none"></path></g><g transform="translate(644.5508938264837 276.5474517266969) rotate(0 17.189543346915684 -0.16993902995750432)"><path d="M17.88 -6.33 C26.57 -4.89, 31.76 -2.21, 34.19 -1.07 M19.7 -7.16 C23.76 -5.13, 28.41 -3.87, 36.36 -1.4" stroke="#1e1e1e" stroke-width="1" fill="none"></path></g></g><mask></mask><g stroke-linecap="round"><g transform="translate(642.6193905531019 166.4517651439308) rotate(0 16.09527873167093 -0.47310721687972546)"><path d="M-1.07 -0.64 C7.63 -1.26, 14.51 0.84, 32 -1.12 M0.35 0.17 C12.11 -0.4, 23.1 -0.97, 33.26 -0.6" stroke="#1e1e1e" stroke-width="1" fill="none"></path></g><g transform="translate(642.6193905531019 166.4517651439308) rotate(0 16.09527873167093 -0.47310721687972546)"><path d="M16.57 4.41 C20.95 2.64, 23.81 3.09, 32.02 -1.53 M17.76 5.09 C23.19 2.63, 28 0.16, 33.08 -1.1" stroke="#1e1e1e" stroke-width="1" fill="none"></path></g><g transform="translate(642.6193905531019 166.4517651439308) rotate(0 16.09527873167093 -0.47310721687972546)"><path d="M16.7 -7.04 C21.08 -6.1, 23.92 -2.95, 32.02 -1.53 M17.89 -6.36 C23.35 -4.72, 28.12 -3.09, 33.08 -1.1" stroke="#1e1e1e" stroke-width="1" fill="none"></path></g></g><mask></mask><g stroke-linecap="round"><g transform="translate(644.5508938264837 83.39712438851075) rotate(0 17.192240841472483 -0.5451616396424299)"><path d="M0.7 0.34 C12.46 -0.79, 22.68 -1.94, 33.69 -1.2 M0.73 -0.71 C9.31 1.07, 19.59 -0.02, 33.67 -0.27" stroke="#1e1e1e" stroke-width="1" fill="none"></path></g><g transform="translate(644.5508938264837 83.39712438851075) rotate(0 17.192240841472483 -0.5451616396424299)"><path d="M18.41 6.33 C23.66 3.11, 27.62 -0.13, 33.3 -1.29 M18.44 5.43 C22.12 5.18, 27.26 2.52, 33.28 -0.5" stroke="#1e1e1e" stroke-width="1" fill="none"></path></g><g transform="translate(644.5508938264837 83.39712438851075) rotate(0 17.192240841472483 -0.5451616396424299)"><path d="M18.07 -5.33 C23.51 -4.38, 27.61 -3.44, 33.3 -1.29 M18.1 -6.23 C21.88 -3.29, 27.1 -2.75, 33.28 -0.5" stroke="#1e1e1e" stroke-width="1" fill="none"></path></g></g><mask></mask><g stroke-linecap="round"><g transform="translate(905.303835733035 268.8214386331695) rotate(0 0.15494348712911687 -95.14549454552156)"><path d="M1.01 -1.52 C1.12 -53.09, 1.57 -108.1, -0.06 -190.04 M-0.84 -0.25 C-0.48 -61.7, -0.84 -120.92, 0.68 -187.68" stroke="#1e1e1e" stroke-width="1" fill="none"></path></g></g><mask></mask><g stroke-linecap="round"><g transform="translate(905.303835733035 77.6026145683652) rotate(0 -34.19856280418094 -0.01816432686234748)"><path d="M-1.2 -1.68 C-16.2 2.43, -33.25 1.72, -67 1.36 M-0.19 0.08 C-27.28 -0.65, -53.92 0.43, -68.21 0.6" stroke="#1e1e1e" stroke-width="1" fill="none"></path></g></g><mask></mask><g stroke-linecap="round"><g transform="translate(837.7012211646701 172.89010938853698) rotate(0 30.67883446117014 0.11888918298649287)"><path d="M-0.32 -0.38 C22.69 -0.52, 43.96 0.26, 62.25 0.08 M-0.89 -0.53 C21.3 -0.55, 43.19 -0.4, 60.49 0.77" stroke="#1e1e1e" stroke-width="1" fill="none"></path></g></g><mask></mask><g stroke-linecap="round"><g transform="translate(838.3450555891305 270.1091074820907) rotate(0 33.088596657165795 -0.9384218585623216)"><path d="M-1.22 -1.03 C21.93 -1.47, 45.92 -2.13, 65.16 -1.42 M0.39 -0.84 C16.31 0.03, 31.27 0.19, 67.4 -0.95" stroke="#1e1e1e" stroke-width="1" fill="none"></path></g></g><mask></mask><g stroke-linecap="round"><g transform="translate(909.8106767042594 172.2462749640764) rotate(0 16.49629195139994 -0.9782375674694777)"><path d="M-1.04 -1.87 C10.98 0.85, 22.75 -2.26, 34.03 -1.39 M0.06 -0.09 C13.41 -0.91, 24.59 -1.16, 33.18 -0.32" stroke="#1e1e1e" stroke-width="1" fill="none"></path></g><g transform="translate(909.8106767042594 172.2462749640764) rotate(0 16.49629195139994 -0.9782375674694777)"><path d="M16.28 2.95 C22.39 3.8, 28.3 -0.21, 33.64 -0.94 M17.2 4.44 C23.96 2.21, 28.87 0.41, 32.93 -0.04" stroke="#1e1e1e" stroke-width="1" fill="none"></path></g><g transform="translate(909.8106767042594 172.2462749640764) rotate(0 16.49629195139994 -0.9782375674694777)"><path d="M16.92 -8.49 C22.89 -3.89, 28.59 -4.15, 33.64 -0.94 M17.84 -6.99 C24.26 -4.97, 28.93 -2.53, 32.93 -0.04" stroke="#1e1e1e" stroke-width="1" fill="none"></path></g></g><mask></mask><g stroke-linecap="round"><g transform="translate(1104.2486728913668 169.02710284177329) rotate(0 18.593543962616764 -0.45516815654670495)"><path d="M1.62 -1.88 C9.09 -0.11, 18.82 -0.73, 35.55 0.97 M0.91 -0.46 C10.72 -0.86, 21.14 -1.65, 36.28 -1.49" stroke="#1e1e1e" stroke-width="1" fill="none"></path></g><g transform="translate(1104.2486728913668 169.02710284177329) rotate(0 18.593543962616764 -0.45516815654670495)"><path d="M21.11 3 C23.84 3.18, 28.53 1.15, 36.4 -0.07 M20.48 4.26 C24.74 2.36, 29.52 -0.03, 37.05 -2.25" stroke="#1e1e1e" stroke-width="1" fill="none"></path></g><g transform="translate(1104.2486728913668 169.02710284177329) rotate(0 18.593543962616764 -0.45516815654670495)"><path d="M21.04 -9.11 C23.68 -5.71, 28.39 -4.51, 36.4 -0.07 M20.41 -7.86 C24.63 -6.1, 29.43 -4.83, 37.05 -2.25" stroke="#1e1e1e" stroke-width="1" fill="none"></path></g></g><mask></mask><g transform="translate(826.1122015243787 14.431503273381907) rotate(0 21.183332443237305 10)"><text x="0" y="0" font-family="Virgil, Segoe UI Emoji" font-size="16px" fill="#1e1e1e" text-anchor="start" style="white-space: pre;" direction="ltr" dominant-baseline="text-before-edge">event</text></g></svg>