<?xml version="1.0" encoding="UTF-8" standalone="no"?>
<!-- Generator: Adobe Illustrator 18.1.1, SVG Export Plug-In . SVG Version: 6.00 Build 0)  -->

<svg
   xmlns:dc="http://purl.org/dc/elements/1.1/"
   xmlns:cc="http://creativecommons.org/ns#"
   xmlns:rdf="http://www.w3.org/1999/02/22-rdf-syntax-ns#"
   xmlns:svg="http://www.w3.org/2000/svg"
   xmlns="http://www.w3.org/2000/svg"
   xmlns:sodipodi="http://sodipodi.sourceforge.net/DTD/sodipodi-0.dtd"
   xmlns:inkscape="http://www.inkscape.org/namespaces/inkscape"
   version="1.1"
   id="Capa_1"
   x="0px"
   y="0px"
   viewBox="0 0 31.21 31.21"
   style="enable-background:new 0 0 31.21 31.21;"
   xml:space="preserve"
   sodipodi:docname="board_top.svg"
   inkscape:version="0.92.2 2405546, 2018-03-11"><metadata
   id="metadata42"><rdf:RDF><cc:Work
       rdf:about=""><dc:format>image/svg+xml</dc:format><dc:type
         rdf:resource="http://purl.org/dc/dcmitype/StillImage" /><dc:title></dc:title></cc:Work></rdf:RDF></metadata><defs
   id="defs40" /><sodipodi:namedview
   pagecolor="#ffffff"
   bordercolor="#666666"
   borderopacity="1"
   objecttolerance="10"
   gridtolerance="10"
   guidetolerance="10"
   inkscape:pageopacity="0"
   inkscape:pageshadow="2"
   inkscape:window-width="1918"
   inkscape:window-height="1057"
   id="namedview38"
   showgrid="false"
   inkscape:zoom="10.693829"
   inkscape:cx="35.478408"
   inkscape:cy="25.884924"
   inkscape:window-x="0"
   inkscape:window-y="0"
   inkscape:window-maximized="1"
   inkscape:current-layer="Capa_1" />
<g
   id="g5">
	<g
   id="c78_cinema">
		<path
   style="fill:#030104"
   d="m 6.6,15.124 0.703,-0.5 C 12.528,11.606 24.09,4.353 24.09,4.353 24.57,4.076 24.735,3.46 24.459,2.98 L 23.451,0.503 C 23.174,0.021 22.558,-0.142 22.078,0.135 L 3.057,11.694 C 2.577,11.973 2.414,12.59 2.69,13.07 l 1.822,1.974 c 0.7481372,0.901959 0.7544594,0.909918 2.088,0.08 z m 12.447,-12.24 3.568,-2.29 -0.52,3.36 -3.652,2.344 z m -6.361,3.914 3.631,-2.262 -0.648,3.406 -3.627,2.262 z M 5.452,14.327 6.059,10.911 9.663,8.609 9.052,12.02 Z"
   id="path2"
   inkscape:connector-curvature="0"
   sodipodi:nodetypes="ccccccccccccccccccccccccc" />
	</g>
</g>
<g
   id="g7">
</g>
<g
   id="g9">
</g>
<g
   id="g11">
</g>
<g
   id="g13">
</g>
<g
   id="g15">
</g>
<g
   id="g17">
</g>
<g
   id="g19">
</g>
<g
   id="g21">
</g>
<g
   id="g23">
</g>
<g
   id="g25">
</g>
<g
   id="g27">
</g>
<g
   id="g29">
</g>
<g
   id="g31">
</g>
<g
   id="g33">
</g>
<g
   id="g35">
</g>
</svg>