<?xml version="1.0" encoding="iso-8859-1"?>
<!-- Generator: Adobe Illustrator 18.1.1, SVG Export Plug-In . SVG Version: 6.00 Build 0)  -->
<svg version="1.1" id="Capa_1" xmlns="http://www.w3.org/2000/svg" xmlns:xlink="http://www.w3.org/1999/xlink" x="0px" y="0px"
	 viewBox="0 0 31.21 31.21" style="enable-background:new 0 0 31.21 31.21;" xml:space="preserve">
<g>
	<g id="c78_cinema">
		<path style="fill:#030104;" d="M27.649,15.124c0,0-16.502,0-21.049,0l0.703-0.5C12.528,11.606,24.09,4.353,24.09,4.353
			c0.48-0.277,0.645-0.893,0.369-1.373l-1.008-2.477c-0.277-0.482-0.893-0.645-1.373-0.368L3.057,11.694
			c-0.48,0.279-0.643,0.896-0.367,1.376l1.822,1.974l0.014,15.161c0,0.557,0.451,1.005,1.006,1.005h22.117
			c0.557,0,1.006-0.448,1.006-1.005V16.131C28.655,15.575,28.205,15.124,27.649,15.124z M20.358,15.843l-3.104,3.016h-4.021
			l3.018-3.016C16.251,15.843,20.358,15.843,20.358,15.843z M19.047,2.884l3.568-2.29l-0.52,3.36l-3.652,2.344L19.047,2.884z
			 M12.686,6.798l3.631-2.262l-0.648,3.406l-3.627,2.262L12.686,6.798z M5.452,14.327l0.607-3.416l3.604-2.302L9.052,12.02
			L5.452,14.327z M9.211,15.843h4.021l-3.016,3.016h-4.02L9.211,15.843z M26.924,29.984H6.239v-9.556h20.686v9.556H26.924z
			 M24.356,18.858H20.27l3.018-3.016h3.992L24.356,18.858z"/>
	</g>
</g>
<g>
</g>
<g>
</g>
<g>
</g>
<g>
</g>
<g>
</g>
<g>
</g>
<g>
</g>
<g>
</g>
<g>
</g>
<g>
</g>
<g>
</g>
<g>
</g>
<g>
</g>
<g>
</g>
<g>
</g>
</svg>
